<?xml version="1.0" encoding="UTF-8"?>
<!DOCTYPE svg PUBLIC "-//W3C//DTD SVG 1.1//EN" "http://www.w3.org/Graphics/SVG/1.1/DTD/svg11.dtd">
<!-- Creator: CorelDRAW 2018 (64-Bit) -->
<svg xmlns="http://www.w3.org/2000/svg" xml:space="preserve" width="39.7901mm" height="38.8822mm" version="1.1" style="shape-rendering:geometricPrecision; text-rendering:geometricPrecision; image-rendering:optimizeQuality; fill-rule:evenodd; clip-rule:evenodd"
viewBox="0 0 5.0521 4.9368"
 xmlns:xlink="http://www.w3.org/1999/xlink">
 <defs>
  <style type="text/css">
   <![CDATA[
    .fil2 {fill:#FEFEFE}
    .fil0 {fill:#F2BF5E}
    .fil1 {fill:#FEFEFE;fill-rule:nonzero}
   ]]>
  </style>
 </defs>
 <g id="Warstwa_x0020_1">
  <metadata id="CorelCorpID_0Corel-Layer"/>
  <rect class="fil0" width="5.0521" height="4.9368"/>
  <path class="fil1" d="M1.0507 3.9376c-0.0083,0 -0.0167,-0.0003 -0.025,-0.0009 -0.0083,-0.0006 -0.017,-0.0012 -0.0259,-0.0018 -0.006,-0.0345 -0.0124,-0.0662 -0.0192,-0.095 -0.0068,-0.0288 -0.014,-0.0549 -0.0214,-0.0781 -0.0074,-0.0232 -0.0161,-0.0439 -0.0259,-0.062 -0.0098,-0.0181 -0.021,-0.0341 -0.0335,-0.0477 -0.0077,-0.0077 -0.0162,-0.014 -0.0254,-0.0187 -0.0092,-0.0048 -0.0183,-0.0083 -0.0272,-0.0107l0 -0.0125 0.1579 -0.2944c0.0083,-0.0024 0.0167,-0.0039 0.025,-0.0045 0.0083,-0.0006 0.0155,-0.0009 0.0214,-0.0009 0.0268,0 0.0366,0.0071 0.0294,0.0214l-0.1436 0.2489c0.0357,0.0268 0.0654,0.0686 0.0892,0.1254 0.0238,0.0568 0.0416,0.128 0.0535,0.2137 0.0006,0.0065 -0.001,0.0112 -0.0049,0.0138 -0.0039,0.0027 -0.012,0.004 -0.0245,0.004zm-0.2605 -0.0018l0 -0.6103c0,-0.0048 0.001,-0.008 0.0031,-0.0098 0.0021,-0.0018 0.0082,-0.003 0.0183,-0.0036 0.0101,-0.0006 0.0273,-0.0009 0.0517,-0.0009l0 0.6103c0,0.0047 -0.0009,0.008 -0.0027,0.0098 -0.0018,0.0018 -0.0079,0.003 -0.0183,0.0036 -0.0104,0.0006 -0.0278,0.0009 -0.0522,0.0009z"/>
  <path id="1" class="fil1" d="M1.14 3.9358l0 -0.4149c0.0173,-0.0125 0.0363,-0.0223 0.0571,-0.0294 0.0208,-0.0071 0.0422,-0.0107 0.0642,-0.0107 0.0232,0 0.0394,0.0031 0.0486,0.0094 0.0092,0.0062 0.0138,0.0156 0.0138,0.0281 0,0.0048 -0.0006,0.0111 -0.0018,0.0192 -0.0012,0.008 -0.0033,0.0159 -0.0062,0.0236 -0.0065,-0.0036 -0.0134,-0.0062 -0.0205,-0.008 -0.0071,-0.0018 -0.0146,-0.0027 -0.0223,-0.0027 -0.0101,0 -0.0204,0.0016 -0.0308,0.0049 -0.0104,0.0033 -0.0198,0.0082 -0.0281,0.0147l-0.0009 0.3515c0,0.0047 -0.001,0.008 -0.0031,0.0098 -0.0021,0.0018 -0.0082,0.003 -0.0183,0.0036 -0.0101,0.0006 -0.0274,0.0009 -0.0518,0.0009z"/>
  <path id="2" class="fil1" d="M1.4852 3.9447c-0.0202,0 -0.0391,-0.0028 -0.0567,-0.0085 -0.0175,-0.0057 -0.0327,-0.0159 -0.0455,-0.0308 -0.0128,-0.0149 -0.0226,-0.036 -0.0294,-0.0633 -0.0068,-0.0274 -0.0103,-0.0627 -0.0103,-0.1062 0,-0.0559 0.0045,-0.1008 0.0134,-0.1347 0.0089,-0.0339 0.0208,-0.0595 0.0357,-0.0767 0.0149,-0.0173 0.0318,-0.0288 0.0509,-0.0348 0.019,-0.0059 0.0384,-0.0089 0.058,-0.0089 0.0375,0 0.0657,0.0119 0.0848,0.0357 0.019,0.0238 0.0286,0.0598 0.0286,0.1079 0,0.0196 -0.0007,0.0399 -0.0022,0.0607 -0.0015,0.0208 -0.0043,0.0393 -0.0085,0.0553 -0.0202,0.0042 -0.0428,0.0071 -0.0678,0.0089 -0.025,0.0018 -0.0488,0.0031 -0.0714,0.004 -0.0226,0.0009 -0.0412,0.0013 -0.0558,0.0013 -0.0146,0 -0.0219,0 -0.0219,0l0.0009 -0.0589c0,0 0.0057,0.0001 0.017,0.0004 0.0113,0.0003 0.0251,0.0003 0.0415,0 0.0164,-0.0003 0.033,-0.0012 0.05,-0.0027 0.017,-0.0015 0.0314,-0.004 0.0433,-0.0076 0.0018,-0.0083 0.003,-0.0173 0.0036,-0.0268 0.0006,-0.0095 0.0009,-0.0184 0.0009,-0.0268 -0.0006,-0.0321 -0.0043,-0.0549 -0.0112,-0.0683 -0.0068,-0.0134 -0.0201,-0.0201 -0.0397,-0.0201 -0.0101,0 -0.0198,0.0028 -0.029,0.0085 -0.0092,0.0057 -0.0174,0.0155 -0.0245,0.0294 -0.0071,0.014 -0.0126,0.0332 -0.0165,0.0576 -0.0039,0.0244 -0.0058,0.0556 -0.0058,0.0937 0,0.028 0.0016,0.0512 0.0049,0.0696 0.0033,0.0184 0.0083,0.0327 0.0152,0.0428 0.0068,0.0101 0.0155,0.0174 0.0259,0.0219 0.0104,0.0045 0.0231,0.0067 0.0379,0.0067 0.0178,0 0.0355,-0.0024 0.0531,-0.0071 0.0175,-0.0047 0.0335,-0.0116 0.0477,-0.0205 0.003,0.0071 0.0049,0.0153 0.0058,0.0245 0.0009,0.0092 0.0013,0.0174 0.0013,0.0245 0,0.0089 -0.0057,0.0172 -0.017,0.025 -0.0113,0.0077 -0.0263,0.0137 -0.045,0.0179 -0.0187,0.0042 -0.0394,0.0062 -0.062,0.0062z"/>
  <path id="3" class="fil1" d="M1.7913 3.9447c-0.0166,0 -0.0326,-0.0013 -0.0477,-0.004 -0.0152,-0.0027 -0.0287,-0.0086 -0.0406,-0.0178 -0.0119,-0.0092 -0.0214,-0.0228 -0.0286,-0.0406 -0.0071,-0.0179 -0.0107,-0.0422 -0.0107,-0.0732 0,-0.0309 0.0033,-0.0561 0.0098,-0.0754 0.0065,-0.0193 0.0155,-0.0342 0.0268,-0.0446 0.0113,-0.0104 0.0241,-0.0174 0.0384,-0.021 0.0143,-0.0036 0.0288,-0.0053 0.0437,-0.0053 0.0095,0 0.0207,0.0009 0.0335,0.0027 0.0128,0.0018 0.0236,0.0048 0.0326,0.0089 0,0 0,-0.0042 0,-0.0125 0,-0.0083 0,-0.018 0,-0.029 0,-0.011 0,-0.0207 0,-0.029 0,-0.0143 -0.0022,-0.0251 -0.0067,-0.0326 -0.0045,-0.0074 -0.0107,-0.0128 -0.0187,-0.0161 -0.008,-0.0033 -0.018,-0.0049 -0.0299,-0.0049 -0.0232,0 -0.0455,0.0021 -0.0669,0.0062 -0.0214,0.0042 -0.0387,0.0089 -0.0518,0.0143 -0.0042,-0.0071 -0.0068,-0.0144 -0.008,-0.0219 -0.0012,-0.0074 -0.0018,-0.0141 -0.0018,-0.0201 0,-0.0042 0.0007,-0.0086 0.0022,-0.0134 0.0015,-0.0047 0.004,-0.0083 0.0076,-0.0107 0.0077,-0.0048 0.0238,-0.01 0.0482,-0.0156 0.0244,-0.0057 0.0535,-0.0085 0.0874,-0.0085 0.0387,0 0.0668,0.008 0.0843,0.0241 0.0175,0.0161 0.0263,0.0443 0.0263,0.0848l0 0.0473c0,0.0339 -0.0001,0.068 -0.0004,0.1022 -0.0003,0.0342 -0.0007,0.0663 -0.0013,0.0964 -0.0006,0.03 -0.0018,0.0563 -0.0036,0.079 -0.0119,0.0071 -0.0283,0.014 -0.0491,0.0205 -0.0208,0.0065 -0.0458,0.0098 -0.0749,0.0098zm0.0071 -0.0607c0.0095,0 0.0187,-0.0015 0.0277,-0.0045 0.0089,-0.003 0.0152,-0.0065 0.0187,-0.0107 0.0012,-0.0095 0.0019,-0.0226 0.0022,-0.0393 0.0003,-0.0167 0.0006,-0.0342 0.0009,-0.0526 0.0003,-0.0184 0.0004,-0.0357 0.0004,-0.0517 -0.0059,-0.003 -0.0129,-0.0051 -0.021,-0.0062 -0.008,-0.0012 -0.015,-0.0018 -0.021,-0.0018 -0.0095,0 -0.0183,0.001 -0.0263,0.0031 -0.008,0.0021 -0.015,0.0062 -0.021,0.0125 -0.006,0.0062 -0.0107,0.0153 -0.0143,0.0272 -0.0036,0.0119 -0.0053,0.0277 -0.0053,0.0473 0,0.0161 0.0013,0.0292 0.004,0.0393 0.0027,0.0101 0.0067,0.018 0.012,0.0236 0.0053,0.0057 0.0116,0.0094 0.0187,0.0112 0.0071,0.0018 0.0152,0.0027 0.0241,0.0027z"/>
  <path id="4" class="fil1" d="M2.1107 3.9447c-0.025,0 -0.0436,-0.0055 -0.0558,-0.0165 -0.0122,-0.011 -0.0201,-0.0265 -0.0236,-0.0464 -0.0036,-0.0199 -0.0054,-0.0433 -0.0054,-0.07l0 -0.2596 -0.0607 0c0,-0.019 0.0002,-0.0329 0.0004,-0.0415 0.0003,-0.0086 0.0016,-0.0143 0.004,-0.017 0.0024,-0.0027 0.006,-0.004 0.0107,-0.004l0.0455 0 0 -0.1356c0,-0.0089 0.0019,-0.015 0.0058,-0.0183 0.0039,-0.0033 0.011,-0.0052 0.0214,-0.0058 0.0104,-0.0006 0.0254,-0.0009 0.045,-0.0009l0 0.1606 0.091 0c0,0.0184 -0.0002,0.0321 -0.0005,0.041 -0.0003,0.0089 -0.0015,0.0147 -0.0036,0.0174 -0.0021,0.0027 -0.0055,0.004 -0.0103,0.004l-0.0767 0 0 0.2596c0,0.0125 0.0004,0.0242 0.0013,0.0352 0.0009,0.011 0.0036,0.0196 0.008,0.0259 0.0045,0.0062 0.012,0.0094 0.0228,0.0094 0.0101,0 0.019,-0.001 0.0268,-0.0031 0.0077,-0.0021 0.0161,-0.0055 0.025,-0.0103 0.0012,0.0048 0.0024,0.0101 0.0036,0.0161 0.0012,0.0059 0.0018,0.0128 0.0018,0.0205 0,0.0107 -0.004,0.0189 -0.012,0.0245 -0.008,0.0057 -0.0178,0.0095 -0.0294,0.0116 -0.0116,0.0021 -0.0233,0.0031 -0.0352,0.0031z"/>
  <path id="5" class="fil1" d="M2.2766 4.108c-0.0262,0 -0.0448,-0.0033 -0.0558,-0.0098 -0.011,-0.0065 -0.0165,-0.0149 -0.0165,-0.025 0,-0.0071 0.0009,-0.0146 0.0027,-0.0223 0.0018,-0.0077 0.0045,-0.014 0.008,-0.0187 0.006,0.0042 0.0143,0.0076 0.025,0.0103 0.0107,0.0027 0.0211,0.004 0.0312,0.004 0.0143,0 0.0271,-0.0068 0.0384,-0.0205 0.0113,-0.0137 0.0202,-0.039 0.0268,-0.0758l-0.1071 -0.4407c-0.0018,-0.0065 -0.0019,-0.0111 -0.0004,-0.0138 0.0015,-0.0027 0.0074,-0.0043 0.0179,-0.0049 0.0104,-0.0006 0.0281,-0.0009 0.0531,-0.0009l0.0482 0.2132c0.0036,0.0178 0.0068,0.036 0.0098,0.0544 0.003,0.0184 0.0054,0.0355 0.0071,0.0513 0.0018,0.0158 0.0034,0.0284 0.0049,0.0379 0.0015,0.0095 0.0022,0.0143 0.0022,0.0143 0,0 0.0005,-0.0047 0.0013,-0.0143 0.0009,-0.0095 0.0024,-0.0222 0.0045,-0.0379 0.0021,-0.0158 0.0045,-0.033 0.0071,-0.0518 0.0027,-0.0187 0.0055,-0.037 0.0085,-0.0549l0.0401 -0.1909c0.0012,-0.0077 0.003,-0.0129 0.0054,-0.0156 0.0024,-0.0027 0.0089,-0.0043 0.0196,-0.0049 0.0107,-0.0006 0.0283,-0.0009 0.0526,-0.0009l-0.1097 0.4702c-0.0089,0.0375 -0.0189,0.0671 -0.0299,0.0888 -0.011,0.0217 -0.0241,0.037 -0.0392,0.0459 -0.0152,0.0089 -0.0338,0.0134 -0.0558,0.0134z"/>
  <path id="6" class="fil1" d="M2.8521 3.9411c-0.0065,0 -0.0137,-0.0037 -0.0214,-0.0112 -0.0077,-0.0074 -0.0134,-0.0192 -0.017,-0.0352l-0.0116 -0.0598c-0.0047,-0.0226 -0.0091,-0.0461 -0.0129,-0.0705 -0.0039,-0.0244 -0.0073,-0.0482 -0.0103,-0.0714 -0.003,-0.0232 -0.0055,-0.0442 -0.0076,-0.0629 -0.0021,-0.0187 -0.0036,-0.0338 -0.0045,-0.0451 -0.0009,-0.0113 -0.0013,-0.017 -0.0013,-0.017l-0.0107 -0.041c-0.0006,-0.0042 0.0004,-0.0094 0.0031,-0.0156 0.0027,-0.0062 0.0067,-0.0094 0.012,-0.0094l0.0357 0 0.0348 0.1874c0.0042,0.0166 0.0079,0.0345 0.0111,0.0535 0.0033,0.019 0.0061,0.0369 0.0085,0.0535 0.0024,0.0167 0.0043,0.0302 0.0058,0.0406 0.0015,0.0104 0.0022,0.0156 0.0022,0.0156l0.0045 0c0.0018,-0.0184 0.004,-0.04 0.0067,-0.0647 0.0027,-0.0247 0.0059,-0.0504 0.0098,-0.0772 0.0039,-0.0268 0.0076,-0.052 0.0111,-0.0758l0.0232 -0.1294c0.0006,-0.0053 0.0022,-0.0091 0.0049,-0.0111 0.0027,-0.0021 0.0089,-0.0034 0.0187,-0.004 0.0098,-0.0006 0.0257,-0.0009 0.0477,-0.0009 0,0 -0.0016,0.008 -0.0049,0.0241 -0.0033,0.0161 -0.0077,0.0375 -0.0134,0.0642 -0.0057,0.0268 -0.0117,0.0562 -0.0183,0.0883 -0.0065,0.0321 -0.0132,0.0641 -0.0201,0.0959 -0.0068,0.0318 -0.0132,0.0611 -0.0192,0.0879 -0.006,0.0268 -0.0107,0.0482 -0.0143,0.0642 -0.0036,0.016 -0.0057,0.0241 -0.0062,0.0241 0,0 -0.004,0.0004 -0.012,0.0013 -0.008,0.0009 -0.0195,0.0013 -0.0344,0.0013zm-0.1954 0c-0.0077,0 -0.0141,-0.0042 -0.0192,-0.0125 -0.0051,-0.0083 -0.0091,-0.0187 -0.012,-0.0312 -0.0042,-0.0184 -0.0092,-0.0406 -0.0152,-0.0665 -0.006,-0.0259 -0.012,-0.0535 -0.0183,-0.083 -0.0062,-0.0294 -0.0125,-0.0586 -0.0187,-0.0874 -0.0062,-0.0288 -0.0119,-0.055 -0.017,-0.0785 -0.0051,-0.0235 -0.0091,-0.0422 -0.012,-0.0562 -0.003,-0.014 -0.0045,-0.021 -0.0045,-0.021 -0.0006,-0.0054 0.0004,-0.0089 0.0031,-0.0107 0.0027,-0.0018 0.0097,-0.003 0.021,-0.0036 0.0113,-0.0006 0.0294,-0.0009 0.0544,-0.0009l0.0268 0.1454c0.0048,0.025 0.0091,0.0503 0.0129,0.0758 0.0039,0.0256 0.0071,0.0491 0.0098,0.0705 0.0027,0.0214 0.0048,0.0387 0.0062,0.0518 0.0015,0.0131 0.0022,0.0196 0.0022,0.0196l0.0054 0c0.0012,-0.0107 0.0031,-0.0254 0.0058,-0.0442 0.0027,-0.0187 0.0058,-0.039 0.0094,-0.0607 0.0036,-0.0217 0.0068,-0.0418 0.0098,-0.0602l0.0277 -0.1704c0.0012,-0.0065 0.0033,-0.0107 0.0062,-0.0125 0.003,-0.0018 0.0089,-0.0027 0.0178,-0.0027l0.0196 0c0.006,0 0.0086,0.0015 0.008,0.0045 -0.0006,0.003 -0.0022,0.0064 -0.0049,0.0103 -0.0027,0.0039 -0.0043,0.0073 -0.0049,0.0103l-0.0018 0.0401c0,0 -0.0006,0.0055 -0.0018,0.0165 -0.0012,0.011 -0.0028,0.0262 -0.0049,0.0455 -0.0021,0.0193 -0.0046,0.0406 -0.0076,0.0638 -0.003,0.0232 -0.0062,0.0471 -0.0098,0.0718 -0.0036,0.0247 -0.008,0.048 -0.0134,0.07l-0.0196 0.1035c0,0 -0.0036,0.0002 -0.0107,0.0004 -0.0071,0.0003 -0.0153,0.0007 -0.0245,0.0013 -0.0092,0.0006 -0.0177,0.0009 -0.0254,0.0009z"/>
  <path id="7" class="fil1" d="M3.0475 3.9358l0 -0.4247c0.0119,-0.0054 0.0259,-0.0103 0.0419,-0.0147 0.0161,-0.0045 0.0327,-0.0082 0.05,-0.0112 0.0172,-0.003 0.0339,-0.0045 0.05,-0.0045 0.0309,0 0.0556,0.004 0.074,0.012 0.0184,0.008 0.0315,0.0207 0.0393,0.0379 0.0077,0.0172 0.0116,0.0404 0.0116,0.0696l0 0.3212c0,0.0047 -0.0012,0.008 -0.0036,0.0098 -0.0024,0.0018 -0.0086,0.003 -0.0187,0.0036 -0.0101,0.0006 -0.0277,0.0009 -0.0526,0.0009l0 -0.3141c0,-0.0279 -0.0033,-0.0479 -0.0098,-0.0598 -0.0065,-0.0119 -0.0208,-0.0178 -0.0428,-0.0178 -0.0101,0 -0.0214,0.0012 -0.0339,0.0036 -0.0125,0.0024 -0.0235,0.0065 -0.033,0.0125l0 0.3613c0,0.0047 -0.001,0.008 -0.0031,0.0098 -0.0021,0.0018 -0.0082,0.003 -0.0183,0.0036 -0.0101,0.0006 -0.0271,0.0009 -0.0509,0.0009z"/>
  <path id="8" class="fil1" d="M3.5212 3.9447c-0.0226,0 -0.0427,-0.0028 -0.0602,-0.0085 -0.0175,-0.0057 -0.0323,-0.0165 -0.0442,-0.0326 -0.0119,-0.0161 -0.0208,-0.0394 -0.0268,-0.07 -0.006,-0.0306 -0.0089,-0.0709 -0.0089,-0.1209 0,-0.0815 0.0131,-0.1405 0.0393,-0.1771 0.0262,-0.0366 0.0625,-0.0549 0.1088,-0.0549 0.0315,0 0.0575,0.0065 0.0781,0.0196 0.0205,0.0131 0.0358,0.0363 0.0459,0.0696 0.0101,0.0333 0.0152,0.08 0.0152,0.1401 0,0.0833 -0.0125,0.1432 -0.0375,0.1798 -0.025,0.0366 -0.0616,0.0549 -0.1098,0.0549zm0.0018 -0.0616c0.0131,0 0.0245,-0.0046 0.0343,-0.0138 0.0098,-0.0092 0.0177,-0.0263 0.0237,-0.0513 0.0059,-0.025 0.0089,-0.0607 0.0089,-0.1071 0,-0.0476 -0.0024,-0.0834 -0.0071,-0.1075 -0.0048,-0.0241 -0.0116,-0.0403 -0.0205,-0.0486 -0.0089,-0.0083 -0.0208,-0.0125 -0.0357,-0.0125 -0.0131,0 -0.0247,0.0046 -0.0348,0.0138 -0.0101,0.0092 -0.018,0.0263 -0.0237,0.0513 -0.0057,0.025 -0.0085,0.0607 -0.0085,0.1071 0,0.0363 0.0015,0.0657 0.0045,0.0883 0.003,0.0226 0.007,0.0397 0.012,0.0513 0.0051,0.0116 0.0117,0.0193 0.0201,0.0232 0.0083,0.0039 0.0172,0.0058 0.0268,0.0058z"/>
  <path id="9" class="fil1" d="M3.8281 3.9447c-0.0315,0 -0.0575,-0.0037 -0.0781,-0.0112 -0.0205,-0.0074 -0.0308,-0.0189 -0.0308,-0.0343 0,-0.0054 0.0009,-0.0117 0.0027,-0.0192 0.0018,-0.0074 0.0051,-0.015 0.0098,-0.0228 0.0131,0.0077 0.0269,0.0134 0.0415,0.017 0.0146,0.0036 0.0305,0.0054 0.0477,0.0054 0.0226,0 0.0403,-0.0046 0.0531,-0.0138 0.0128,-0.0092 0.0192,-0.023 0.0192,-0.0415 0,-0.0119 -0.0025,-0.0235 -0.0076,-0.0348 -0.0051,-0.0113 -0.0144,-0.0229 -0.0281,-0.0348l-0.0865 -0.074c-0.0202,-0.0167 -0.0338,-0.0329 -0.0406,-0.0486 -0.0068,-0.0158 -0.0103,-0.0311 -0.0103,-0.0459 0,-0.0208 0.0052,-0.0391 0.0156,-0.0549 0.0104,-0.0158 0.0265,-0.0281 0.0482,-0.037 0.0217,-0.0089 0.0489,-0.0134 0.0816,-0.0134 0.0309,0 0.0543,0.003 0.07,0.0089 0.0158,0.006 0.0268,0.0126 0.033,0.0201 0.0062,0.0074 0.0094,0.0144 0.0094,0.021 0,0.0125 -0.0054,0.0247 -0.0161,0.0366 -0.0131,-0.0083 -0.0268,-0.0143 -0.041,-0.0178 -0.0143,-0.0036 -0.0297,-0.0054 -0.0464,-0.0054 -0.0214,0 -0.0385,0.0037 -0.0513,0.0111 -0.0128,0.0074 -0.0192,0.018 -0.0192,0.0317 0,0.0077 0.0022,0.0158 0.0067,0.0241 0.0045,0.0083 0.0141,0.0187 0.029,0.0312l0.083 0.0669c0.0196,0.0184 0.0333,0.036 0.041,0.0526 0.0077,0.0166 0.0116,0.0363 0.0116,0.0589 0,0.0393 -0.0131,0.0697 -0.0393,0.0915 -0.0262,0.0217 -0.0622,0.0326 -0.1079,0.0326zm-0.0241 -0.5086c-0.0054,0 -0.0101,-0.0033 -0.0143,-0.0098 -0.0042,-0.0065 -0.0074,-0.0132 -0.0098,-0.0201 -0.0024,-0.0068 -0.0036,-0.0103 -0.0036,-0.0103 0.0101,-0.0113 0.0216,-0.023 0.0344,-0.0352 0.0128,-0.0122 0.0254,-0.0237 0.0379,-0.0344 0.0125,-0.0107 0.023,-0.0192 0.0317,-0.0254 0.0086,-0.0062 0.0138,-0.0094 0.0156,-0.0094 0.0083,0 0.0156,0.0064 0.0219,0.0192 0.0062,0.0128 0.01,0.0245 0.0111,0.0352 -0.003,0.0042 -0.0098,0.0103 -0.0205,0.0183 -0.0107,0.008 -0.0226,0.0168 -0.0357,0.0263 -0.0131,0.0095 -0.0259,0.0184 -0.0384,0.0268 -0.0125,0.0083 -0.0226,0.0146 -0.0303,0.0187z"/>
  <path id="10" class="fil1" d="M4.1609 3.9447c-0.022,0 -0.0412,-0.0028 -0.0575,-0.0085 -0.0164,-0.0057 -0.0302,-0.0164 -0.0415,-0.0321 -0.0113,-0.0158 -0.0198,-0.0382 -0.0254,-0.0674 -0.0057,-0.0291 -0.0085,-0.0672 -0.0085,-0.1142 0,-0.0535 0.0048,-0.0964 0.0143,-0.1285 0.0095,-0.0321 0.0222,-0.0564 0.0379,-0.0727 0.0158,-0.0164 0.033,-0.0272 0.0518,-0.0326 0.0187,-0.0053 0.0373,-0.008 0.0558,-0.008 0.0208,0 0.0384,0.0037 0.0526,0.0111 0.0143,0.0074 0.0214,0.0171 0.0214,0.029 0,0.0048 -0.0004,0.0107 -0.0013,0.0178 -0.0009,0.0071 -0.0028,0.0146 -0.0058,0.0223 -0.0071,-0.0042 -0.0164,-0.0079 -0.0277,-0.0111 -0.0113,-0.0033 -0.0232,-0.0049 -0.0357,-0.0049 -0.0101,0 -0.0204,0.0019 -0.0308,0.0058 -0.0104,0.0039 -0.0201,0.0117 -0.029,0.0236 -0.0089,0.0119 -0.0159,0.0297 -0.021,0.0535 -0.0051,0.0238 -0.0076,0.0553 -0.0076,0.0946 0,0.0315 0.0016,0.0575 0.0049,0.0781 0.0033,0.0205 0.0082,0.0366 0.0147,0.0482 0.0065,0.0116 0.0149,0.0198 0.025,0.0245 0.0101,0.0048 0.0217,0.0071 0.0348,0.0071 0.0143,0 0.0278,-0.0022 0.0406,-0.0067 0.0128,-0.0045 0.023,-0.0091 0.0308,-0.0138 0.0024,0.0077 0.004,0.0147 0.0049,0.021 0.0009,0.0062 0.0013,0.0124 0.0013,0.0183 0,0.0125 -0.0092,0.0232 -0.0277,0.0321 -0.0184,0.0089 -0.0422,0.0134 -0.0714,0.0134zm-0.0553 -0.5086c-0.0054,0 -0.0101,-0.0033 -0.0143,-0.0098 -0.0042,-0.0065 -0.0074,-0.0132 -0.0098,-0.0201 -0.0024,-0.0068 -0.0036,-0.0103 -0.0036,-0.0103 0.0101,-0.0113 0.0216,-0.023 0.0344,-0.0352 0.0128,-0.0122 0.0254,-0.0237 0.0379,-0.0344 0.0125,-0.0107 0.023,-0.0192 0.0317,-0.0254 0.0086,-0.0062 0.0138,-0.0094 0.0156,-0.0094 0.0083,0 0.0156,0.0064 0.0219,0.0192 0.0062,0.0128 0.01,0.0245 0.0111,0.0352 -0.003,0.0042 -0.0098,0.0103 -0.0205,0.0183 -0.0107,0.008 -0.0226,0.0168 -0.0357,0.0263 -0.0131,0.0095 -0.0259,0.0184 -0.0384,0.0268 -0.0125,0.0083 -0.0226,0.0146 -0.0303,0.0187z"/>
  <g id="_2826247340720">
   <path class="fil2" d="M2.2419 2.4807c0.0426,0.0052 0.5487,0.0045 0.57,-0.0016 0.0051,-0.2209 -0.0089,-0.3219 0.1176,-0.4549 0.1063,-0.1117 0.1768,-0.1652 0.1757,-0.3995 -0.0015,-0.3184 -0.2571,-0.5749 -0.575,-0.5767 -0.3196,-0.0017 -0.5787,0.2558 -0.581,0.572 -0.0016,0.2241 0.0577,0.2866 0.1742,0.4021 0.1149,0.1139 0.1205,0.2567 0.1186,0.4586zm0.3216 -1.3016c-0.0259,0.0186 -0.0194,0.0528 0.0139,0.058 0.037,0.0058 0.0567,0.0025 0.0942,0.0138 0.1311,0.0396 0.2224,0.1511 0.2312,0.2901 0.0066,0.1037 0.1178,0.0643 0.0394,-0.1237 -0.0411,-0.0986 -0.1069,-0.1676 -0.206,-0.2131 -0.0299,-0.0137 -0.1395,-0.0491 -0.1728,-0.0252z"/>
   <path class="fil2" d="M2.2517 2.6191c-0.0215,0.0109 -0.0266,0.0355 -0.0105,0.0519 0.0197,0.0201 0.2004,0.011 0.2331,0.011 0.0444,0 0.3028,0.0051 0.3228,-0.0043 0.0182,-0.0085 0.0241,-0.0378 0.0078,-0.0536 -0.0189,-0.0183 -0.2014,-0.0097 -0.2329,-0.0097 -0.0459,0 -0.2998,-0.0057 -0.3203,0.0047z"/>
   <path class="fil2" d="M2.2566 2.7167c-0.0194,0.0072 -0.0332,0.0274 -0.0181,0.0507 0.012,0.0186 0.0411,0.0143 0.0684,0.0142 0.0787,-0.0003 0.4635,0.0045 0.4856,-0.0022 0.0195,-0.0059 0.0314,-0.03 0.016,-0.0519 -0.0122,-0.0174 -0.0423,-0.0134 -0.0691,-0.0133 -0.074,0.0003 -0.4664,-0.0036 -0.4828,0.0025z"/>
   <path class="fil2" d="M2.279 2.5817l0.4929 0c0.0606,0 0.0577,-0.0673 0,-0.0673l-0.4929 -0c-0.0627,0 -0.0647,0.0674 0,0.0674z"/>
   <path class="fil2" d="M2.6715 2.8143l-0.2955 0.0001c0.0179,0.1402 0.279,0.1388 0.2955,-0.0001z"/>
   <path class="fil2" d="M3.3207 1.6766c0.0562,0 0.1304,0.0115 0.1351,-0.0291 0.0036,-0.0314 -0.0189,-0.0386 -0.0467,-0.0386 -0.0654,0 -0.1957,-0.0176 -0.1645,0.0495 0.0116,0.025 0.0491,0.0182 0.0761,0.0182z"/>
   <path class="fil2" d="M2.516 0.7364c0,0.0653 -0.0178,0.1982 0.049,0.1656 0.0301,-0.0147 0.0185,-0.1057 0.0185,-0.1656 0,-0.0619 -0.0675,-0.063 -0.0675,0z"/>
   <path class="fil2" d="M3.298 1.1638c-0.0387,0.0191 -0.0751,0.0416 -0.108,0.0603 -0.0187,0.0107 -0.0406,0.0192 -0.0373,0.0465 0.0085,0.0713 0.1197,-0.017 0.1576,-0.038 0.0209,-0.0116 0.0383,-0.0193 0.0369,-0.0442 -0.0014,-0.026 -0.0245,-0.0368 -0.0492,-0.0246z"/>
   <path class="fil2" d="M3.011 0.8238c-0.0474,-0.0047 -0.0436,0.0114 -0.0842,0.0817 -0.0139,0.024 -0.0684,0.0944 -0.0186,0.1097 0.041,0.0126 0.0625,-0.0508 0.0798,-0.0812 0.0447,-0.0785 0.0519,-0.0734 0.023,-0.1102z"/>
   <path class="fil2" d="M2.0798 0.8073c-0.0362,0.0285 0.0243,0.1009 0.0572,0.1595 0.0316,0.0563 0.0927,0.0222 0.0579,-0.0348 -0.0384,-0.0629 -0.0704,-0.16 -0.1151,-0.1247z"/>
   <path class="fil2" d="M1.754 1.1213c-0.024,0.0072 -0.0353,0.0318 -0.016,0.0539 0.001,0.0012 0.1369,0.0927 0.1651,0.0826 0.0209,-0.0075 0.0271,-0.0357 0.0136,-0.052 -0.009,-0.0108 -0.0366,-0.0236 -0.0512,-0.0322 -0.0228,-0.0135 -0.0875,-0.0594 -0.1114,-0.0523z"/>
   <path class="fil2" d="M1.6465 1.6313l0.1209 0c0.0612,0 0.0642,-0.0675 0,-0.0675l-0.1215 0c-0.0667,0 -0.0668,0.0675 0.0006,0.0675z"/>
  </g>
 </g>
</svg>
