<?xml version="1.0" encoding="UTF-8"?>
<!DOCTYPE svg PUBLIC "-//W3C//DTD SVG 1.1//EN" "http://www.w3.org/Graphics/SVG/1.1/DTD/svg11.dtd">
<!-- Creator: CorelDRAW 2018 (64-Bit) -->
<svg xmlns="http://www.w3.org/2000/svg" xml:space="preserve" width="39.7901mm" height="38.8821mm" version="1.1" style="shape-rendering:geometricPrecision; text-rendering:geometricPrecision; image-rendering:optimizeQuality; fill-rule:evenodd; clip-rule:evenodd"
viewBox="0 0 10.649 10.406"
 xmlns:xlink="http://www.w3.org/1999/xlink">
 <defs>
  <style type="text/css">
   <![CDATA[
    .fil1 {fill:#FEFEFE}
    .fil0 {fill:#F2BF5E}
    .fil2 {fill:#FEFEFE;fill-rule:nonzero}
   ]]>
  </style>
 </defs>
 <g id="Warstwa_x0020_1">
  <metadata id="CorelCorpID_0Corel-Layer"/>
  <rect class="fil0" y="-0" width="10.649" height="10.406"/>
  <g id="_2826240086080">
   <path class="fil1" d="M2.6301 3.3983c0.0448,0.0037 0.4141,0.1424 0.4979,0.1711 0.0326,0.0112 0.0479,0.0207 0.077,0.0275 0.0106,-0.0456 0.0312,-0.059 0.0418,-0.1045 0.1225,0 0.1929,-0.0449 0.2299,0.0105 -0.0517,0.0043 -0.1263,0.0298 -0.1777,0.0418 -0.005,0.0599 -0.093,0.2408 -0.121,0.3075 -0.079,0.1881 -0.235,0.6409 -0.2447,0.8425l-0.0002 0.1984c0.1018,0.0237 0.1829,0.0994 0.3997,0.0443 0.0534,-0.0136 0.0652,-0.0333 0.1125,-0.0443l0.0358 -0.6123c0.0147,-0.0975 0.027,-0.4875 0.027,-0.6211 0.0798,-0.0066 0.2965,-0.077 0.3763,-0.0836 -0.013,0.0244 -0.018,0.0272 -0.0209,0.0627 -0.0454,0.0038 -0.2186,0.0688 -0.2822,0.0836 0.0516,0.0448 0.3532,0.1225 0.4195,0.145l0.8625 0.2665c0.0772,0.0227 0.1413,0.04 0.2169,0.0654 0.2643,0.0886 0.1923,0.0785 0.3969,0.0183 0.0571,-0.0168 0.11,-0.0327 0.1675,-0.052 0.059,-0.0198 0.1081,-0.0331 0.167,-0.0525 0.0581,-0.0191 0.1103,-0.0354 0.1679,-0.0517l0.5037 -0.1548c0.0594,-0.0199 0.1163,-0.0374 0.1757,-0.0543 0.3039,-0.0862 0.5412,-0.1863 0.8252,-0.2828 0.061,-0.0208 0.1045,-0.0385 0.162,-0.0575 0.065,-0.0214 0.2873,-0.1095 0.3359,-0.1136 -0.0228,-0.0311 -0.0955,-0.0489 -0.1567,-0.0733 -0.5995,-0.2385 -1.2369,-0.471 -1.8429,-0.7076 -0.0815,-0.0318 -0.6415,-0.254 -0.6763,-0.254 -0.0341,0 -1.9004,0.7221 -2.0129,0.7676l-0.581 0.2238c-0.0422,0.0151 -0.0583,0.011 -0.082,0.0434z"/>
   <path class="fil1" d="M6.9054 3.9523c-0.0719,0.0168 -0.1288,0.0373 -0.2024,0.059l-1.3969 0.4275c-0.0294,0 -0.1561,-0.0462 -0.1986,-0.0578l-1.1983 -0.3696c-0.0735,-0.0217 -0.1305,-0.0422 -0.2024,-0.059 0,0.2578 0.0015,0.516 -0.0001,0.7737 -0.0014,0.2234 0.1323,0.3587 0.3208,0.4632 0.1644,0.0912 0.3651,0.1624 0.5705,0.2029 0.1595,0.0315 0.3525,0.0669 0.5201,0.0653 0.0776,-0.0007 0.11,0.0108 0.188,0.0108 0.0756,0 0.105,-0.0114 0.1775,-0.011 0.0799,0.0005 0.1179,-0.0059 0.188,-0.0106 0.1155,-0.0077 0.2282,-0.0316 0.3339,-0.0529 0.2477,-0.05 0.6433,-0.1831 0.7971,-0.3737 0.0618,-0.0766 0.1039,-0.1445 0.103,-0.2838 -0.0017,-0.2612 -0.0001,-0.5229 -0.0001,-0.7841z"/>
  </g>
  <path class="fil2" d="M1.2695 7.759c-0.0188,0 -0.0288,-0.0032 -0.0301,-0.0094 -0.0013,-0.0063 -0.0019,-0.0169 -0.0019,-0.032l0 -0.7052c0,-0.0038 0.0003,-0.0107 0.0009,-0.0207 0.0006,-0.01 0.0078,-0.015 0.0216,-0.015l0.1749 0c0.079,0 0.1442,0.0128 0.1956,0.0385 0.0514,0.0257 0.0893,0.0658 0.1138,0.1204 0.0245,0.0545 0.0367,0.1257 0.0367,0.2135 0,0.0777 -0.0091,0.1426 -0.0273,0.1946 -0.0182,0.052 -0.0432,0.0937 -0.0752,0.1251 -0.032,0.0313 -0.0686,0.0542 -0.11,0.0686 -0.0414,0.0144 -0.0853,0.0216 -0.1316,0.0216l-0.1674 0zm-0.0526 0.5341l0 -1.2863c0,-0.01 0.0022,-0.0176 0.0066,-0.0226 0.0044,-0.005 0.0128,-0.0075 0.0254,-0.0075l0.0903 0c0.015,0 0.0238,0.005 0.0263,0.015 0.0025,0.01 0.0037,0.015 0.0037,0.015l0 1.2563c0,0.01 -0.0022,0.0169 -0.0066,0.0207 -0.0044,0.0037 -0.0169,0.0063 -0.0376,0.0075 -0.0207,0.0013 -0.0567,0.0019 -0.1081,0.0019zm0.1486 -0.6752l0.0865 0c0.0351,0 0.0643,-0.0094 0.0875,-0.0282 0.0232,-0.0188 0.0411,-0.0492 0.0536,-0.0912 0.0126,-0.042 0.0188,-0.0981 0.0188,-0.1683 0,-0.0439 -0.0044,-0.0824 -0.0132,-0.1156 -0.0088,-0.0332 -0.0241,-0.0589 -0.0461,-0.0771 -0.0219,-0.0182 -0.0517,-0.0273 -0.0893,-0.0273l-0.0978 0 0 0.5077z"/>
  <path id="1" class="fil2" d="M1.8977 8.2931l0 -0.8745c0.0364,-0.0263 0.0765,-0.047 0.1204,-0.0621 0.0439,-0.015 0.089,-0.0226 0.1354,-0.0226 0.0489,0 0.083,0.0066 0.1025,0.0198 0.0194,0.0132 0.0292,0.0329 0.0292,0.0592 0,0.01 -0.0013,0.0235 -0.0038,0.0404 -0.0025,0.0169 -0.0069,0.0335 -0.0132,0.0498 -0.0138,-0.0075 -0.0282,-0.0132 -0.0432,-0.0169 -0.015,-0.0038 -0.0307,-0.0056 -0.047,-0.0056 -0.0213,0 -0.0429,0.0035 -0.0649,0.0103 -0.0219,0.0069 -0.0417,0.0172 -0.0593,0.031l-0.0019 0.741c0,0.01 -0.0022,0.0169 -0.0066,0.0207 -0.0044,0.0037 -0.0172,0.0063 -0.0385,0.0075 -0.0213,0.0013 -0.0577,0.0019 -0.1091,0.0019z"/>
  <path id="2" class="fil2" d="M2.616 8.3119c-0.0476,0 -0.09,-0.006 -0.1269,-0.0179 -0.037,-0.0119 -0.068,-0.0348 -0.0931,-0.0686 -0.0251,-0.0339 -0.0439,-0.083 -0.0564,-0.1476 -0.0126,-0.0646 -0.0188,-0.1495 -0.0188,-0.2548 0,-0.1718 0.0276,-0.2962 0.0828,-0.3733 0.0552,-0.0771 0.1316,-0.1156 0.2294,-0.1156 0.0665,0 0.1213,0.0138 0.1645,0.0414 0.0433,0.0276 0.0756,0.0765 0.0969,0.1467 0.0213,0.0702 0.032,0.1686 0.032,0.2952 0,0.1755 -0.0263,0.3018 -0.079,0.3789 -0.0527,0.0771 -0.1298,0.1157 -0.2313,0.1157zm0.0038 -0.1298c0.0276,0 0.0517,-0.0097 0.0724,-0.0291 0.0207,-0.0194 0.0373,-0.0555 0.0499,-0.1081 0.0125,-0.0526 0.0188,-0.1279 0.0188,-0.2257 0,-0.1003 -0.005,-0.1758 -0.015,-0.2266 -0.01,-0.0508 -0.0244,-0.0849 -0.0432,-0.1025 -0.0188,-0.0176 -0.0439,-0.0263 -0.0752,-0.0263 -0.0276,0 -0.052,0.0097 -0.0733,0.0292 -0.0213,0.0194 -0.0379,0.0555 -0.0499,0.1081 -0.0119,0.0527 -0.0179,0.1279 -0.0179,0.2257 0,0.0765 0.0031,0.1386 0.0094,0.1862 0.0063,0.0476 0.0147,0.0837 0.0254,0.1081 0.0107,0.0245 0.0248,0.0408 0.0423,0.0489 0.0176,0.0082 0.0363,0.0122 0.0564,0.0122z"/>
  <path id="3" class="fil2" d="M3.105 8.2931l0 -0.8105 -0.1298 0c0,-0.0414 0.0006,-0.0708 0.0019,-0.0884 0.0013,-0.0175 0.0047,-0.0288 0.0104,-0.0338 0.0056,-0.005 0.0147,-0.0075 0.0273,-0.0075l0.0903 0 0 -0.1147c0,-0.0727 0.0097,-0.131 0.0291,-0.1749 0.0194,-0.0439 0.0448,-0.0774 0.0762,-0.1006 0.0313,-0.0232 0.0655,-0.0389 0.1025,-0.047 0.037,-0.0082 0.073,-0.0122 0.1081,-0.0122 0.0577,0 0.1012,0.0069 0.1307,0.0207 0.0295,0.0138 0.0442,0.0326 0.0442,0.0564 0,0.0126 -0.0016,0.0263 -0.0047,0.0414 -0.0031,0.015 -0.0072,0.0295 -0.0122,0.0432 -0.0226,-0.01 -0.0451,-0.0163 -0.0677,-0.0188 -0.0226,-0.0025 -0.0445,-0.0038 -0.0658,-0.0038 -0.0251,0 -0.0486,0.0019 -0.0705,0.0056 -0.0219,0.0037 -0.042,0.0122 -0.0602,0.0254 -0.0182,0.0131 -0.0323,0.0316 -0.0423,0.0555 -0.01,0.0238 -0.015,0.0564 -0.015,0.0978l0 0.126 0.1692 0c0,0.0401 -0.0006,0.0693 -0.0019,0.0875 -0.0013,0.0182 -0.0041,0.0298 -0.0085,0.0348 -0.0044,0.005 -0.0116,0.0075 -0.0216,0.0075l-0.1373 0 0 0.7805c0,0.0013 -0.0016,0.0066 -0.0047,0.016 -0.0031,0.0094 -0.0116,0.0141 -0.0254,0.0141l-0.1222 0z"/>
  <path id="4" class="fil2" d="M3.7576 8.3119c-0.0426,0 -0.0824,-0.006 -0.1194,-0.0179 -0.037,-0.0119 -0.069,-0.0335 -0.0959,-0.0649 -0.027,-0.0313 -0.0476,-0.0758 -0.0621,-0.1335 -0.0144,-0.0577 -0.0216,-0.1323 -0.0216,-0.2238 0,-0.1179 0.0094,-0.2125 0.0282,-0.284 0.0188,-0.0715 0.0439,-0.1254 0.0752,-0.1617 0.0313,-0.0364 0.0671,-0.0608 0.1072,-0.0734 0.0401,-0.0125 0.0809,-0.0188 0.1223,-0.0188 0.079,0 0.1385,0.0251 0.1786,0.0752 0.0401,0.0501 0.0602,0.126 0.0602,0.2275 0,0.0414 -0.0016,0.084 -0.0047,0.1279 -0.0031,0.0439 -0.0091,0.0828 -0.0179,0.1166 -0.0426,0.0088 -0.0903,0.015 -0.1429,0.0188 -0.0526,0.0037 -0.1028,0.0066 -0.1504,0.0085 -0.0476,0.0019 -0.0868,0.0028 -0.1175,0.0028 -0.0307,0 -0.0461,0 -0.0461,0l0.0019 -0.1241c0,0 0.0119,0.0003 0.0357,0.0009 0.0238,0.0006 0.053,0.0006 0.0874,0 0.0345,-0.0006 0.0696,-0.0025 0.1053,-0.0056 0.0357,-0.0031 0.0661,-0.0085 0.0912,-0.016 0.0038,-0.0176 0.0063,-0.0364 0.0075,-0.0564 0.0013,-0.0201 0.0019,-0.0389 0.0019,-0.0564 -0.0013,-0.0677 -0.0091,-0.1157 -0.0235,-0.1439 -0.0144,-0.0282 -0.0423,-0.0423 -0.0837,-0.0423 -0.0213,0 -0.0417,0.0059 -0.0611,0.0179 -0.0195,0.0119 -0.0367,0.0326 -0.0517,0.0621 -0.015,0.0295 -0.0266,0.0699 -0.0348,0.1213 -0.0081,0.0514 -0.0122,0.1172 -0.0122,0.1975 0,0.0589 0.0035,0.1078 0.0104,0.1467 0.0069,0.0389 0.0176,0.0689 0.032,0.0903 0.0144,0.0213 0.0326,0.0367 0.0545,0.0461 0.0219,0.0094 0.0486,0.0141 0.0799,0.0141 0.0376,0 0.0749,-0.005 0.1119,-0.015 0.037,-0.01 0.0705,-0.0244 0.1006,-0.0432 0.0063,0.015 0.0104,0.0323 0.0122,0.0517 0.0019,0.0195 0.0028,0.0367 0.0028,0.0517 0,0.0188 -0.0119,0.0363 -0.0357,0.0526 -0.0238,0.0163 -0.0555,0.0289 -0.095,0.0376 -0.0395,0.0088 -0.0831,0.0132 -0.1307,0.0132z"/>
  <path id="5" class="fil2" d="M4.365 8.3119c-0.0665,0 -0.1213,-0.0078 -0.1646,-0.0235 -0.0432,-0.0157 -0.0649,-0.0398 -0.0649,-0.0724 0,-0.0113 0.0019,-0.0248 0.0056,-0.0404 0.0037,-0.0157 0.0107,-0.0317 0.0207,-0.048 0.0276,0.0163 0.0567,0.0282 0.0874,0.0357 0.0307,0.0075 0.0643,0.0113 0.1006,0.0113 0.0476,0 0.0849,-0.0097 0.1119,-0.0291 0.027,-0.0194 0.0404,-0.0486 0.0404,-0.0875 0,-0.0251 -0.0054,-0.0495 -0.016,-0.0733 -0.0107,-0.0238 -0.0304,-0.0483 -0.0592,-0.0734l-0.1824 -0.1561c-0.0426,-0.0351 -0.0712,-0.0693 -0.0856,-0.1025 -0.0144,-0.0332 -0.0216,-0.0655 -0.0216,-0.0968 0,-0.0439 0.011,-0.0825 0.0329,-0.1157 0.0219,-0.0332 0.0558,-0.0592 0.1016,-0.078 0.0457,-0.0188 0.1031,-0.0282 0.1721,-0.0282 0.0652,0 0.1144,0.0063 0.1476,0.0188 0.0332,0.0126 0.0564,0.0267 0.0696,0.0423 0.0132,0.0157 0.0198,0.0304 0.0198,0.0442 0,0.0263 -0.0113,0.052 -0.0339,0.0771 -0.0276,-0.0176 -0.0564,-0.0301 -0.0865,-0.0376 -0.0301,-0.0075 -0.0627,-0.0113 -0.0978,-0.0113 -0.0451,0 -0.0812,0.0078 -0.1081,0.0235 -0.027,0.0157 -0.0404,0.0379 -0.0404,0.0668 0,0.0163 0.0047,0.0332 0.0141,0.0508 0.0094,0.0176 0.0298,0.0395 0.0611,0.0658l0.1749 0.1411c0.0414,0.0389 0.0702,0.0758 0.0865,0.111 0.0163,0.0351 0.0244,0.0765 0.0244,0.1241 0,0.0828 -0.0276,0.147 -0.0828,0.1928 -0.0552,0.0458 -0.131,0.0686 -0.2275,0.0686z"/>
  <path id="6" class="fil2" d="M4.7355 8.6617c-0.0702,0 -0.121,-0.0091 -0.1523,-0.0273 -0.0313,-0.0182 -0.047,-0.0423 -0.047,-0.0724 0,-0.0138 0.0016,-0.0276 0.0047,-0.0413 0.0031,-0.0138 0.0085,-0.0263 0.016,-0.0376 0.0213,0.0113 0.0451,0.0204 0.0715,0.0273 0.0263,0.0069 0.0558,0.0104 0.0884,0.0104 0.0326,0 0.0567,-0.0063 0.0724,-0.0188 0.0157,-0.0126 0.0263,-0.0323 0.032,-0.0593 0.0056,-0.027 0.0085,-0.0624 0.0085,-0.1062l0 -0.914c0,-0.0238 0.0041,-0.0404 0.0122,-0.0498 0.0082,-0.0094 0.0232,-0.015 0.0451,-0.0169 0.0219,-0.0019 0.0536,-0.0028 0.095,-0.0028l0 1.008c0,0.0552 -0.0066,0.1053 -0.0198,0.1504 -0.0131,0.0451 -0.0373,0.0815 -0.0724,0.1091 -0.0351,0.0276 -0.0865,0.0414 -0.1542,0.0414zm0.1617 -1.4387c-0.0238,-0.0013 -0.0426,-0.0104 -0.0564,-0.0273 -0.0138,-0.0169 -0.0207,-0.0473 -0.0207,-0.0912 0.0013,-0.0339 0.0088,-0.0611 0.0226,-0.0818 0.0138,-0.0207 0.0358,-0.031 0.0658,-0.031 0.0288,0 0.0489,0.0081 0.0602,0.0244 0.0113,0.0163 0.0163,0.0445 0.0151,0.0846 0,0.0376 -0.0072,0.0674 -0.0217,0.0893 -0.0144,0.0219 -0.036,0.0329 -0.0649,0.0329z"/>
  <path id="7" class="fil2" d="M5.42 8.3119c-0.0476,0 -0.09,-0.006 -0.1269,-0.0179 -0.037,-0.0119 -0.068,-0.0348 -0.0931,-0.0686 -0.0251,-0.0339 -0.0439,-0.083 -0.0564,-0.1476 -0.0126,-0.0646 -0.0188,-0.1495 -0.0188,-0.2548 0,-0.1718 0.0276,-0.2962 0.0828,-0.3733 0.0552,-0.0771 0.1316,-0.1156 0.2294,-0.1156 0.0665,0 0.1213,0.0138 0.1645,0.0414 0.0433,0.0276 0.0756,0.0765 0.0969,0.1467 0.0213,0.0702 0.032,0.1686 0.032,0.2952 0,0.1755 -0.0263,0.3018 -0.079,0.3789 -0.0527,0.0771 -0.1298,0.1157 -0.2313,0.1157zm0.0038 -0.1298c0.0276,0 0.0517,-0.0097 0.0724,-0.0291 0.0207,-0.0194 0.0373,-0.0555 0.0499,-0.1081 0.0125,-0.0526 0.0188,-0.1279 0.0188,-0.2257 0,-0.1003 -0.005,-0.1758 -0.015,-0.2266 -0.01,-0.0508 -0.0244,-0.0849 -0.0432,-0.1025 -0.0188,-0.0176 -0.0439,-0.0263 -0.0752,-0.0263 -0.0276,0 -0.052,0.0097 -0.0733,0.0292 -0.0213,0.0194 -0.0379,0.0555 -0.0499,0.1081 -0.0119,0.0527 -0.0179,0.1279 -0.0179,0.2257 0,0.0765 0.0031,0.1386 0.0094,0.1862 0.0063,0.0476 0.0147,0.0837 0.0254,0.1081 0.0107,0.0245 0.0248,0.0408 0.0423,0.0489 0.0176,0.0082 0.0363,0.0122 0.0564,0.0122z"/>
  <path id="8" class="fil2" d="M5.8657 8.2931l0 -0.8952c0.0251,-0.0113 0.0545,-0.0216 0.0884,-0.031 0.0339,-0.0094 0.0689,-0.0173 0.1053,-0.0235 0.0363,-0.0063 0.0715,-0.0094 0.1053,-0.0094 0.0652,0 0.1172,0.0085 0.1561,0.0254 0.0389,0.0169 0.0665,0.0436 0.0828,0.0799 0.0163,0.0363 0.0245,0.0852 0.0245,0.1467l0 0.677c0,0.01 -0.0025,0.0169 -0.0075,0.0207 -0.005,0.0037 -0.0182,0.0063 -0.0395,0.0075 -0.0213,0.0013 -0.0583,0.0019 -0.111,0.0019l0 -0.662c0,-0.0589 -0.0069,-0.1009 -0.0207,-0.126 -0.0138,-0.0251 -0.0439,-0.0376 -0.0903,-0.0376 -0.0213,0 -0.0451,0.0025 -0.0715,0.0075 -0.0263,0.005 -0.0495,0.0138 -0.0696,0.0263l0 0.7616c0,0.01 -0.0022,0.0169 -0.0066,0.0207 -0.0044,0.0037 -0.0172,0.0063 -0.0386,0.0075 -0.0213,0.0013 -0.057,0.0019 -0.1072,0.0019z"/>
  <path id="9" class="fil2" d="M6.823 8.3119c-0.0351,0 -0.0686,-0.0028 -0.1006,-0.0085 -0.032,-0.0056 -0.0605,-0.0182 -0.0856,-0.0376 -0.0251,-0.0194 -0.0451,-0.048 -0.0602,-0.0856 -0.015,-0.0376 -0.0226,-0.089 -0.0226,-0.1542 0,-0.0652 0.0069,-0.1182 0.0207,-0.1589 0.0138,-0.0407 0.0326,-0.0721 0.0564,-0.094 0.0238,-0.0219 0.0508,-0.0367 0.0809,-0.0442 0.0301,-0.0075 0.0608,-0.0113 0.0922,-0.0113 0.02,0 0.0435,0.0019 0.0705,0.0056 0.027,0.0038 0.0498,0.01 0.0686,0.0188 0,0 0,-0.0088 0,-0.0263 0,-0.0175 0,-0.0379 0,-0.0611 0,-0.0232 0,-0.0436 0,-0.0611 0,-0.0301 -0.0047,-0.053 -0.0141,-0.0686 -0.0094,-0.0157 -0.0226,-0.027 -0.0395,-0.0339 -0.0169,-0.0069 -0.0379,-0.0103 -0.063,-0.0103 -0.0489,0 -0.0959,0.0044 -0.141,0.0132 -0.0451,0.0088 -0.0815,0.0188 -0.1091,0.0301 -0.0088,-0.015 -0.0144,-0.0304 -0.0169,-0.0461 -0.0025,-0.0157 -0.0038,-0.0298 -0.0038,-0.0423 0,-0.0088 0.0016,-0.0182 0.0047,-0.0282 0.0031,-0.01 0.0085,-0.0176 0.016,-0.0226 0.0163,-0.01 0.0502,-0.021 0.1016,-0.0329 0.0514,-0.0119 0.1128,-0.0179 0.1843,-0.0179 0.0815,0 0.1407,0.0169 0.1777,0.0508 0.037,0.0339 0.0555,0.0934 0.0555,0.1787l0 0.0997c0,0.0715 -0.0003,0.1432 -0.0009,0.2153 -0.0006,0.0721 -0.0016,0.1398 -0.0028,0.2031 -0.0013,0.0633 -0.0038,0.1188 -0.0075,0.1664 -0.0251,0.015 -0.0596,0.0294 -0.1034,0.0432 -0.0439,0.0138 -0.0965,0.0207 -0.158,0.0207zm0.015 -0.1279c0.0201,0 0.0395,-0.0031 0.0583,-0.0094 0.0188,-0.0063 0.032,-0.0138 0.0395,-0.0226 0.0025,-0.0201 0.0041,-0.0476 0.0047,-0.0828 0.0006,-0.0351 0.0013,-0.0721 0.0019,-0.111 0.0006,-0.0389 0.0009,-0.0752 0.0009,-0.1091 -0.0125,-0.0063 -0.0272,-0.0107 -0.0442,-0.0132 -0.0169,-0.0025 -0.0317,-0.0038 -0.0442,-0.0038 -0.0201,0 -0.0386,0.0022 -0.0555,0.0066 -0.0169,0.0044 -0.0317,0.0132 -0.0442,0.0263 -0.0126,0.0132 -0.0226,0.0323 -0.0301,0.0574 -0.0075,0.0251 -0.0113,0.0583 -0.0113,0.0997 0,0.0339 0.0028,0.0614 0.0085,0.0828 0.0056,0.0213 0.0141,0.0379 0.0254,0.0498 0.0113,0.0119 0.0244,0.0198 0.0395,0.0235 0.015,0.0037 0.032,0.0056 0.0508,0.0056z"/>
  <path id="10" class="fil2" d="M7.2517 8.2931l0 -1.3127c0,-0.0238 0.0041,-0.0404 0.0122,-0.0498 0.0082,-0.0094 0.0235,-0.015 0.0461,-0.0169 0.0226,-0.0019 0.0539,-0.0028 0.094,-0.0028l0 1.3522c0,0.01 -0.0022,0.0169 -0.0066,0.0207 -0.0044,0.0037 -0.0169,0.0063 -0.0376,0.0075 -0.0207,0.0013 -0.0567,0.0019 -0.1081,0.0019z"/>
  <path id="11" class="fil2" d="M7.5771 8.2931l0 -0.8707c0,-0.0238 0.0044,-0.0404 0.0132,-0.0498 0.0088,-0.0094 0.0245,-0.015 0.047,-0.0169 0.0226,-0.0019 0.0545,-0.0028 0.0959,-0.0028l0 0.9102c0,0.01 -0.0022,0.0169 -0.0066,0.0207 -0.0044,0.0037 -0.0172,0.0063 -0.0386,0.0075 -0.0213,0.0013 -0.0583,0.0019 -0.111,0.0019zm0.0734 -1.0701c-0.0238,-0.0013 -0.0426,-0.0104 -0.0564,-0.0273 -0.0138,-0.0169 -0.0207,-0.0473 -0.0207,-0.0912 0.0013,-0.0339 0.0088,-0.0611 0.0226,-0.0818 0.0138,-0.0207 0.0357,-0.031 0.0658,-0.031 0.0289,0 0.0489,0.0081 0.0602,0.0244 0.0113,0.0163 0.0163,0.0445 0.015,0.0846 0,0.0376 -0.0072,0.0674 -0.0216,0.0893 -0.0144,0.0219 -0.036,0.0329 -0.0649,0.0329z"/>
  <path id="12" class="fil2" d="M7.8836 8.2931c0,0 -0.0041,-0.006 -0.0122,-0.0179 -0.0081,-0.0119 -0.0122,-0.031 -0.0122,-0.0574 0,-0.0113 0.0009,-0.0213 0.0028,-0.0301 0.0019,-0.0088 0.0047,-0.0182 0.0085,-0.0282l0.3667 -0.677 -0.1937 0c-0.0351,0 -0.0674,0.0006 -0.0969,0.0019 -0.0295,0.0013 -0.0542,0.0031 -0.0743,0.0056 -0.0025,-0.015 -0.0041,-0.0288 -0.0047,-0.0414 -0.0006,-0.0125 -0.0009,-0.0226 -0.0009,-0.0301 0,-0.0226 0.0037,-0.0392 0.0113,-0.0498 0.0075,-0.0107 0.0201,-0.016 0.0376,-0.016l0.4777 0c0,0 0.0028,0.0038 0.0085,0.0113 0.0056,0.0075 0.0085,0.0194 0.0085,0.0357 0,0.0075 -0.0012,0.0172 -0.0037,0.0291 -0.0025,0.0119 -0.0075,0.0273 -0.015,0.0461l-0.3536 0.677 0.1655 0c0.0526,0 0.094,-0.0022 0.1241,-0.0066 0.0301,-0.0044 0.0545,-0.0091 0.0733,-0.0141 0.0025,0.0088 0.0041,0.02 0.0047,0.0339 0.0006,0.0138 0.0009,0.0251 0.0009,0.0339 -0.0013,0.0313 -0.0053,0.0548 -0.0122,0.0705 -0.0069,0.0157 -0.0229,0.0235 -0.048,0.0235l-0.4626 0z"/>
  <path id="13" class="fil2" d="M8.5362 8.2931l0 -0.897c0.0414,-0.0188 0.0862,-0.0339 0.1345,-0.0451 0.0483,-0.0113 0.0981,-0.0169 0.1495,-0.0169 0.074,0 0.1279,0.0163 0.1617,0.0489 0.0338,0.0326 0.0555,0.079 0.0648,0.1392 0.0094,0.0602 0.0141,0.1323 0.0141,0.2163l0 0.5247c0,0.01 -0.0025,0.0169 -0.0075,0.0207 -0.005,0.0037 -0.0182,0.0063 -0.0395,0.0075 -0.0213,0.0013 -0.0564,0.0019 -0.1053,0.0019l0 -0.6996c0,-0.0313 -0.0016,-0.0561 -0.0047,-0.0743 -0.0031,-0.0182 -0.0113,-0.0313 -0.0245,-0.0395 -0.0131,-0.0082 -0.0341,-0.0122 -0.063,-0.0122 -0.0213,0 -0.0423,0.0025 -0.063,0.0075 -0.0207,0.005 -0.0423,0.0132 -0.0649,0.0244l0 0.7635c0,0.01 -0.0025,0.0169 -0.0075,0.0207 -0.005,0.0037 -0.0179,0.0063 -0.0385,0.0075 -0.0207,0.0013 -0.0561,0.0019 -0.1063,0.0019zm0.3724 0l0 -0.8199c0.0113,-0.0276 0.0335,-0.0517 0.0667,-0.0724 0.0332,-0.0207 0.0721,-0.037 0.1166,-0.0489 0.0445,-0.0119 0.0874,-0.0179 0.1288,-0.0179 0.0627,0 0.1091,0.0103 0.1392,0.031 0.0301,0.0207 0.0495,0.0508 0.0583,0.0903 0.0088,0.0395 0.0131,0.0875 0.0131,0.1439l0 0.6639c0,0.01 -0.0025,0.0169 -0.0075,0.0207 -0.005,0.0037 -0.0182,0.0063 -0.0395,0.0075 -0.0213,0.0013 -0.0564,0.0019 -0.1053,0.0019l0 -0.6958c0,-0.0451 -0.006,-0.0777 -0.0179,-0.0978 -0.0119,-0.02 -0.0367,-0.0301 -0.0743,-0.0301 -0.02,0 -0.0407,0.0025 -0.062,0.0075 -0.0213,0.005 -0.0426,0.0144 -0.064,0.0282l0 0.7579c0,0.01 -0.0019,0.0169 -0.0056,0.0207 -0.0038,0.0037 -0.0163,0.0063 -0.0376,0.0075 -0.0213,0.0013 -0.0576,0.0019 -0.109,0.0019z"/>
 </g>
</svg>
