<?xml version="1.0" encoding="UTF-8"?>
<!DOCTYPE svg PUBLIC "-//W3C//DTD SVG 1.1//EN" "http://www.w3.org/Graphics/SVG/1.1/DTD/svg11.dtd">
<!-- Creator: CorelDRAW 2018 (64-Bit) -->
<svg xmlns="http://www.w3.org/2000/svg" xml:space="preserve" width="39.7901mm" height="38.8821mm" version="1.1" style="shape-rendering:geometricPrecision; text-rendering:geometricPrecision; image-rendering:optimizeQuality; fill-rule:evenodd; clip-rule:evenodd"
viewBox="0 0 23.8667 23.3221"
 xmlns:xlink="http://www.w3.org/1999/xlink">
 <defs>
  <style type="text/css">
   <![CDATA[
    .fil2 {fill:#FEFEFE}
    .fil0 {fill:#F2BF5E}
    .fil1 {fill:#FEFEFE;fill-rule:nonzero}
   ]]>
  </style>
 </defs>
 <g id="Warstwa_x0020_1">
  <metadata id="CorelCorpID_0Corel-Layer"/>
  <rect class="fil0" x="-0" y="-0" width="23.8667" height="23.3221"/>
  <path class="fil1" d="M7.9245 18.536c-0.0506,0 -0.0899,-0.0218 -0.118,-0.0653 -0.0281,-0.0435 -0.0506,-0.1018 -0.0675,-0.1749l-0.2149 -0.9484c-0.0113,-0.0674 -0.0246,-0.1531 -0.0401,-0.2571 -0.0154,-0.1039 -0.0302,-0.2122 -0.0443,-0.3246 -0.014,-0.1124 -0.0267,-0.2177 -0.0379,-0.3161 -0.0112,-0.0984 -0.0204,-0.1784 -0.0274,-0.2402 -0.007,-0.0618 -0.0105,-0.0927 -0.0105,-0.0927l-0.1012 -0.3246c-0.0084,-0.0365 -0.007,-0.0618 0.0042,-0.0759 0.0113,-0.014 0.0338,-0.0211 0.0675,-0.0211l0.2276 0 0.295 1.4878c0.0253,0.1264 0.0456,0.2444 0.0611,0.354 0.0155,0.1096 0.0281,0.2129 0.0379,0.3098 0.0098,0.0969 0.019,0.1904 0.0274,0.2803l0.0253 0c0.0084,-0.1321 0.0218,-0.2824 0.04,-0.451 0.0183,-0.1685 0.0401,-0.333 0.0653,-0.4931l0.2698 -1.53c0.0056,-0.0337 0.014,-0.059 0.0253,-0.0759 0.0113,-0.0169 0.0323,-0.0253 0.0632,-0.0253l0.2909 0 -0.5521 2.963c-0.0393,0.0028 -0.0724,0.0063 -0.0991,0.0105 -0.0267,0.0043 -0.0534,0.0071 -0.0801,0.0085 -0.0267,0.0014 -0.0625,0.0021 -0.1075,0.0021zm-1.197 -0.0042c-0.0422,0 -0.078,-0.0246 -0.1075,-0.0738 -0.0295,-0.0492 -0.0513,-0.1117 -0.0653,-0.1876 -0.0225,-0.118 -0.0513,-0.2627 -0.0864,-0.4341 -0.0351,-0.1714 -0.0716,-0.3555 -0.1096,-0.5521 -0.0379,-0.1967 -0.0744,-0.3913 -0.1096,-0.5837 -0.0351,-0.1925 -0.0681,-0.3681 -0.099,-0.5269 -0.0309,-0.1587 -0.0548,-0.2852 -0.0717,-0.3793 -0.0169,-0.0941 -0.0253,-0.1412 -0.0253,-0.1412 -0.0085,-0.0365 -0.0085,-0.0625 0,-0.078 0.0084,-0.0154 0.0323,-0.0232 0.0716,-0.0232l0.2824 0 0.3035 1.6311c0.0225,0.1264 0.0414,0.2451 0.0569,0.3562 0.0155,0.111 0.0289,0.2149 0.0401,0.3118 0.0112,0.097 0.0211,0.1904 0.0295,0.2803l0.0253 0c0.0084,-0.1685 0.0218,-0.3309 0.04,-0.4868 0.0183,-0.156 0.0414,-0.3098 0.0696,-0.4615l0.2571 -1.3867c0.0056,-0.0365 0.0133,-0.0625 0.0232,-0.078 0.0098,-0.0154 0.0316,-0.0232 0.0654,-0.0232l0.1475 0c0.045,0 0.0695,0.0084 0.0738,0.0253 0.0042,0.0169 0.0035,0.0408 -0.0021,0.0717l-0.1138 0.3288c0,0 -0.0035,0.0309 -0.0105,0.0927 -0.007,0.0618 -0.0162,0.1412 -0.0274,0.2381 -0.0112,0.0969 -0.0232,0.2009 -0.0358,0.3119 -0.0127,0.111 -0.026,0.2185 -0.0401,0.3225 -0.014,0.1039 -0.0267,0.1897 -0.0379,0.2571l-0.2318 1.1717c-0.0506,0.0056 -0.0977,0.0098 -0.1412,0.0127 -0.0435,0.0028 -0.1005,0.0042 -0.1707,0.0042z"/>
  <path id="1" class="fil1" d="M9.4208 18.5444c-0.1489,0 -0.2718,-0.0176 -0.3688,-0.0527 -0.0969,-0.0351 -0.1454,-0.0892 -0.1454,-0.1623 0,-0.0253 0.0042,-0.0555 0.0127,-0.0906 0.0084,-0.0351 0.0239,-0.071 0.0464,-0.1075 0.0618,0.0365 0.1272,0.0632 0.196,0.0801 0.0689,0.0169 0.144,0.0253 0.2255,0.0253 0.1068,0 0.1904,-0.0218 0.2508,-0.0653 0.0604,-0.0435 0.0906,-0.1089 0.0906,-0.196 0,-0.0562 -0.012,-0.111 -0.0359,-0.1643 -0.0239,-0.0534 -0.0681,-0.1082 -0.1327,-0.1644l-0.4088 -0.3498c-0.0956,-0.0787 -0.1595,-0.1552 -0.1918,-0.2297 -0.0323,-0.0744 -0.0485,-0.1468 -0.0485,-0.217 0,-0.0984 0.0246,-0.1848 0.0738,-0.2592 0.0492,-0.0744 0.1251,-0.1327 0.2276,-0.1749 0.1025,-0.0422 0.2311,-0.0632 0.3856,-0.0632 0.1461,0 0.2564,0.014 0.3309,0.0421 0.0745,0.0281 0.1264,0.0597 0.156,0.0949 0.0295,0.0351 0.0443,0.0681 0.0443,0.099 0,0.059 -0.0253,0.1166 -0.0759,0.1728 -0.0618,-0.0393 -0.1264,-0.0674 -0.1939,-0.0843 -0.0674,-0.0169 -0.1405,-0.0253 -0.2192,-0.0253 -0.1012,0 -0.1819,0.0176 -0.2424,0.0527 -0.0604,0.0351 -0.0906,0.085 -0.0906,0.1497 0,0.0365 0.0105,0.0744 0.0316,0.1138 0.0211,0.0393 0.0667,0.0885 0.1369,0.1475l0.392 0.3162c0.0927,0.0871 0.1574,0.17 0.1939,0.2487 0.0365,0.0786 0.0548,0.1714 0.0548,0.2781 0,0.1855 -0.0618,0.3295 -0.1855,0.432 -0.1236,0.1026 -0.2936,0.1539 -0.51,0.1539z"/>
  <path id="2" class="fil1" d="M10.5926 19.3326c-0.059,0 -0.1012,-0.0106 -0.1264,-0.0316 -0.0253,-0.0211 -0.038,-0.0597 -0.038,-0.1159l0 -2.6638c0.0843,-0.0534 0.1799,-0.0948 0.2867,-0.1243 0.1068,-0.0295 0.2164,-0.0443 0.3288,-0.0443 0.1405,0 0.262,0.0246 0.3646,0.0738 0.1026,0.0491 0.1819,0.1377 0.2381,0.2655 0.0562,0.1279 0.0843,0.307 0.0843,0.5374 0,0.2248 -0.0126,0.4151 -0.0379,0.5711 -0.0253,0.156 -0.059,0.2831 -0.1011,0.3815 -0.0422,0.0983 -0.0906,0.1735 -0.1455,0.2255 -0.0548,0.052 -0.111,0.0878 -0.1685,0.1075 -0.0576,0.0197 -0.1159,0.0295 -0.175,0.0295 -0.0758,0 -0.1426,-0.0113 -0.2002,-0.0337 -0.0576,-0.0225 -0.1019,-0.0506 -0.1328,-0.0843l0 0.8767c-0.0281,0.0085 -0.0576,0.0155 -0.0885,0.0211 -0.031,0.0056 -0.0605,0.0085 -0.0885,0.0085zm0.4046 -1.0959c0.0337,0 0.0702,-0.0098 0.1096,-0.0295 0.0393,-0.0197 0.078,-0.0618 0.1159,-0.1264 0.038,-0.0646 0.0689,-0.1616 0.0927,-0.2908 0.0239,-0.1293 0.0358,-0.3035 0.0358,-0.5227 0,-0.1686 -0.0119,-0.2971 -0.0358,-0.3856 -0.0239,-0.0885 -0.0597,-0.1489 -0.1075,-0.1813 -0.0477,-0.0323 -0.1081,-0.0485 -0.1812,-0.0485 -0.0956,0 -0.1813,0.0267 -0.2571,0.0801l0 1.3656c0.0309,0.0506 0.066,0.0864 0.1054,0.1075 0.0393,0.0211 0.0801,0.0316 0.1222,0.0316z"/>
  <path id="3" class="fil1" d="M12.5693 18.5444c-0.0786,0 -0.1539,-0.0064 -0.2255,-0.019 -0.0717,-0.0126 -0.1356,-0.0407 -0.1918,-0.0843 -0.0562,-0.0435 -0.1012,-0.1075 -0.1349,-0.1918 -0.0337,-0.0843 -0.0506,-0.1995 -0.0506,-0.3456 0,-0.1461 0.0154,-0.2648 0.0464,-0.3562 0.0309,-0.0913 0.0731,-0.1616 0.1264,-0.2107 0.0534,-0.0492 0.1138,-0.0822 0.1812,-0.0991 0.0675,-0.0169 0.1363,-0.0253 0.2066,-0.0253 0.0449,0 0.0976,0.0042 0.1581,0.0126 0.0604,0.0085 0.1117,0.0225 0.1538,0.0422 0,0 0,-0.0197 0,-0.059 0,-0.0393 0,-0.085 0,-0.1369 0,-0.052 0,-0.0977 0,-0.137 0,-0.0674 -0.0105,-0.1187 -0.0316,-0.1539 -0.0211,-0.0351 -0.0506,-0.0604 -0.0885,-0.0759 -0.038,-0.0154 -0.085,-0.0232 -0.1412,-0.0232 -0.1096,0 -0.215,0.0098 -0.3161,0.0295 -0.1012,0.0197 -0.1826,0.0421 -0.2445,0.0674 -0.0197,-0.0337 -0.0323,-0.0681 -0.0379,-0.1033 -0.0056,-0.0351 -0.0085,-0.0667 -0.0085,-0.0948 0,-0.0197 0.0035,-0.0407 0.0106,-0.0632 0.007,-0.0224 0.019,-0.0393 0.0358,-0.0506 0.0365,-0.0225 0.1124,-0.0471 0.2276,-0.0738 0.1152,-0.0267 0.2529,-0.04 0.413,-0.04 0.1826,0 0.3154,0.0379 0.3983,0.1138 0.0829,0.0759 0.1243,0.2093 0.1243,0.4004l0 0.2234c0,0.1602 -0.0007,0.321 -0.0021,0.4826 -0.0014,0.1615 -0.0035,0.3133 -0.0063,0.4552 -0.0028,0.1419 -0.0085,0.2662 -0.0169,0.373 -0.0562,0.0337 -0.1335,0.066 -0.2318,0.0969 -0.0984,0.0309 -0.2164,0.0464 -0.3541,0.0464zm0.0337 -0.2867c0.045,0 0.0885,-0.007 0.1307,-0.0211 0.0421,-0.014 0.0716,-0.0309 0.0885,-0.0506 0.0056,-0.045 0.0092,-0.1068 0.0106,-0.1855 0.0014,-0.0787 0.0028,-0.1616 0.0042,-0.2487 0.0014,-0.0871 0.0021,-0.1686 0.0021,-0.2444 -0.0281,-0.0141 -0.0611,-0.0239 -0.099,-0.0295 -0.0379,-0.0056 -0.071,-0.0085 -0.099,-0.0085 -0.045,0 -0.0864,0.0049 -0.1243,0.0148 -0.038,0.0098 -0.071,0.0295 -0.099,0.059 -0.0281,0.0295 -0.0506,0.0723 -0.0675,0.1285 -0.0169,0.0562 -0.0253,0.1306 -0.0253,0.2234 0,0.0759 0.0063,0.1377 0.019,0.1855 0.0127,0.0477 0.0316,0.085 0.0569,0.1117 0.0253,0.0267 0.0548,0.0443 0.0885,0.0527 0.0337,0.0084 0.0717,0.0126 0.1138,0.0126z"/>
  <path id="4" class="fil1" d="M13.5261 18.5023l0 -1.9599c0.0815,-0.059 0.1714,-0.1054 0.2697,-0.1391 0.0984,-0.0337 0.1995,-0.0506 0.3035,-0.0506 0.1096,0 0.1861,0.0148 0.2297,0.0443 0.0435,0.0295 0.0654,0.0737 0.0654,0.1327 0,0.0225 -0.0028,0.0527 -0.0085,0.0906 -0.0056,0.0379 -0.0155,0.0752 -0.0295,0.1117 -0.0309,-0.0169 -0.0632,-0.0295 -0.0969,-0.0379 -0.0337,-0.0085 -0.0689,-0.0127 -0.1054,-0.0127 -0.0477,0 -0.0962,0.0077 -0.1454,0.0232 -0.0492,0.0155 -0.0935,0.0386 -0.1328,0.0696l-0.0042 1.6606c0,0.0224 -0.0049,0.0379 -0.0148,0.0464 -0.0098,0.0084 -0.0386,0.014 -0.0864,0.0169 -0.0478,0.0028 -0.1293,0.0042 -0.2445,0.0042z"/>
  <path id="5" class="fil1" d="M15.1193 18.5444c-0.1039,0 -0.1946,-0.0134 -0.2718,-0.0401 -0.0773,-0.0267 -0.1426,-0.0773 -0.196,-0.1518 -0.0534,-0.0744 -0.0935,-0.1805 -0.1201,-0.3182 -0.0267,-0.1377 -0.0401,-0.3175 -0.0401,-0.5395 0,-0.2529 0.0225,-0.4552 0.0675,-0.607 0.0449,-0.1518 0.1047,-0.2663 0.1791,-0.3435 0.0744,-0.0773 0.156,-0.1285 0.2445,-0.1539 0.0885,-0.0253 0.1763,-0.0379 0.2634,-0.0379 0.0984,0 0.1813,0.0176 0.2487,0.0527 0.0675,0.0351 0.1012,0.0808 0.1012,0.137 0,0.0225 -0.0021,0.0506 -0.0064,0.0843 -0.0042,0.0337 -0.0133,0.0689 -0.0274,0.1054 -0.0337,-0.0197 -0.0773,-0.0372 -0.1307,-0.0527 -0.0534,-0.0155 -0.1096,-0.0232 -0.1685,-0.0232 -0.0478,0 -0.0963,0.0091 -0.1455,0.0274 -0.0492,0.0182 -0.0948,0.0555 -0.1369,0.1117 -0.0422,0.0562 -0.0752,0.1405 -0.0991,0.2529 -0.0239,0.1124 -0.0358,0.2613 -0.0358,0.4468 0,0.1489 0.0077,0.2718 0.0232,0.3688 0.0155,0.0969 0.0387,0.1728 0.0696,0.2276 0.0309,0.0548 0.0702,0.0934 0.118,0.1159 0.0478,0.0225 0.1026,0.0337 0.1644,0.0337 0.0674,0 0.1314,-0.0105 0.1918,-0.0316 0.0604,-0.0211 0.1089,-0.0428 0.1454,-0.0653 0.0113,0.0365 0.019,0.0696 0.0232,0.099 0.0042,0.0295 0.0063,0.0584 0.0063,0.0864 0,0.059 -0.0435,0.1096 -0.1306,0.1518 -0.0871,0.0421 -0.1995,0.0632 -0.3372,0.0632z"/>
  <path id="6" class="fil1" d="M15.8695 18.5023l0 -1.9515c0,-0.0534 0.0098,-0.0906 0.0295,-0.1117 0.0197,-0.0211 0.0548,-0.0337 0.1054,-0.0379 0.0506,-0.0042 0.1222,-0.0064 0.215,-0.0064l0 2.04c0,0.0224 -0.0049,0.0379 -0.0148,0.0464 -0.0098,0.0084 -0.0386,0.014 -0.0864,0.0169 -0.0477,0.0028 -0.1306,0.0042 -0.2487,0.0042zm0.1644 -2.3982c-0.0534,-0.0028 -0.0956,-0.0232 -0.1264,-0.0611 -0.031,-0.0379 -0.0464,-0.106 -0.0464,-0.2044 0.0028,-0.0759 0.0197,-0.137 0.0506,-0.1834 0.0309,-0.0464 0.0801,-0.0695 0.1475,-0.0695 0.0647,0 0.1096,0.0182 0.1349,0.0548 0.0253,0.0365 0.0365,0.0997 0.0337,0.1897 0,0.0843 -0.0161,0.151 -0.0485,0.2002 -0.0323,0.0492 -0.0808,0.0738 -0.1454,0.0738z"/>
  <path id="7" class="fil1" d="M17.2099 18.5444c-0.0956,0 -0.1847,-0.0134 -0.2676,-0.0401 -0.0829,-0.0267 -0.1546,-0.0752 -0.215,-0.1454 -0.0604,-0.0702 -0.1068,-0.17 -0.1391,-0.2992 -0.0323,-0.1293 -0.0485,-0.2964 -0.0485,-0.5016 0,-0.2642 0.0211,-0.4763 0.0632,-0.6365 0.0422,-0.1602 0.0984,-0.281 0.1686,-0.3625 0.0702,-0.0815 0.1503,-0.1363 0.2402,-0.1644 0.0899,-0.0281 0.1813,-0.0421 0.274,-0.0421 0.177,0 0.3105,0.0562 0.4004,0.1686 0.0899,0.1123 0.1349,0.2824 0.1349,0.51 0,0.0927 -0.0035,0.1883 -0.0106,0.2866 -0.007,0.0984 -0.0203,0.1855 -0.04,0.2613 -0.0956,0.0197 -0.2023,0.0337 -0.3204,0.0422 -0.118,0.0084 -0.2304,0.0148 -0.3372,0.019 -0.1068,0.0042 -0.1946,0.0063 -0.2634,0.0063 -0.0689,0 -0.1033,0 -0.1033,0l0.0043 -0.2781c0,0 0.0267,0.0007 0.0801,0.0021 0.0534,0.0014 0.1187,0.0014 0.196,0 0.0773,-0.0014 0.156,-0.0056 0.236,-0.0127 0.0801,-0.007 0.1482,-0.019 0.2044,-0.0358 0.0085,-0.0393 0.014,-0.0815 0.0169,-0.1264 0.0028,-0.045 0.0043,-0.0872 0.0043,-0.1264 -0.0028,-0.1518 -0.0204,-0.2592 -0.0527,-0.3225 -0.0323,-0.0632 -0.0948,-0.0948 -0.1876,-0.0948 -0.0477,0 -0.0934,0.0133 -0.1369,0.04 -0.0436,0.0268 -0.0822,0.0731 -0.1159,0.1391 -0.0337,0.066 -0.0597,0.1567 -0.078,0.2719 -0.0182,0.1152 -0.0274,0.2627 -0.0274,0.4425 0,0.1321 0.0077,0.2417 0.0232,0.3288 0.0155,0.0871 0.0393,0.1545 0.0716,0.2023 0.0323,0.0477 0.0731,0.0822 0.1222,0.1032 0.0492,0.0211 0.1089,0.0316 0.1792,0.0316 0.0843,0 0.1679,-0.0112 0.2508,-0.0337 0.0829,-0.0224 0.1581,-0.0548 0.2255,-0.0969 0.014,0.0337 0.0232,0.0723 0.0274,0.1159 0.0042,0.0436 0.0063,0.0822 0.0063,0.1159 0,0.0422 -0.0267,0.0815 -0.0801,0.118 -0.0534,0.0365 -0.1243,0.0647 -0.2128,0.0843 -0.0885,0.0197 -0.1862,0.0295 -0.293,0.0295z"/>
  <g id="_2826245445808">
   <path class="fil2" d="M7.4045 11.5185l0.3912 2.487 8.182 0.0041c0.1344,0 0.103,-0.0269 0.125,-0.1155 0.0068,-0.0275 0.0161,-0.1144 0.0217,-0.1516 0.1007,-0.669 0.2604,-1.4638 0.3378,-2.0966 -0.1096,-0.0966 -0.5371,-0.3045 -0.7022,-0.398l-2.1422 -1.1826c-0.211,0.1881 -0.3043,0.3724 -0.657,0.5703 -0.3626,0.2035 -0.6209,0.2927 -1.0909,0.2927 -0.6793,0 -1.4042,-0.5205 -1.5955,-0.8648 -0.2015,0.0425 -2.5669,1.3577 -2.8698,1.455z"/>
   <path class="fil2" d="M9.5897 6.9805c0,0.9647 0.1309,1.7833 0.5674,2.5564 0.5817,1.0303 1.7191,1.5455 2.723,0.9016 0.1877,-0.1204 0.5152,-0.3847 0.5939,-0.5663 -0.2259,0.0169 -0.2435,-0.0246 -0.4222,0.0663 -0.6137,0.3121 -1.4103,-0.2115 -1.0202,-0.7567 0.0949,-0.1326 0.3197,-0.2568 0.5692,-0.27 0.3875,-0.0204 0.4184,0.1739 0.7255,0.1739 0.1248,0 0.5272,-0.0428 0.6114,-0.0958 0.2447,-0.1541 0.3429,-1.6365 0.3429,-1.951 0,-3.1457 -4.6909,-3.1817 -4.6909,-0.0583z"/>
   <path class="fil2" d="M7.8416 7.4759c0,0.7625 0.6609,1.3168 1.4349,1.3184l0 -2.5712c0,-0.4558 0.523,-1.1515 0.8729,-1.4575 1.1365,-0.994 3.2218,-0.8076 4.1176,0.6618 0.1164,0.1908 0.3414,0.6312 0.3414,0.883l0 2.2435c0,0.6082 -0.8493,0.7428 -1.4277,0.7428 -0.1803,0 -0.1798,-0.1366 -0.4364,-0.1686 -0.7308,-0.0911 -0.8262,0.6933 -0.088,0.6933 0.3196,0 0.2924,-0.152 0.5515,-0.1547 0.6703,-0.0068 1.4471,-0.1401 1.7086,-0.7762 0.0639,-0.1555 0.0102,-0.1174 0.1744,-0.1736 0.2148,-0.0736 0.3247,-0.1485 0.4702,-0.2588 0.6807,-0.5162 0.6433,-1.6496 -0.1921,-2.1224 -0.6281,-0.3555 -0.2459,0.1609 -0.5867,-0.6651 -1.0211,-2.4752 -4.7303,-2.5362 -5.7398,0.0854 -0.2149,0.5581 0.0239,0.3023 -0.4319,0.5284 -0.3882,0.1927 -0.769,0.5842 -0.769,1.1915z"/>
  </g>
 </g>
</svg>
