<?xml version="1.0" encoding="UTF-8"?>
<!DOCTYPE svg PUBLIC "-//W3C//DTD SVG 1.1//EN" "http://www.w3.org/Graphics/SVG/1.1/DTD/svg11.dtd">
<!-- Creator: CorelDRAW 2018 (64-Bit) -->
<svg xmlns="http://www.w3.org/2000/svg" xml:space="preserve" width="21.9596mm" height="40.3435mm" version="1.1" style="shape-rendering:geometricPrecision; text-rendering:geometricPrecision; image-rendering:optimizeQuality; fill-rule:evenodd; clip-rule:evenodd"
viewBox="0 0 48.9031 89.8433"
 xmlns:xlink="http://www.w3.org/1999/xlink">
 <defs>
  <style type="text/css">
   <![CDATA[
    .fil0 {fill:none}
    .fil1 {fill:#020A38}
    .fil8 {fill:#14D12E}
    .fil5 {fill:#FEFEFE;fill-rule:nonzero}
    .fil4 {fill:url(#id0)}
    .fil2 {fill:url(#id1)}
    .fil3 {fill:url(#id2)}
    .fil6 {fill:url(#id3)}
    .fil7 {fill:url(#id4)}
   ]]>
  </style>
  <linearGradient id="id0" gradientUnits="userSpaceOnUse" x1="24.5923" y1="14.3222" x2="25.8811" y2="23.0769">
   <stop offset="0" style="stop-opacity:1; stop-color:#124D1A"/>
   <stop offset="0.431373" style="stop-opacity:1; stop-color:#138F24"/>
   <stop offset="1" style="stop-opacity:1; stop-color:#14D12E"/>
  </linearGradient>
  <linearGradient id="id1" gradientUnits="userSpaceOnUse" x1="35.3198" y1="9.0622" x2="48.9633" y2="12.4732">
   <stop offset="0" style="stop-opacity:1; stop-color:#124D1A"/>
   <stop offset="1" style="stop-opacity:1; stop-color:#14D12E"/>
  </linearGradient>
  <linearGradient id="id2" gradientUnits="userSpaceOnUse" xlink:href="#id0" x1="44.8728" y1="-1.2504" x2="5.6006" y2="17.1777">
  </linearGradient>
  <linearGradient id="id3" gradientUnits="userSpaceOnUse" xlink:href="#id0" x1="46.9998" y1="76.923" x2="16.5712" y2="88.1825">
  </linearGradient>
  <linearGradient id="id4" gradientUnits="userSpaceOnUse" xlink:href="#id0" x1="37.9376" y1="73.6747" x2="42.7193" y2="82.0089">
  </linearGradient>
 </defs>
 <g id="Warstwa_x0020_1">
  <metadata id="CorelCorpID_0Corel-Layer"/>
  <rect class="fil0" x="1.5702" y="-0" width="47.3012" height="89.8433"/>
  <rect class="fil1" x="1.5702" width="47.3012" height="89.8433"/>
  <polygon class="fil2" points="48.8715,0 48.8715,0 48.8715,21.5354 35.4118,15.9272 "/>
  <polygon class="fil3" points="1.5702,0 48.9031,0 35.4436,15.9272 1.5702,15.9272 "/>
  <polygon class="fil4" points="48.9031,21.5035 1.5702,15.8954 35.4436,15.8954 "/>
  <path class="fil5" d="M11.3791 6.0863c0,0.0488 -0.0243,0.073 -0.073,0.073l-1.6914 0c-0.0194,0 -0.0292,0.0096 -0.0292,0.0292l0 1.8081c0,0.0194 0.0098,0.029 0.0292,0.029l1.0645 0c0.0485,0 0.0728,0.0245 0.0728,0.073l0 0.3136c0,0.0485 -0.0243,0.0728 -0.0728,0.0728l-1.0645 0c-0.0194,0 -0.0292,0.0098 -0.0292,0.0292l0 1.8152c0,0.0196 0.0098,0.0292 0.0292,0.0292l1.6914 0c0.0488,0 0.073,0.0243 0.073,0.073l0 0.3062c0,0.0485 -0.0243,0.0728 -0.073,0.0728l-2.1653 0c-0.0485,0 -0.0728,-0.0243 -0.0728,-0.0728l0 -4.9577c0,-0.0485 0.0243,-0.0728 0.0728,-0.0728l2.1653 0c0.0488,0 0.073,0.0243 0.073,0.0728l0 0.3062z"/>
  <path id="1" class="fil5" d="M13.311 10.8689c-0.3744,0 -0.6743,-0.1142 -0.9004,-0.3427 -0.226,-0.2285 -0.3389,-0.5345 -0.3389,-0.9186l0 -2.7046c0,-0.379 0.1129,-0.6828 0.3389,-0.9113 0.226,-0.2285 0.526,-0.3427 0.9004,-0.3427 0.379,0 0.6817,0.1131 0.9077,0.3389 0.2258,0.226 0.3389,0.5311 0.3389,0.9151l0 0.1238c0,0.0488 -0.0243,0.073 -0.073,0.073l-0.379 0.0218c-0.0485,0 -0.0728,-0.0243 -0.0728,-0.0728l0 -0.1824c0,-0.2283 -0.0657,-0.4131 -0.1969,-0.5541 -0.1312,-0.141 -0.3062,-0.2113 -0.5249,-0.2113 -0.2138,0 -0.3877,0.0704 -0.5213,0.2113 -0.1336,0.141 -0.2004,0.3258 -0.2004,0.5541l0 2.785c0,0.2285 0.0668,0.4131 0.2004,0.5541 0.1336,0.141 0.3075,0.2113 0.5213,0.2113 0.2187,0 0.3937,-0.0704 0.5249,-0.2113 0.1312,-0.141 0.1969,-0.3256 0.1969,-0.5541l0 -0.1824c0,-0.0485 0.0243,-0.0728 0.0728,-0.0728l0.379 0.0218c0.0488,0 0.073,0.0243 0.073,0.073l0 0.1165c0,0.3842 -0.1142,0.6901 -0.3427,0.9186 -0.2285,0.2285 -0.5298,0.3427 -0.9039,0.3427z"/>
  <path id="2" class="fil5" d="M16.577 10.8689c-0.3741,0 -0.6768,-0.1167 -0.9075,-0.3499 -0.2309,-0.2334 -0.3463,-0.542 -0.3463,-0.926l0 -2.6683c0,-0.3839 0.1154,-0.6926 0.3463,-0.9257 0.2307,-0.2334 0.5334,-0.3501 0.9075,-0.3501 0.3793,0 0.6855,0.1167 0.9186,0.3501 0.2334,0.2332 0.3501,0.5418 0.3501,0.9257l0 2.6683c0,0.379 -0.1167,0.6866 -0.3501,0.9222 -0.2332,0.2358 -0.5394,0.3536 -0.9186,0.3536zm0 -0.4521c0.2236,0 0.4046,-0.0742 0.5432,-0.2223 0.1385,-0.1483 0.2078,-0.3392 0.2078,-0.5723l0 -2.7193c0,-0.2381 -0.0693,-0.4314 -0.2078,-0.5797 -0.1385,-0.1481 -0.3196,-0.2223 -0.5432,-0.2223 -0.2187,0 -0.396,0.0742 -0.5322,0.2223 -0.1361,0.1483 -0.204,0.3416 -0.204,0.5797l0 2.7193c0,0.2332 0.0679,0.424 0.204,0.5723 0.1363,0.1481 0.3136,0.2223 0.5322,0.2223z"/>
  <path id="3" class="fil5" d="M20.8127 5.7801c0,-0.0485 0.0245,-0.0728 0.073,-0.0728l0.3646 0c0.0485,0 0.0728,0.0243 0.0728,0.0728l0 4.9577c0,0.0485 -0.0243,0.0728 -0.0728,0.0728l-0.4302 0c-0.0387,0 -0.0655,-0.0194 -0.0802,-0.0583l-1.4217 -3.7691c-0.0047,-0.0145 -0.012,-0.0207 -0.0218,-0.0183 -0.0098,0.0024 -0.0145,0.0109 -0.0145,0.0256l0.0071 3.7473c0,0.0485 -0.0243,0.0728 -0.0728,0.0728l-0.3719 0c-0.0485,0 -0.0728,-0.0243 -0.0728,-0.0728l0 -4.9577c0,-0.0485 0.0243,-0.0728 0.0728,-0.0728l0.4229 0c0.039,0 0.0657,0.0194 0.0802,0.0583l1.429 3.7765c0.0049,0.0145 0.012,0.0207 0.0218,0.0183 0.0098,-0.0024 0.0145,-0.0111 0.0145,-0.0256l0 -3.7547z"/>
  <path id="4" class="fil5" d="M23.4955 10.8689c-0.3741,0 -0.6768,-0.1167 -0.9075,-0.3499 -0.2309,-0.2334 -0.3463,-0.542 -0.3463,-0.926l0 -2.6683c0,-0.3839 0.1154,-0.6926 0.3463,-0.9257 0.2307,-0.2334 0.5334,-0.3501 0.9075,-0.3501 0.3793,0 0.6855,0.1167 0.9186,0.3501 0.2334,0.2332 0.3501,0.5418 0.3501,0.9257l0 2.6683c0,0.379 -0.1167,0.6866 -0.3501,0.9222 -0.2332,0.2358 -0.5394,0.3536 -0.9186,0.3536zm0 -0.4521c0.2236,0 0.4046,-0.0742 0.5432,-0.2223 0.1385,-0.1483 0.2078,-0.3392 0.2078,-0.5723l0 -2.7193c0,-0.2381 -0.0693,-0.4314 -0.2078,-0.5797 -0.1385,-0.1481 -0.3196,-0.2223 -0.5432,-0.2223 -0.2187,0 -0.396,0.0742 -0.5322,0.2223 -0.1361,0.1483 -0.204,0.3416 -0.204,0.5797l0 2.7193c0,0.2332 0.0679,0.424 0.204,0.5723 0.1363,0.1481 0.3136,0.2223 0.5322,0.2223z"/>
  <path id="5" class="fil5" d="M27.9136 5.7582c0.0145,-0.0341 0.0436,-0.051 0.0875,-0.051l0.379 0c0.0485,0 0.0728,0.0243 0.0728,0.0728l0 4.9577c0,0.0485 -0.0243,0.0728 -0.0728,0.0728l-0.3719 0c-0.0485,0 -0.0728,-0.0243 -0.0728,-0.0728l0 -3.9076c0,-0.0147 -0.0036,-0.022 -0.0109,-0.022 -0.0073,0 -0.0158,0.0049 -0.0256,0.0147l-0.7581 1.5747c-0.0147,0.0341 -0.039,0.051 -0.073,0.051 -0.0387,0 -0.0655,-0.0169 -0.0802,-0.051l-0.7581 -1.5673c-0.0098,-0.0098 -0.0183,-0.0147 -0.0256,-0.0147 -0.0073,0 -0.0109,0.0073 -0.0109,0.0218l0 3.9005c0,0.0485 -0.0243,0.0728 -0.0728,0.0728l-0.3719 0c-0.0485,0 -0.0728,-0.0243 -0.0728,-0.0728l0 -4.9577c0,-0.0485 0.0243,-0.0728 0.0728,-0.0728l0.379 0c0.0439,0 0.073,0.0169 0.0875,0.051l0.8311 1.6842c0.0049,0.0096 0.0122,0.0145 0.0218,0.0145 0.0098,0 0.0171,-0.0049 0.022,-0.0145l0.8238 -1.6842z"/>
  <path id="6" class="fil5" d="M29.5611 10.8106c-0.0485,0 -0.0728,-0.0243 -0.0728,-0.0728l0 -4.9577c0,-0.0485 0.0243,-0.0728 0.0728,-0.0728l0.3719 0c0.0485,0 0.0728,0.0243 0.0728,0.0728l0 4.9577c0,0.0485 -0.0243,0.0728 -0.0728,0.0728l-0.3719 0z"/>
  <path id="7" class="fil5" d="M32.1711 10.8689c-0.3744,0 -0.6743,-0.1142 -0.9004,-0.3427 -0.226,-0.2285 -0.3389,-0.5345 -0.3389,-0.9186l0 -2.7046c0,-0.379 0.1129,-0.6828 0.3389,-0.9113 0.226,-0.2285 0.526,-0.3427 0.9004,-0.3427 0.379,0 0.6817,0.1131 0.9077,0.3389 0.2258,0.226 0.3389,0.5311 0.3389,0.9151l0 0.1238c0,0.0488 -0.0243,0.073 -0.073,0.073l-0.379 0.0218c-0.0485,0 -0.0728,-0.0243 -0.0728,-0.0728l0 -0.1824c0,-0.2283 -0.0657,-0.4131 -0.1969,-0.5541 -0.1312,-0.141 -0.3062,-0.2113 -0.5249,-0.2113 -0.2138,0 -0.3877,0.0704 -0.5213,0.2113 -0.1336,0.141 -0.2004,0.3258 -0.2004,0.5541l0 2.785c0,0.2285 0.0668,0.4131 0.2004,0.5541 0.1336,0.141 0.3075,0.2113 0.5213,0.2113 0.2187,0 0.3937,-0.0704 0.5249,-0.2113 0.1312,-0.141 0.1969,-0.3256 0.1969,-0.5541l0 -0.1824c0,-0.0485 0.0243,-0.0728 0.0728,-0.0728l0.379 0.0218c0.0488,0 0.073,0.0243 0.073,0.073l0 0.1165c0,0.3842 -0.1142,0.6901 -0.3427,0.9186 -0.2285,0.2285 -0.5298,0.3427 -0.9039,0.3427z"/>
  <polygon class="fil6" points="48.8715,89.8433 14.6999,89.8433 31.7856,75.2621 48.8715,75.2621 "/>
  <polygon class="fil7" points="48.8715,80.4217 31.7856,75.2621 48.8715,75.2621 "/>
  <path class="fil5" d="M34.2484 83.7417c0.1105,0.3523 0.1657,0.7458 0.1657,1.181 0,0.3661 -0.0379,0.701 -0.1138,1.0048 -0.1935,0.8496 -0.7046,1.2743 -1.5333,1.2743 -0.4351,0 -0.7926,-0.1209 -1.0723,-0.3625 -0.2797,-0.2416 -0.4541,-0.5766 -0.5231,-1.0048 -0.0414,-0.2418 -0.0621,-0.5077 -0.0621,-0.7977 0,-0.069 0.0345,-0.1036 0.1036,-0.1036l0.5285 0c0.069,0 0.1036,0.0345 0.1036,0.1036 0,0.2485 0.0207,0.473 0.0621,0.6734 0.1174,0.5663 0.404,0.8494 0.8598,0.8494 0.214,0 0.3937,-0.0657 0.5387,-0.1969 0.145,-0.1312 0.2485,-0.3211 0.3109,-0.5697 0.0552,-0.2902 0.0828,-0.6008 0.0828,-0.9324 0,-0.4351 -0.0414,-0.7977 -0.1245,-1.0876 -0.069,-0.2211 -0.1726,-0.3886 -0.3107,-0.5024 -0.1381,-0.114 -0.304,-0.171 -0.4973,-0.171 -0.0621,0 -0.1416,0.0207 -0.2383,0.0621 -0.0621,0.0345 -0.1105,0.0312 -0.145,-0.0102l-0.2695 -0.2797c-0.0345,-0.0483 -0.0379,-0.0969 -0.0102,-0.1452l1.3778 -2.165c0.0069,-0.0069 0.0069,-0.0171 0,-0.031 -0.0069,-0.0138 -0.0174,-0.0207 -0.0312,-0.0207l-2.1858 0c-0.069,0 -0.1036,-0.0347 -0.1036,-0.1038l0 -0.4349c0,-0.0693 0.0345,-0.1038 0.1036,-0.1038l3.0249 0c0.069,0 0.1036,0.0345 0.1036,0.1038l0 0.4661c0,0.0345 -0.0138,0.0795 -0.0414,0.1347l-1.2845 2.0096c-0.0069,0.0138 -0.0087,0.0258 -0.0051,0.0363 0.0033,0.0102 0.012,0.0156 0.0258,0.0156 0.2764,0.0276 0.5162,0.1399 0.72,0.3367 0.2038,0.1966 0.3505,0.4541 0.4403,0.7716z"/>
  <path id="1" class="fil5" d="M37.2421 87.2224c-0.5247,0 -0.9478,-0.1708 -1.2689,-0.5126 -0.3211,-0.3421 -0.4817,-0.7892 -0.4817,-1.3417l0 -3.75c0,-0.5525 0.1606,-0.9997 0.4817,-1.3415 0.3211,-0.3418 0.7442,-0.5129 1.2689,-0.5129 0.5318,0 0.96,0.171 1.2847,0.5129 0.3245,0.3418 0.4868,0.789 0.4868,1.3415l0 3.75c0,0.5525 -0.1623,0.9997 -0.4868,1.3417 -0.3247,0.3418 -0.7529,0.5126 -1.2847,0.5126zm0 -0.6423c0.3178,0 0.5699,-0.1071 0.7563,-0.3211 0.1866,-0.214 0.2797,-0.4973 0.2797,-0.8494l0 -3.833c0,-0.3523 -0.0931,-0.6354 -0.2797,-0.8496 -0.1864,-0.214 -0.4385,-0.3211 -0.7563,-0.3211 -0.3038,0 -0.5489,0.1071 -0.7353,0.3211 -0.1866,0.2142 -0.2797,0.4973 -0.2797,0.8496l0 3.833c0,0.3521 0.0931,0.6354 0.2797,0.8494 0.1864,0.214 0.4316,0.3211 0.7353,0.3211z"/>
  <path id="2" class="fil5" d="M41.735 84.5632c0.2089,0 0.3764,0.0704 0.5022,0.2113 0.126,0.1407 0.1891,0.324 0.1891,0.5494l0 1.0741c0,0.232 -0.063,0.4167 -0.1891,0.5543 -0.1258,0.1376 -0.2933,0.2064 -0.5022,0.2064 -0.0929,0 -0.1806,-0.0176 -0.2634,-0.0523 -0.0828,-0.0347 -0.1559,-0.0886 -0.2189,-0.1615 -0.0065,-0.0067 -0.0122,-0.0085 -0.0174,-0.0051 -0.0049,0.0033 -0.0073,0.0082 -0.0073,0.0149l0 1.079c0,0.0332 -0.0167,0.0497 -0.0497,0.0497l-0.2537 0c-0.0332,0 -0.0497,-0.0165 -0.0497,-0.0497l0 -3.381c0,-0.0332 0.0165,-0.0497 0.0497,-0.0497l0.2537 0c0.033,0 0.0497,0.0165 0.0497,0.0497l0 0.1142c0,0.0067 0.0033,0.0109 0.0098,0.0125 0.0067,0.0018 0.0134,-0.0009 0.02,-0.0073 0.0597,-0.0697 0.1316,-0.1218 0.2162,-0.1568 0.0846,-0.0347 0.1715,-0.0521 0.261,-0.0521zm0.3432 0.7857c0,-0.1425 -0.0408,-0.2579 -0.1218,-0.3456 -0.0813,-0.088 -0.1848,-0.1318 -0.3109,-0.1318 -0.1225,0 -0.2229,0.0439 -0.3009,0.1318 -0.0777,0.0877 -0.1167,0.2031 -0.1167,0.3456l0 1.0242c0,0.1425 0.039,0.2577 0.1167,0.3456 0.0779,0.0877 0.1784,0.1316 0.3009,0.1316 0.126,0 0.2296,-0.0439 0.3109,-0.1316 0.0811,-0.088 0.1218,-0.2031 0.1218,-0.3456l0 -1.0242z"/>
  <path id="3" class="fil5" d="M42.9979 87.1189c-0.0332,0 -0.0497,-0.0165 -0.0497,-0.0497l0 -3.3812c0,-0.033 0.0165,-0.0497 0.0497,-0.0497l0.2537 0c0.0332,0 0.0497,0.0167 0.0497,0.0497l0 3.3812c0,0.0332 -0.0165,0.0497 -0.0497,0.0497l-0.2537 0z"/>
  <path id="4" class="fil5" d="M44.773 84.5681c0.2022,0 0.3588,0.0697 0.4699,0.2089 0.1109,0.1392 0.1666,0.3332 0.1666,0.5817l0 1.7105c0,0.0332 -0.0167,0.0497 -0.0499,0.0497l-0.2534 0c-0.0332,0 -0.0499,-0.0165 -0.0499,-0.0497l0 -1.6807c0,-0.1623 -0.0356,-0.2884 -0.1069,-0.3779 -0.0713,-0.0895 -0.1697,-0.1341 -0.2957,-0.1341 -0.1325,0 -0.2363,0.0479 -0.3107,0.1441 -0.0746,0.0962 -0.112,0.2271 -0.112,0.3928l0 1.6557c0,0.0332 -0.0165,0.0497 -0.0497,0.0497l-0.2537 0c-0.0332,0 -0.0497,-0.0165 -0.0497,-0.0497l0 -2.4165c0,-0.0332 0.0165,-0.0497 0.0497,-0.0497l0.2537 0c0.0332,0 0.0497,0.0165 0.0497,0.0497l0 0.159c0,0.0067 0.0033,0.0116 0.01,0.0149 0.0067,0.0033 0.0116,0 0.0149,-0.0098 0.0597,-0.0831 0.135,-0.1452 0.2263,-0.1866 0.0911,-0.0414 0.188,-0.0621 0.2908,-0.0621z"/>
  <path class="fil8" d="M7.1719 28.9458l0 0.0049c0.0281,0.0187 0.0379,0.037 0.0644,0.0572 0.0265,0.0207 0.0416,0.0408 0.0675,0.0604 0.0269,0.0207 0.0416,0.0405 0.0673,0.0604l0.2316 0.2091c0.012,0.0129 0.0198,0.0178 0.0345,0.0294l1.6682 1.5059 0.0058 0c0.098,-0.1091 0.3572,-0.3581 0.4781,-0.4795 0.1621,-0.1623 0.3196,-0.3202 0.4817,-0.4826 0.1292,-0.1292 2.8463,-2.8628 2.8839,-2.8837l0 -0.0069 -0.7442 -0.7447 -0.0069 0c-0.0196,0.0367 -1.2242,1.2313 -1.3513,1.3584l-0.1982 0.1913c-0.2592,0.259 -0.5135,0.5135 -0.7721,0.773 -0.0445,0.0445 -0.7498,0.7596 -0.7801,0.7761l-1.2747 -1.2783 -0.8554 0.8496z"/>
  <path class="fil5" d="M15.3785 29.1638c0.0111,-0.0056 0.0234,-0.0085 0.0363,-0.0085l0.1514 0c0.0187,0 0.0281,0.0094 0.0281,0.0281l0 1.9065c0,0.0187 -0.0094,0.0281 -0.0281,0.0281l-0.143 0c-0.0187,0 -0.0281,-0.0094 -0.0281,-0.0281l0 -1.6989c0,-0.0038 -0.0013,-0.0067 -0.0042,-0.0085 -0.0027,-0.002 -0.006,-0.002 -0.0098,0l-0.2634 0.0869 -0.0085 0.0029c-0.0131,0 -0.0214,-0.0085 -0.0252,-0.0254l-0.014 -0.1036 0 -0.0058c0,-0.0094 0.0065,-0.0187 0.0196,-0.0281l0.2888 -0.1456z"/>
  <path id="1" class="fil5" d="M16.9906 29.6769c0.1178,0 0.2122,0.0396 0.2833,0.1191 0.071,0.0795 0.1064,0.1826 0.1064,0.3098l0 0.6055c0,0.1309 -0.0354,0.2352 -0.1064,0.3127 -0.071,0.0777 -0.1655,0.1165 -0.2833,0.1165 -0.0523,0 -0.1018,-0.0098 -0.1485,-0.0294 -0.0468,-0.0198 -0.088,-0.0501 -0.1234,-0.0913 -0.0038,-0.0036 -0.0071,-0.0047 -0.0098,-0.0027 -0.0029,0.0018 -0.0042,0.0047 -0.0042,0.0085l0 0.6084c0,0.0185 -0.0094,0.0278 -0.0281,0.0278l-0.143 0c-0.0187,0 -0.0281,-0.0094 -0.0281,-0.0278l0 -1.9067c0,-0.0187 0.0094,-0.0281 0.0281,-0.0281l0.143 0c0.0187,0 0.0281,0.0094 0.0281,0.0281l0 0.0646c0,0.0038 0.0018,0.006 0.0056,0.0069 0.0038,0.0011 0.0076,-0.0004 0.0111,-0.004 0.0336,-0.0394 0.0744,-0.0688 0.122,-0.0884 0.0477,-0.0196 0.0967,-0.0294 0.1472,-0.0294zm0.1935 0.4429c0,-0.0804 -0.0229,-0.1454 -0.0688,-0.1949 -0.0457,-0.0494 -0.1042,-0.0744 -0.1753,-0.0744 -0.069,0 -0.1256,0.0249 -0.1695,0.0744 -0.0441,0.0494 -0.0659,0.1145 -0.0659,0.1949l0 0.5775c0,0.0804 0.0218,0.1454 0.0659,0.1951 0.0439,0.0494 0.1004,0.0742 0.1695,0.0742 0.071,0 0.1296,-0.0247 0.1753,-0.0742 0.0459,-0.0497 0.0688,-0.1147 0.0688,-0.1951l0 -0.5775z"/>
  <path id="2" class="fil5" d="M18.1711 29.6854c0.0468,0 0.0869,0.0102 0.1205,0.0307 0.0131,0.0076 0.0178,0.0196 0.014,0.0365l-0.0336 0.1456c-0.0018,0.0169 -0.0131,0.0225 -0.0336,0.0169 -0.0225,-0.0111 -0.0506,-0.0169 -0.0842,-0.0169 -0.0149,0 -0.0261,0.0011 -0.0336,0.0029 -0.0673,0.0038 -0.1225,0.0387 -0.1655,0.1051 -0.043,0.0664 -0.0644,0.1472 -0.0644,0.2425l0 0.8411c0,0.0187 -0.0094,0.0281 -0.0281,0.0281l-0.143 0c-0.0187,0 -0.0281,-0.0094 -0.0281,-0.0281l0 -1.3627c0,-0.0187 0.0094,-0.0281 0.0281,-0.0281l0.143 0c0.0187,0 0.0281,0.0094 0.0281,0.0281l0 0.1684c0,0.0056 0.0013,0.0085 0.0042,0.0085 0.0027,0 0.006,-0.002 0.0098,-0.0058 0.0541,-0.1421 0.143,-0.2129 0.2663,-0.2129z"/>
  <path id="3" class="fil5" d="M18.9084 31.1405c-0.1345,0 -0.2416,-0.0394 -0.3209,-0.1178 -0.0795,-0.0786 -0.1191,-0.1822 -0.1191,-0.3113l0 -0.6026c0,-0.1272 0.0401,-0.2309 0.1205,-0.3113 0.0804,-0.0804 0.1868,-0.1205 0.3196,-0.1205 0.1345,0 0.2421,0.0401 0.3225,0.1205 0.0804,0.0804 0.1205,0.1842 0.1205,0.3113l0 0.6026c0,0.1292 -0.0401,0.2327 -0.1205,0.3113 -0.0804,0.0784 -0.188,0.1178 -0.3225,0.1178zm0 -0.1766c0.071,0 0.1294,-0.0245 0.1753,-0.073 0.0459,-0.0485 0.0686,-0.1131 0.0686,-0.1935l0 -0.5775c0,-0.0804 -0.0227,-0.1454 -0.0686,-0.1949 -0.0459,-0.0494 -0.1042,-0.0744 -0.1753,-0.0744 -0.071,0 -0.1289,0.0249 -0.1737,0.0744 -0.045,0.0494 -0.0675,0.1145 -0.0675,0.1949l0 0.5775c0,0.0804 0.0225,0.145 0.0675,0.1935 0.0448,0.0485 0.1027,0.073 0.1737,0.073z"/>
  <path id="4" class="fil5" d="M20.1618 29.6769c0.1178,0 0.2122,0.0396 0.2833,0.1191 0.071,0.0795 0.1064,0.1826 0.1064,0.3098l0 0.6055c0,0.1309 -0.0354,0.2352 -0.1064,0.3127 -0.071,0.0777 -0.1655,0.1165 -0.2833,0.1165 -0.0523,0 -0.1018,-0.0098 -0.1485,-0.0294 -0.0468,-0.0198 -0.088,-0.0501 -0.1234,-0.0913 -0.0038,-0.0036 -0.0071,-0.0047 -0.0098,-0.0027 -0.0029,0.0018 -0.0042,0.0047 -0.0042,0.0085l0 0.6084c0,0.0185 -0.0094,0.0278 -0.0281,0.0278l-0.143 0c-0.0187,0 -0.0281,-0.0094 -0.0281,-0.0278l0 -1.9067c0,-0.0187 0.0094,-0.0281 0.0281,-0.0281l0.143 0c0.0187,0 0.0281,0.0094 0.0281,0.0281l0 0.0646c0,0.0038 0.0018,0.006 0.0056,0.0069 0.0038,0.0011 0.0076,-0.0004 0.0111,-0.004 0.0336,-0.0394 0.0744,-0.0688 0.122,-0.0884 0.0477,-0.0196 0.0967,-0.0294 0.1472,-0.0294zm0.1935 0.4429c0,-0.0804 -0.0229,-0.1454 -0.0688,-0.1949 -0.0457,-0.0494 -0.1042,-0.0744 -0.1753,-0.0744 -0.069,0 -0.1256,0.0249 -0.1695,0.0744 -0.0441,0.0494 -0.0659,0.1145 -0.0659,0.1949l0 0.5775c0,0.0804 0.0218,0.1454 0.0659,0.1951 0.0439,0.0494 0.1004,0.0742 0.1695,0.0742 0.071,0 0.1296,-0.0247 0.1753,-0.0742 0.0459,-0.0497 0.0688,-0.1147 0.0688,-0.1951l0 -0.5775z"/>
  <path id="5" class="fil5" d="M21.2721 31.1405c-0.1345,0 -0.2416,-0.0394 -0.3209,-0.1178 -0.0795,-0.0786 -0.1191,-0.1822 -0.1191,-0.3113l0 -0.6026c0,-0.1272 0.0401,-0.2309 0.1205,-0.3113 0.0804,-0.0804 0.1868,-0.1205 0.3196,-0.1205 0.1345,0 0.2421,0.0401 0.3225,0.1205 0.0804,0.0804 0.1205,0.1842 0.1205,0.3113l0 0.6026c0,0.1292 -0.0401,0.2327 -0.1205,0.3113 -0.0804,0.0784 -0.188,0.1178 -0.3225,0.1178zm0 -0.1766c0.071,0 0.1294,-0.0245 0.1753,-0.073 0.0459,-0.0485 0.0686,-0.1131 0.0686,-0.1935l0 -0.5775c0,-0.0804 -0.0227,-0.1454 -0.0686,-0.1949 -0.0459,-0.0494 -0.1042,-0.0744 -0.1753,-0.0744 -0.071,0 -0.1289,0.0249 -0.1737,0.0744 -0.045,0.0494 -0.0675,0.1145 -0.0675,0.1949l0 0.5775c0,0.0804 0.0225,0.145 0.0675,0.1935 0.0448,0.0485 0.1027,0.073 0.1737,0.073z"/>
  <path id="6" class="fil5" d="M21.9759 31.118c-0.0187,0 -0.0281,-0.0094 -0.0281,-0.0281l0 -0.1345c0,-0.0131 0.0029,-0.0254 0.0085,-0.0365l0.5748 -1.0233c0.002,-0.0038 0.0024,-0.0071 0.0013,-0.0098 -0.0009,-0.0029 -0.0031,-0.0042 -0.0069,-0.0042l-0.5383 0c-0.0187,0 -0.0281,-0.0094 -0.0281,-0.0281l0 -0.1263c0,-0.0187 0.0094,-0.0281 0.0281,-0.0281l0.7569 0c0.0187,0 0.0281,0.0094 0.0281,0.0281l0 0.1347c0,0.0129 -0.0029,0.0252 -0.0085,0.0363l-0.5803 1.0235c-0.0018,0.0036 -0.0018,0.0069 0,0.0098 0.0018,0.0027 0.0047,0.0042 0.0085,0.0042l0.5579 0c0.0187,0 0.0281,0.0094 0.0281,0.0281l0 0.126c0,0.0187 -0.0094,0.0281 -0.0281,0.0281l-0.7739 0z"/>
  <path id="7" class="fil5" d="M22.9909 31.6787c-0.0038,0 -0.0076,-0.0029 -0.0111,-0.0085 -0.0038,-0.0056 -0.0058,-0.012 -0.0058,-0.0196l0 -0.112c0,-0.0187 0.0094,-0.0281 0.0281,-0.0281 0.0581,-0.002 0.1033,-0.0131 0.1361,-0.0336 0.0327,-0.0207 0.0592,-0.057 0.0799,-0.1093 0.0205,-0.0526 0.041,-0.1327 0.0617,-0.2412 0.0018,-0.0038 0.0022,-0.0071 0.0013,-0.0098 -0.0009,-0.0029 -0.0013,-0.0051 -0.0013,-0.0071l-0.3561 -1.3794 -0.0029 -0.0085c0,-0.0149 0.0094,-0.0225 0.0281,-0.0225l0.1514 0c0.0187,0 0.029,0.0085 0.0307,0.0254l0.2467 1.1019c0.002,0.0056 0.0038,0.0082 0.0058,0.0082 0.0018,0 0.0036,-0.0027 0.0056,-0.0082l0.2439 -1.1019c0.0038,-0.0169 0.014,-0.0254 0.031,-0.0254l0.157 0.0029c0.0094,0 0.0163,0.0029 0.0209,0.0085 0.0047,0.0056 0.0051,0.0131 0.0013,0.0225l-0.3897 1.5083c-0.0336,0.1252 -0.0668,0.2178 -0.0995,0.2775 -0.0327,0.0599 -0.075,0.1015 -0.1274,0.1249 -0.0523,0.0234 -0.1263,0.035 -0.2216,0.035l-0.014 0z"/>
  <path id="8" class="fil5" d="M24.4574 31.1405c-0.1327,0 -0.239,-0.0394 -0.3182,-0.1178 -0.0795,-0.0786 -0.1191,-0.1822 -0.1191,-0.3113l0 -0.6055c0,-0.1272 0.0401,-0.2303 0.1205,-0.3098 0.0804,-0.0795 0.186,-0.1191 0.3169,-0.1191 0.0877,0 0.1652,0.0176 0.2327,0.0532 0.0673,0.0354 0.1191,0.0826 0.1554,0.1416 0.0365,0.0588 0.0548,0.1238 0.0548,0.1949l0 0.0281c0,0.0187 -0.0094,0.0281 -0.0281,0.0281l-0.143 0.0056c-0.0187,0 -0.0281,-0.0094 -0.0281,-0.0281l0 -0.0196c0,-0.0617 -0.0229,-0.1156 -0.0688,-0.1612 -0.0457,-0.0459 -0.1042,-0.0688 -0.175,-0.0688 -0.071,0 -0.1287,0.0249 -0.1726,0.0744 -0.0439,0.0494 -0.0659,0.1145 -0.0659,0.1949l0 0.5775c0,0.0804 0.022,0.1454 0.0659,0.1951 0.0439,0.0494 0.1015,0.0742 0.1726,0.0742 0.0708,0 0.1294,-0.0229 0.175,-0.0686 0.0459,-0.0459 0.0688,-0.0995 0.0688,-0.1612l0 -0.0196c0,-0.0187 0.0094,-0.0281 0.0281,-0.0281l0.143 0.0027c0.0187,0 0.0281,0.0094 0.0281,0.0281l0 0.031c0,0.112 -0.0408,0.2051 -0.122,0.2788 -0.0813,0.0739 -0.1884,0.1109 -0.3209,0.1109z"/>
  <path id="9" class="fil5" d="M25.276 29.4413c-0.045,0 -0.0824,-0.0149 -0.1122,-0.0448 -0.0298,-0.0301 -0.0448,-0.0673 -0.0448,-0.1122 0,-0.0468 0.0149,-0.0846 0.0448,-0.1136 0.0298,-0.029 0.0673,-0.0434 0.1122,-0.0434 0.0465,0 0.0844,0.0145 0.1136,0.0434 0.029,0.029 0.0434,0.0668 0.0434,0.1136 0,0.045 -0.0149,0.0822 -0.045,0.1122 -0.0298,0.0298 -0.0673,0.0448 -0.112,0.0448zm-0.3254 2.2599c-0.0187,0 -0.0281,-0.0094 -0.0281,-0.0281l0 -0.1178c0,-0.0187 0.0094,-0.0281 0.0281,-0.0281 0.1514,-0.0056 0.2271,-0.1009 0.2271,-0.2859l0 -1.5141c0,-0.0187 0.0094,-0.0281 0.0281,-0.0281l0.143 0c0.0187,0 0.0281,0.0094 0.0281,0.0281l0 1.5141c0,0.1532 -0.0298,0.2681 -0.0897,0.345 -0.0599,0.0766 -0.1719,0.1149 -0.3365,0.1149z"/>
  <path id="10" class="fil5" d="M26.1534 29.6769c0.1309,0 0.2356,0.0425 0.314,0.1276 0.0786,0.0848 0.1178,0.1984 0.1178,0.3405l0 0.9449c0,0.0187 -0.0094,0.0281 -0.0281,0.0281l-0.143 0c-0.0187,0 -0.0281,-0.0094 -0.0281,-0.0281l0 -0.0842c0,-0.0036 -0.0013,-0.006 -0.0042,-0.0069 -0.0027,-0.0009 -0.006,0.0004 -0.0098,0.0042 -0.069,0.0915 -0.1728,0.1374 -0.3111,0.1374 -0.1029,0 -0.1922,-0.0294 -0.2679,-0.0884 -0.0755,-0.0588 -0.1134,-0.163 -0.1134,-0.3127 0,-0.1588 0.0457,-0.2753 0.1374,-0.349 0.0915,-0.0739 0.212,-0.1107 0.3617,-0.1107l0.1962 0c0.0073,0 0.0111,-0.0038 0.0111,-0.0114l0 -0.1093c0,-0.0933 -0.0214,-0.1681 -0.0644,-0.2243 -0.043,-0.0561 -0.1011,-0.0842 -0.1739,-0.0842 -0.0561,0 -0.1042,0.0187 -0.1443,0.0561 -0.0403,0.0374 -0.0641,0.0851 -0.0715,0.143 0,0.0187 -0.0094,0.0281 -0.0281,0.0281l-0.157 -0.0027c-0.0094,0 -0.0165,-0.0029 -0.0212,-0.0085 -0.0047,-0.0056 -0.006,-0.0122 -0.0042,-0.0196 0.0094,-0.1105 0.0543,-0.1995 0.1347,-0.2679 0.0804,-0.0681 0.1795,-0.1022 0.2971,-0.1022zm-0.0503 1.2896c0.0766,0 0.143,-0.0247 0.1991,-0.0742 0.0559,-0.0497 0.084,-0.1183 0.084,-0.2062l0 -0.2354c0,-0.0076 -0.0038,-0.0114 -0.0111,-0.0114l-0.1991 0c-0.0897,0 -0.1608,0.0238 -0.2131,0.0715 -0.0523,0.0477 -0.0784,0.1183 -0.0784,0.2118 0,0.0822 0.02,0.1434 0.0601,0.1835 0.0403,0.0403 0.0931,0.0604 0.1586,0.0604z"/>
  <path id="11" class="fil5" d="M27.6815 31.118c-0.0167,0 -0.0272,-0.0085 -0.0307,-0.0252l-0.2973 -1.3627 0 -0.0056c0,-0.0169 0.0085,-0.0254 0.0252,-0.0254l0.1374 0c0.0187,0 0.029,0.0085 0.031,0.0254l0.2018 1.0709c0.002,0.0038 0.0038,0.0056 0.0058,0.0056 0.0018,0 0.0036,-0.0018 0.0056,-0.0056l0.2073 -1.0709c0.0038,-0.0169 0.014,-0.0254 0.031,-0.0254l0.126 0c0.0187,0 0.0292,0.0085 0.031,0.0254l0.2076 1.0709c0.0018,0.0038 0.0036,0.0056 0.0056,0.0056 0.0018,0 0.0038,-0.0018 0.0056,-0.0056l0.2076 -1.0709c0.0036,-0.0169 0.014,-0.0254 0.0307,-0.0254l0.1345 0.0029c0.0207,0 0.029,0.0102 0.0254,0.031l-0.2973 1.3598c-0.0018,0.0167 -0.012,0.0252 -0.0307,0.0252l-0.143 0c-0.0169,0 -0.0272,-0.0085 -0.031,-0.0252l-0.2076 -1.0262c-0.0018,-0.0056 -0.0036,-0.0085 -0.0056,-0.0085 -0.0018,0 -0.0038,0.0029 -0.0056,0.0085l-0.1991 1.0262c-0.0018,0.0167 -0.012,0.0252 -0.0307,0.0252l-0.1403 0z"/>
  <path id="12" class="fil5" d="M29.3638 31.132c-0.1289,0 -0.2323,-0.0332 -0.3098,-0.0995 -0.0777,-0.0664 -0.1165,-0.1548 -0.1165,-0.265l0 -0.0196c0,-0.0187 0.0094,-0.0281 0.0281,-0.0281l0.1345 0c0.0187,0 0.0281,0.0094 0.0281,0.0281l0 0.0169c0,0.0597 0.022,0.1102 0.0659,0.1514 0.0439,0.041 0.1015,0.0615 0.1724,0.0615 0.0675,0 0.1216,-0.0205 0.1628,-0.0615 0.041,-0.0412 0.0617,-0.0935 0.0617,-0.1572 0,-0.0485 -0.0131,-0.0891 -0.0394,-0.1218 -0.0261,-0.0327 -0.0563,-0.0583 -0.0911,-0.0771 -0.0345,-0.0187 -0.0864,-0.043 -0.1557,-0.073 -0.0728,-0.0298 -0.1332,-0.0592 -0.1808,-0.0882 -0.0477,-0.029 -0.0886,-0.0701 -0.1234,-0.1234 -0.0345,-0.0534 -0.0517,-0.1211 -0.0517,-0.2033 0,-0.1196 0.0367,-0.214 0.1107,-0.2833 0.0737,-0.069 0.1733,-0.1036 0.2986,-0.1036 0.1269,0 0.228,0.0354 0.3026,0.1064 0.0748,0.071 0.1122,0.1655 0.1122,0.2833l0 0.0082c0,0.0187 -0.0094,0.0281 -0.0281,0.0281l-0.1289 0c-0.0187,0 -0.0281,-0.0094 -0.0281,-0.0281l0 -0.0167c0,-0.0637 -0.0209,-0.116 -0.063,-0.157 -0.0421,-0.0412 -0.0969,-0.0617 -0.1641,-0.0617 -0.0673,0 -0.1209,0.0209 -0.1612,0.063 -0.0401,0.0421 -0.0601,0.094 -0.0601,0.1557 0,0.0448 0.012,0.0826 0.0363,0.1136 0.0243,0.0307 0.0543,0.0559 0.0897,0.0757 0.0356,0.0196 0.0851,0.0434 0.1485,0.0715 0.0768,0.0336 0.1399,0.0652 0.1893,0.0953 0.0497,0.0298 0.0931,0.0719 0.1305,0.126 0.0374,0.0543 0.0561,0.1216 0.0561,0.202 0,0.1158 -0.0385,0.2084 -0.1151,0.2775 -0.0766,0.0693 -0.1804,0.1038 -0.3111,0.1038z"/>
  <path id="13" class="fil5" d="M30.5414 29.8199c0,0.0187 -0.0094,0.0281 -0.0281,0.0281l-0.2131 0c-0.0073,0 -0.0111,0.0038 -0.0111,0.0111l0 0.858c0,0.086 0.0149,0.1452 0.0448,0.1779 0.0301,0.0327 0.0757,0.0481 0.1374,0.0463l0.0281 0c0.0187,0 0.0281,0.0094 0.0281,0.0281l0 0.1205c0,0.0187 -0.0094,0.0281 -0.0281,0.0281l-0.0701 0c-0.1102,0 -0.1937,-0.0238 -0.2508,-0.0715 -0.057,-0.0477 -0.0855,-0.1378 -0.0855,-0.2706l0 -0.9168c0,-0.0073 -0.0038,-0.0111 -0.0114,-0.0111l-0.1093 0c-0.0187,0 -0.0281,-0.0094 -0.0281,-0.0281l0 -0.0926c0,-0.0187 0.0094,-0.0281 0.0281,-0.0281l0.1093 0c0.0076,0 0.0114,-0.0036 0.0114,-0.0111l0 -0.314c0,-0.0187 0.0094,-0.0281 0.0281,-0.0281l0.1401 0c0.0187,0 0.0281,0.0094 0.0281,0.0281l0 0.314c0,0.0076 0.0038,0.0111 0.0111,0.0111l0.2131 0c0.0187,0 0.0281,0.0094 0.0281,0.0281l0 0.0926z"/>
  <path id="14" class="fil5" d="M31.6377 30.4563c0,0.0187 -0.0094,0.0281 -0.0281,0.0281l-0.6391 0c-0.0076,0 -0.0114,0.0036 -0.0114,0.0111l0 0.2047c0,0.0786 0.022,0.1425 0.0659,0.1922 0.0439,0.0494 0.1015,0.0742 0.1726,0.0742 0.0597,0 0.1107,-0.0183 0.1528,-0.0546 0.0421,-0.0365 0.0695,-0.0837 0.0826,-0.1416 0.0056,-0.0169 0.0158,-0.0252 0.031,-0.0252l0.1401 0.0056c0.0076,0 0.014,0.0027 0.0196,0.0082 0.0056,0.0058 0.0076,0.0131 0.0056,0.0225 -0.0149,0.1029 -0.0546,0.1855 -0.1191,0.2481 -0.0644,0.0628 -0.1499,0.0987 -0.2565,0.108 -0.0056,0 -0.0102,0.002 -0.014,0.0056 -0.071,0.0766 -0.1064,0.1505 -0.1064,0.2216 0,0.0468 0.0111,0.0808 0.0336,0.1022 0.0225,0.0216 0.0506,0.0323 0.0842,0.0323 0.0131,0 0.0223,-0.0009 0.0281,-0.0027l0.0111 -0.0029c0.0111,0 0.0187,0.0076 0.0225,0.0225l0.0085 0.0617 0 0.0085c0,0.0129 -0.0067,0.0205 -0.0198,0.0223 -0.0243,0.0056 -0.0523,0.0085 -0.084,0.0085 -0.0523,0 -0.0987,-0.0122 -0.139,-0.0365 -0.0401,-0.0243 -0.0668,-0.0664 -0.0797,-0.126 -0.0038,-0.0298 -0.0058,-0.0514 -0.0058,-0.0646 0,-0.0915 0.0338,-0.1737 0.1011,-0.2467 0.0073,-0.0073 0.0056,-0.012 -0.0056,-0.014 -0.1011,-0.0205 -0.1811,-0.0677 -0.2398,-0.1414 -0.0588,-0.0739 -0.0882,-0.1659 -0.0882,-0.2764l0 -0.6055c0,-0.1272 0.0396,-0.2303 0.1191,-0.3098 0.0793,-0.0795 0.1855,-0.1191 0.3182,-0.1191 0.1345,0 0.2414,0.0396 0.3209,0.1191 0.0795,0.0795 0.1191,0.1826 0.1191,0.3098l0 0.3505zm-0.44 -0.6057c-0.071,0 -0.1287,0.0249 -0.1726,0.0744 -0.0439,0.0494 -0.0659,0.1145 -0.0659,0.1949l0 0.1877c0,0.0076 0.0038,0.0114 0.0114,0.0114l0.4599 0c0.0073,0 0.0111,-0.0038 0.0111,-0.0114l0 -0.1877c0,-0.0804 -0.0225,-0.1454 -0.0673,-0.1949 -0.045,-0.0494 -0.1038,-0.0744 -0.1766,-0.0744z"/>
  <path id="15" class="fil5" d="M32.4341 29.6769c0.1178,0 0.2122,0.0396 0.2833,0.1191 0.071,0.0795 0.1064,0.1826 0.1064,0.3098l0 0.6055c0,0.1309 -0.0354,0.2352 -0.1064,0.3127 -0.071,0.0777 -0.1655,0.1165 -0.2833,0.1165 -0.0523,0 -0.1018,-0.0098 -0.1485,-0.0294 -0.0468,-0.0198 -0.088,-0.0501 -0.1234,-0.0913 -0.0038,-0.0036 -0.0071,-0.0047 -0.0098,-0.0027 -0.0029,0.0018 -0.0042,0.0047 -0.0042,0.0085l0 0.6084c0,0.0185 -0.0094,0.0278 -0.0281,0.0278l-0.143 0c-0.0187,0 -0.0281,-0.0094 -0.0281,-0.0278l0 -1.9067c0,-0.0187 0.0094,-0.0281 0.0281,-0.0281l0.143 0c0.0187,0 0.0281,0.0094 0.0281,0.0281l0 0.0646c0,0.0038 0.0018,0.006 0.0056,0.0069 0.0038,0.0011 0.0076,-0.0004 0.0111,-0.004 0.0336,-0.0394 0.0744,-0.0688 0.122,-0.0884 0.0477,-0.0196 0.0967,-0.0294 0.1472,-0.0294zm0.1935 0.4429c0,-0.0804 -0.0229,-0.1454 -0.0688,-0.1949 -0.0457,-0.0494 -0.1042,-0.0744 -0.1753,-0.0744 -0.069,0 -0.1256,0.0249 -0.1695,0.0744 -0.0441,0.0494 -0.0659,0.1145 -0.0659,0.1949l0 0.5775c0,0.0804 0.0218,0.1454 0.0659,0.1951 0.0439,0.0494 0.1004,0.0742 0.1695,0.0742 0.071,0 0.1296,-0.0247 0.1753,-0.0742 0.0459,-0.0497 0.0688,-0.1147 0.0688,-0.1951l0 -0.5775z"/>
  <path id="16" class="fil5" d="M33.6398 29.6796c0.114,0 0.2024,0.0394 0.265,0.1178 0.0626,0.0786 0.094,0.188 0.094,0.328l0 0.9645c0,0.0187 -0.0094,0.0281 -0.0281,0.0281l-0.143 0c-0.0187,0 -0.0281,-0.0094 -0.0281,-0.0281l0 -0.9476c0,-0.0918 -0.02,-0.1628 -0.0604,-0.2131 -0.0401,-0.0506 -0.0958,-0.0757 -0.1668,-0.0757 -0.0748,0 -0.1332,0.0272 -0.1753,0.0813 -0.0421,0.0541 -0.063,0.1281 -0.063,0.2216l0 0.9335c0,0.0187 -0.0094,0.0281 -0.0281,0.0281l-0.143 0c-0.0187,0 -0.0281,-0.0094 -0.0281,-0.0281l0 -1.3627c0,-0.0187 0.0094,-0.0281 0.0281,-0.0281l0.143 0c0.0187,0 0.0281,0.0094 0.0281,0.0281l0 0.0897c0,0.0038 0.0018,0.0067 0.0056,0.0085 0.0038,0.0018 0.0065,0 0.0085,-0.0056 0.0336,-0.0468 0.0762,-0.0817 0.1276,-0.1051 0.0512,-0.0234 0.106,-0.0352 0.1639,-0.0352z"/>
  <path id="17" class="fil5" d="M34.7388 29.6769c0.1309,0 0.2356,0.0425 0.314,0.1276 0.0786,0.0848 0.1178,0.1984 0.1178,0.3405l0 0.9449c0,0.0187 -0.0094,0.0281 -0.0281,0.0281l-0.143 0c-0.0187,0 -0.0281,-0.0094 -0.0281,-0.0281l0 -0.0842c0,-0.0036 -0.0013,-0.006 -0.0042,-0.0069 -0.0027,-0.0009 -0.006,0.0004 -0.0098,0.0042 -0.069,0.0915 -0.1728,0.1374 -0.3111,0.1374 -0.1029,0 -0.1922,-0.0294 -0.2679,-0.0884 -0.0755,-0.0588 -0.1134,-0.163 -0.1134,-0.3127 0,-0.1588 0.0457,-0.2753 0.1374,-0.349 0.0915,-0.0739 0.212,-0.1107 0.3617,-0.1107l0.1962 0c0.0073,0 0.0111,-0.0038 0.0111,-0.0114l0 -0.1093c0,-0.0933 -0.0214,-0.1681 -0.0644,-0.2243 -0.043,-0.0561 -0.1011,-0.0842 -0.1739,-0.0842 -0.0561,0 -0.1042,0.0187 -0.1443,0.0561 -0.0403,0.0374 -0.0641,0.0851 -0.0715,0.143 0,0.0187 -0.0094,0.0281 -0.0281,0.0281l-0.157 -0.0027c-0.0094,0 -0.0165,-0.0029 -0.0212,-0.0085 -0.0047,-0.0056 -0.006,-0.0122 -0.0042,-0.0196 0.0094,-0.1105 0.0543,-0.1995 0.1347,-0.2679 0.0804,-0.0681 0.1795,-0.1022 0.2971,-0.1022zm-0.0503 1.2896c0.0766,0 0.143,-0.0247 0.1991,-0.0742 0.0559,-0.0497 0.084,-0.1183 0.084,-0.2062l0 -0.2354c0,-0.0076 -0.0038,-0.0114 -0.0111,-0.0114l-0.1991 0c-0.0897,0 -0.1608,0.0238 -0.2131,0.0715 -0.0523,0.0477 -0.0784,0.1183 -0.0784,0.2118 0,0.0822 0.02,0.1434 0.0601,0.1835 0.0403,0.0403 0.0931,0.0604 0.1586,0.0604z"/>
  <path class="fil8" d="M7.1719 48.5426l0 0.0051c0.0281,0.0187 0.0379,0.037 0.0644,0.0572 0.0265,0.0205 0.0416,0.0405 0.0675,0.0604 0.0269,0.0207 0.0416,0.0405 0.0673,0.0604l0.2316 0.2089c0.012,0.0131 0.0198,0.018 0.0345,0.0294l1.6682 1.5061 0.0058 0c0.098,-0.1091 0.3572,-0.3581 0.4781,-0.4795 0.1621,-0.1626 0.3196,-0.3202 0.4817,-0.4826 0.1292,-0.1294 2.8463,-2.8628 2.8839,-2.8837l0 -0.0071 -0.7442 -0.7445 -0.0069 0c-0.0196,0.0365 -1.2242,1.2313 -1.3513,1.3584l-0.1982 0.1911c-0.2592,0.259 -0.5135,0.5138 -0.7721,0.7732 -0.0445,0.0445 -0.7498,0.7596 -0.7801,0.7759l-1.2747 -1.2781 -0.8554 0.8494z"/>
  <path class="fil5" d="M15.3674 48.4733c0.0111,-0.0056 0.0234,-0.0085 0.0363,-0.0085l0.1514 0c0.0187,0 0.0281,0.0094 0.0281,0.0281l0 1.9065c0,0.0187 -0.0094,0.0281 -0.0281,0.0281l-0.143 0c-0.0187,0 -0.0281,-0.0094 -0.0281,-0.0281l0 -1.6989c0,-0.0038 -0.0013,-0.0067 -0.0042,-0.0085 -0.0027,-0.002 -0.006,-0.002 -0.0098,0l-0.2634 0.0869 -0.0085 0.0029c-0.0131,0 -0.0214,-0.0085 -0.0252,-0.0254l-0.014 -0.1036 0 -0.0058c0,-0.0094 0.0065,-0.0187 0.0196,-0.0281l0.2888 -0.1456z"/>
  <path id="1" class="fil5" d="M16.8926 50.45c-0.1383,0 -0.2505,-0.0459 -0.3365,-0.1374 -0.086,-0.0915 -0.1289,-0.2113 -0.1289,-0.359l0 -0.0644c0,-0.0187 0.0094,-0.0281 0.0281,-0.0281l0.1374 0c0.0187,0 0.0278,0.0094 0.0278,0.0281l0 0.0561c0,0.0989 0.0254,0.1788 0.0757,0.2396 0.0506,0.0608 0.116,0.0911 0.1964,0.0911 0.0784,0 0.1439,-0.029 0.1962,-0.0869 0.0523,-0.0579 0.0786,-0.1345 0.0786,-0.23 0,-0.0635 -0.0127,-0.118 -0.0379,-0.1639 -0.0254,-0.0459 -0.0581,-0.086 -0.0982,-0.1205 -0.0403,-0.0347 -0.1071,-0.0875 -0.2004,-0.1586 -0.0935,-0.069 -0.1672,-0.1285 -0.2216,-0.1779 -0.0541,-0.0497 -0.0987,-0.1089 -0.1332,-0.1782 -0.0345,-0.069 -0.0519,-0.1503 -0.0519,-0.2439 0,-0.1459 0.0421,-0.2612 0.1263,-0.3463 0.084,-0.0851 0.1933,-0.1276 0.328,-0.1276 0.1421,0 0.2557,0.0463 0.3405,0.1387 0.0851,0.0926 0.1276,0.2156 0.1276,0.3688l0 0.0701c0,0.0187 -0.0094,0.0281 -0.0281,0.0281l-0.1401 0c-0.0187,0 -0.0281,-0.0094 -0.0281,-0.0281l0 -0.073c0,-0.0989 -0.0247,-0.1788 -0.0744,-0.2396 -0.0494,-0.0608 -0.1154,-0.0911 -0.1975,-0.0911 -0.0748,0 -0.1365,0.0265 -0.1851,0.0799 -0.0485,0.0532 -0.073,0.1285 -0.073,0.2256 0,0.0579 0.0109,0.1089 0.0323,0.1528 0.0216,0.0441 0.0539,0.0855 0.0969,0.1249 0.043,0.0392 0.1064,0.0906 0.1906,0.1541 0.112,0.0822 0.1957,0.149 0.251,0.2004 0.055,0.0514 0.0975,0.1076 0.1274,0.1684 0.0301,0.0606 0.045,0.1341 0.045,0.22 0,0.1532 -0.0439,0.2761 -0.1318,0.3688 -0.0877,0.0924 -0.2009,0.1387 -0.3392,0.1387z"/>
  <path id="2" class="fil5" d="M18.5468 48.6107c0,0.0187 -0.0094,0.0281 -0.0281,0.0281l-0.6505 0c-0.0076,0 -0.0114,0.0036 -0.0114,0.0111l0 0.6953c0,0.0076 0.0038,0.0114 0.0114,0.0114l0.4093 0c0.0187,0 0.0281,0.0094 0.0281,0.0281l0 0.1205c0,0.0187 -0.0094,0.0281 -0.0281,0.0281l-0.4093 0c-0.0076,0 -0.0114,0.0038 -0.0114,0.0111l0 0.6982c0,0.0076 0.0038,0.0111 0.0114,0.0111l0.6505 0c0.0187,0 0.0281,0.0094 0.0281,0.0281l0 0.1178c0,0.0187 -0.0094,0.0281 -0.0281,0.0281l-0.8329 0c-0.0187,0 -0.0281,-0.0094 -0.0281,-0.0281l0 -1.9065c0,-0.0187 0.0094,-0.0281 0.0281,-0.0281l0.8329 0c0.0187,0 0.0281,0.0094 0.0281,0.0281l0 0.1178z"/>
  <path id="3" class="fil5" d="M19.6458 50.4275c-0.0169,0 -0.0281,-0.0076 -0.0336,-0.0225l-0.2862 -0.8663c-0.0018,-0.0056 -0.0056,-0.0085 -0.0111,-0.0085l-0.2439 0c-0.0076,0 -0.0114,0.0038 -0.0114,0.0114l0 0.8578c0,0.0187 -0.0094,0.0281 -0.0281,0.0281l-0.143 0c-0.0187,0 -0.0281,-0.0094 -0.0281,-0.0281l0 -1.9065c0,-0.0187 0.0094,-0.0281 0.0281,-0.0281l0.4628 0c0.1363,0 0.2467,0.0501 0.3307,0.1501 0.0842,0.1 0.1263,0.2303 0.1263,0.3911 0,0.1214 -0.0263,0.226 -0.0786,0.314 -0.0523,0.0877 -0.1234,0.1494 -0.2129,0.1851 -0.0076,0.0018 -0.0105,0.0065 -0.0085,0.014l0.3055 0.8776 0.0029 0.0111c0,0.0131 -0.0085,0.0196 -0.0254,0.0196l-0.1456 0zm-0.5748 -1.7887c-0.0076,0 -0.0114,0.0036 -0.0114,0.0111l0 0.7093c0,0.0076 0.0038,0.0114 0.0114,0.0114l0.2523 0c0.086,0 0.155,-0.0332 0.2073,-0.0995 0.0526,-0.0664 0.0786,-0.1548 0.0786,-0.265 0,-0.1102 -0.0261,-0.1991 -0.0786,-0.2663 -0.0523,-0.0673 -0.1214,-0.1009 -0.2073,-0.1009l-0.2523 0z"/>
  <path id="4" class="fil5" d="M20.1306 50.4275c-0.0187,0 -0.0281,-0.0094 -0.0281,-0.0281l0 -1.9065c0,-0.0187 0.0094,-0.0281 0.0281,-0.0281l0.143 0c0.0187,0 0.0281,0.0094 0.0281,0.0281l0 1.9065c0,0.0187 -0.0094,0.0281 -0.0281,0.0281l-0.143 0z"/>
  <path id="5" class="fil5" d="M21.4456 50.4275c-0.0167,0 -0.0269,-0.0085 -0.0307,-0.0252l-0.0701 -0.3476c0,-0.0038 -0.0013,-0.0067 -0.0042,-0.0085 -0.0027,-0.002 -0.006,-0.0029 -0.0098,-0.0029l-0.5075 0c-0.0038,0 -0.0069,0.0009 -0.0098,0.0029 -0.0027,0.0018 -0.0042,0.0047 -0.0042,0.0085l-0.0699 0.3476c-0.002,0.0167 -0.0122,0.0252 -0.031,0.0252l-0.143 0c-0.0094,0 -0.0163,-0.0029 -0.0209,-0.0085 -0.0047,-0.0056 -0.0062,-0.0131 -0.0042,-0.0223l0.4204 -1.9067c0.0038,-0.0167 0.014,-0.0252 0.031,-0.0252l0.1681 0c0.0187,0 0.029,0.0085 0.031,0.0252l0.426 1.9067 0 0.0056c0,0.0167 -0.0085,0.0252 -0.0252,0.0252l-0.1459 0zm-0.5999 -0.5579c0,0.0073 0.0029,0.0111 0.0085,0.0111l0.4429 0c0.0056,0 0.0085,-0.0038 0.0085,-0.0111l-0.2243 -1.1019c-0.002,-0.0056 -0.0038,-0.0085 -0.0058,-0.0085 -0.0018,0 -0.0036,0.0029 -0.0056,0.0085l-0.2243 1.1019z"/>
  <path id="6" class="fil5" d="M22.9036 48.462c0.1365,0 0.2467,0.0501 0.3309,0.1501 0.084,0.1 0.126,0.2314 0.126,0.3939 0,0.1608 -0.041,0.2902 -0.1234,0.3884 -0.0822,0.098 -0.1906,0.1472 -0.3251,0.1472l-0.2888 0c-0.0073,0 -0.0111,0.0036 -0.0111,0.0111l0 0.8467c0,0.0187 -0.0094,0.0281 -0.0281,0.0281l-0.143 0c-0.0187,0 -0.0281,-0.0094 -0.0281,-0.0281l0 -1.9094c0,-0.0187 0.0094,-0.0281 0.0281,-0.0281l0.4625 0zm-0.0252 0.9168c0.0842,0 0.1523,-0.0336 0.2047,-0.1009 0.0523,-0.0673 0.0784,-0.157 0.0784,-0.2692 0,-0.112 -0.0261,-0.2022 -0.0784,-0.2704 -0.0523,-0.0684 -0.1205,-0.1024 -0.2047,-0.1024l-0.2552 0c-0.0073,0 -0.0111,0.0038 -0.0111,0.0111l0 0.7206c0,0.0076 0.0038,0.0111 0.0111,0.0111l0.2552 0z"/>
  <path id="7" class="fil5" d="M24.0897 50.45c-0.1439,0 -0.2603,-0.045 -0.3492,-0.1347 -0.0886,-0.0895 -0.1332,-0.2082 -0.1332,-0.3561l0 -1.026c0,-0.1479 0.0445,-0.2666 0.1332,-0.3561 0.0889,-0.0897 0.2053,-0.1347 0.3492,-0.1347 0.1459,0 0.2634,0.045 0.3532,0.1347 0.0897,0.0895 0.1347,0.2082 0.1347,0.3561l0 1.026c0,0.1459 -0.045,0.2641 -0.1347,0.3548 -0.0897,0.0906 -0.2073,0.1361 -0.3532,0.1361zm0 -0.1739c0.086,0 0.1557,-0.0285 0.2089,-0.0855 0.0532,-0.057 0.0799,-0.1303 0.0799,-0.22l0 -1.0458c0,-0.0918 -0.0267,-0.1659 -0.0799,-0.2229 -0.0532,-0.057 -0.1229,-0.0855 -0.2089,-0.0855 -0.0842,0 -0.1523,0.0285 -0.2047,0.0855 -0.0523,0.057 -0.0786,0.1312 -0.0786,0.2229l0 1.0458c0,0.0897 0.0263,0.163 0.0786,0.22 0.0523,0.057 0.1205,0.0855 0.2047,0.0855z"/>
  <path id="8" class="fil5" d="M25.4214 48.462c0.1365,0 0.2467,0.0501 0.3309,0.1501 0.084,0.1 0.126,0.2314 0.126,0.3939 0,0.1608 -0.041,0.2902 -0.1234,0.3884 -0.0822,0.098 -0.1906,0.1472 -0.3251,0.1472l-0.2888 0c-0.0073,0 -0.0111,0.0036 -0.0111,0.0111l0 0.8467c0,0.0187 -0.0094,0.0281 -0.0281,0.0281l-0.143 0c-0.0187,0 -0.0281,-0.0094 -0.0281,-0.0281l0 -1.9094c0,-0.0187 0.0094,-0.0281 0.0281,-0.0281l0.4625 0zm-0.0252 0.9168c0.0842,0 0.1523,-0.0336 0.2047,-0.1009 0.0523,-0.0673 0.0784,-0.157 0.0784,-0.2692 0,-0.112 -0.0261,-0.2022 -0.0784,-0.2704 -0.0523,-0.0684 -0.1205,-0.1024 -0.2047,-0.1024l-0.2552 0c-0.0073,0 -0.0111,0.0038 -0.0111,0.0111l0 0.7206c0,0.0076 0.0038,0.0111 0.0111,0.0111l0.2552 0z"/>
  <path id="9" class="fil5" d="M26.958 50.4275c-0.0169,0 -0.0281,-0.0076 -0.0336,-0.0225l-0.2862 -0.8663c-0.0018,-0.0056 -0.0056,-0.0085 -0.0111,-0.0085l-0.2439 0c-0.0076,0 -0.0114,0.0038 -0.0114,0.0114l0 0.8578c0,0.0187 -0.0094,0.0281 -0.0281,0.0281l-0.143 0c-0.0187,0 -0.0281,-0.0094 -0.0281,-0.0281l0 -1.9065c0,-0.0187 0.0094,-0.0281 0.0281,-0.0281l0.4628 0c0.1363,0 0.2467,0.0501 0.3307,0.1501 0.0842,0.1 0.1263,0.2303 0.1263,0.3911 0,0.1214 -0.0263,0.226 -0.0786,0.314 -0.0523,0.0877 -0.1234,0.1494 -0.2129,0.1851 -0.0076,0.0018 -0.0105,0.0065 -0.0085,0.014l0.3055 0.8776 0.0029 0.0111c0,0.0131 -0.0085,0.0196 -0.0254,0.0196l-0.1456 0zm-0.5748 -1.7887c-0.0076,0 -0.0114,0.0036 -0.0114,0.0111l0 0.7093c0,0.0076 0.0038,0.0114 0.0114,0.0114l0.2523 0c0.086,0 0.155,-0.0332 0.2073,-0.0995 0.0526,-0.0664 0.0786,-0.1548 0.0786,-0.265 0,-0.1102 -0.0261,-0.1991 -0.0786,-0.2663 -0.0523,-0.0673 -0.1214,-0.1009 -0.2073,-0.1009l-0.2523 0z"/>
  <path id="10" class="fil5" d="M28.1915 50.4275c-0.0167,0 -0.0269,-0.0085 -0.0307,-0.0252l-0.0701 -0.3476c0,-0.0038 -0.0013,-0.0067 -0.0042,-0.0085 -0.0027,-0.002 -0.006,-0.0029 -0.0098,-0.0029l-0.5075 0c-0.0038,0 -0.0069,0.0009 -0.0098,0.0029 -0.0027,0.0018 -0.0042,0.0047 -0.0042,0.0085l-0.0699 0.3476c-0.002,0.0167 -0.0122,0.0252 -0.031,0.0252l-0.143 0c-0.0094,0 -0.0163,-0.0029 -0.0209,-0.0085 -0.0047,-0.0056 -0.0062,-0.0131 -0.0042,-0.0223l0.4204 -1.9067c0.0038,-0.0167 0.014,-0.0252 0.031,-0.0252l0.1681 0c0.0187,0 0.029,0.0085 0.031,0.0252l0.426 1.9067 0 0.0056c0,0.0167 -0.0085,0.0252 -0.0252,0.0252l-0.1459 0zm-0.5999 -0.5579c0,0.0073 0.0029,0.0111 0.0085,0.0111l0.4429 0c0.0056,0 0.0085,-0.0038 0.0085,-0.0111l-0.2243 -1.1019c-0.002,-0.0056 -0.0038,-0.0085 -0.0058,-0.0085 -0.0018,0 -0.0036,0.0029 -0.0056,0.0085l-0.2243 1.1019z"/>
  <path id="11" class="fil5" d="M28.7242 50.4275c-0.0167,0 -0.0269,-0.0085 -0.0307,-0.0252l-0.3701 -1.9067 0 -0.0056c0,-0.0167 0.0085,-0.0252 0.0252,-0.0252l0.1488 0c0.0187,0 0.029,0.0085 0.0307,0.0252l0.2637 1.4749c0.0018,0.0036 0.0036,0.0056 0.0056,0.0056 0.0018,0 0.0038,-0.002 0.0056,-0.0056l0.2271 -1.4749c0.0038,-0.0167 0.0131,-0.0252 0.0281,-0.0252l0.1289 0c0.0167,0 0.0261,0.0085 0.0281,0.0252l0.2383 1.4749c0.0018,0.0036 0.0038,0.0056 0.0056,0.0056 0.0018,0 0.0038,-0.002 0.0056,-0.0056l0.2412 -1.4749c0.0038,-0.0167 0.0131,-0.0252 0.0281,-0.0252l0.1485 0c0.0094,0 0.0165,0.0029 0.0212,0.0085 0.0047,0.0056 0.006,0.0131 0.004,0.0223l-0.3476 1.9067c-0.0018,0.0167 -0.012,0.0252 -0.0307,0.0252l-0.1374 0c-0.0149,0 -0.0243,-0.0085 -0.0281,-0.0252l-0.2356 -1.4805c-0.0018,-0.0038 -0.004,-0.0056 -0.0069,-0.0056 -0.0029,0 -0.0042,0.0018 -0.0042,0.0056l-0.2298 1.4805c-0.002,0.0167 -0.0114,0.0252 -0.0281,0.0252l-0.1347 0z"/>
  <path id="12" class="fil5" d="M31.0797 48.6107c0,0.0187 -0.0094,0.0281 -0.0281,0.0281l-0.6505 0c-0.0076,0 -0.0114,0.0036 -0.0114,0.0111l0 0.6953c0,0.0076 0.0038,0.0114 0.0114,0.0114l0.4093 0c0.0187,0 0.0281,0.0094 0.0281,0.0281l0 0.1205c0,0.0187 -0.0094,0.0281 -0.0281,0.0281l-0.4093 0c-0.0076,0 -0.0114,0.0038 -0.0114,0.0111l0 0.6982c0,0.0076 0.0038,0.0111 0.0114,0.0111l0.6505 0c0.0187,0 0.0281,0.0094 0.0281,0.0281l0 0.1178c0,0.0187 -0.0094,0.0281 -0.0281,0.0281l-0.8329 0c-0.0187,0 -0.0281,-0.0094 -0.0281,-0.0281l0 -1.9065c0,-0.0187 0.0094,-0.0281 0.0281,-0.0281l0.8329 0c0.0187,0 0.0281,0.0094 0.0281,0.0281l0 0.1178z"/>
  <path id="13" class="fil5" d="M31.4215 50.4275c-0.0187,0 -0.0281,-0.0094 -0.0281,-0.0281l0 -1.9065c0,-0.0187 0.0094,-0.0281 0.0281,-0.0281l0.143 0c0.0187,0 0.0281,0.0094 0.0281,0.0281l0 0.9084c0,0.0056 0.002,0.0094 0.0058,0.0111 0.0036,0.002 0.0065,0 0.0082,-0.0056l0.5412 -0.9224c0.0094,-0.0131 0.0207,-0.0196 0.0336,-0.0196l0.157 0c0.0114,0 0.0187,0.0033 0.0225,0.0098 0.0038,0.0065 0.0029,0.0145 -0.0029,0.0238l-0.4374 0.7598c-0.0036,0.0076 -0.0047,0.0131 -0.0027,0.0169l0.4821 1.1186 0.0029 0.0111c0,0.0149 -0.0085,0.0225 -0.0252,0.0225l-0.1599 0c-0.0149,0 -0.0252,-0.0076 -0.031,-0.0225l-0.4037 -0.9531c-0.0018,-0.0076 -0.0065,-0.0076 -0.0138,0l-0.1739 0.269c-0.0018,0.002 -0.0029,0.0067 -0.0029,0.014l0 0.6645c0,0.0187 -0.0094,0.0281 -0.0281,0.0281l-0.143 0z"/>
  <path class="fil8" d="M7.1719 58.3412l0 0.0049c0.0281,0.0187 0.0379,0.037 0.0644,0.0572 0.0265,0.0207 0.0416,0.0408 0.0675,0.0604 0.0269,0.0207 0.0416,0.0405 0.0673,0.0604l0.2316 0.2091c0.012,0.0129 0.0198,0.0178 0.0345,0.0294l1.6682 1.5059 0.0058 0c0.098,-0.1091 0.3572,-0.3581 0.4781,-0.4795 0.1621,-0.1623 0.3196,-0.3202 0.4817,-0.4824 0.1292,-0.1294 2.8463,-2.863 2.8839,-2.8839l0 -0.0069 -0.7442 -0.7447 -0.0069 0c-0.0196,0.0367 -1.2242,1.2313 -1.3513,1.3584l-0.1982 0.1913c-0.2592,0.259 -0.5135,0.5135 -0.7721,0.773 -0.0445,0.0445 -0.7498,0.7596 -0.7801,0.7761l-1.2747 -1.2783 -0.8554 0.8496z"/>
  <path class="fil5" d="M15.701 58.7848c0.1178,0 0.2122,0.0396 0.2833,0.1191 0.071,0.0795 0.1064,0.1826 0.1064,0.3098l0 0.6055c0,0.1309 -0.0354,0.2352 -0.1064,0.3127 -0.071,0.0777 -0.1655,0.1165 -0.2833,0.1165 -0.0523,0 -0.1018,-0.0098 -0.1485,-0.0294 -0.0468,-0.0198 -0.088,-0.0501 -0.1234,-0.0913 -0.0038,-0.0036 -0.0071,-0.0047 -0.0098,-0.0027 -0.0029,0.0018 -0.0042,0.0047 -0.0042,0.0085l0 0.6084c0,0.0185 -0.0094,0.0278 -0.0281,0.0278l-0.143 0c-0.0187,0 -0.0281,-0.0094 -0.0281,-0.0278l0 -1.9067c0,-0.0187 0.0094,-0.0281 0.0281,-0.0281l0.143 0c0.0187,0 0.0281,0.0094 0.0281,0.0281l0 0.0646c0,0.0038 0.0018,0.006 0.0056,0.0069 0.0038,0.0011 0.0076,-0.0004 0.0111,-0.004 0.0336,-0.0394 0.0744,-0.0688 0.122,-0.0884 0.0477,-0.0196 0.0967,-0.0294 0.1472,-0.0294zm0.1935 0.4429c0,-0.0804 -0.0229,-0.1454 -0.0688,-0.1949 -0.0457,-0.0494 -0.1042,-0.0744 -0.1753,-0.0744 -0.069,0 -0.1256,0.0249 -0.1695,0.0744 -0.0441,0.0494 -0.0659,0.1145 -0.0659,0.1949l0 0.5775c0,0.0804 0.0218,0.1454 0.0659,0.1951 0.0439,0.0494 0.1004,0.0742 0.1695,0.0742 0.071,0 0.1296,-0.0247 0.1753,-0.0742 0.0459,-0.0497 0.0688,-0.1147 0.0688,-0.1951l0 -0.5775z"/>
  <path id="1" class="fil5" d="M16.4131 60.2259c-0.0187,0 -0.0281,-0.0094 -0.0281,-0.0281l0 -1.9065c0,-0.0187 0.0094,-0.0281 0.0281,-0.0281l0.143 0c0.0187,0 0.0281,0.0094 0.0281,0.0281l0 1.9065c0,0.0187 -0.0094,0.0281 -0.0281,0.0281l-0.143 0z"/>
  <path id="2" class="fil5" d="M17.03 58.5492c-0.0465,0 -0.0844,-0.0149 -0.1136,-0.0448 -0.029,-0.0301 -0.0434,-0.0673 -0.0434,-0.1122 0,-0.0468 0.0145,-0.0846 0.0434,-0.1136 0.0292,-0.029 0.067,-0.0434 0.1136,-0.0434 0.045,0 0.082,0.0145 0.1109,0.0434 0.029,0.029 0.0434,0.0668 0.0434,0.1136 0,0.045 -0.0145,0.0822 -0.0434,0.1122 -0.029,0.0298 -0.0659,0.0448 -0.1109,0.0448zm-0.0699 1.6767c-0.0187,0 -0.0281,-0.0094 -0.0281,-0.0281l0 -1.3627c0,-0.0187 0.0094,-0.0281 0.0281,-0.0281l0.143 0c0.0187,0 0.0281,0.0094 0.0281,0.0281l0 1.3627c0,0.0187 -0.0094,0.0281 -0.0281,0.0281l-0.143 0z"/>
  <path id="3" class="fil5" d="M17.5208 60.2259c-0.0187,0 -0.0281,-0.0094 -0.0281,-0.0281l0 -1.9065c0,-0.0187 0.0094,-0.0281 0.0281,-0.0281l0.143 0c0.0187,0 0.0281,0.0094 0.0281,0.0281l0 1.1271c0,0.0038 0.0018,0.0065 0.0056,0.0085 0.0038,0.0018 0.0065,0.0009 0.0085,-0.0029l0.4204 -0.5999c0.0076,-0.0111 0.0187,-0.0169 0.0336,-0.0169l0.1459 0c0.0111,0 0.0187,0.0033 0.0225,0.01 0.0038,0.0065 0.0018,0.0145 -0.0056,0.0238l-0.2777 0.398c-0.0056,0.0056 -0.0065,0.0114 -0.0027,0.0169l0.3307 0.9393 0.0029 0.0111c0,0.0131 -0.0085,0.0196 -0.0252,0.0196l-0.1488 0c-0.0167,0 -0.0281,-0.0076 -0.0336,-0.0225l-0.2494 -0.7794c-0.002,-0.0111 -0.0076,-0.012 -0.0169,-0.0027l-0.2047 0.2915c-0.0038,0.0038 -0.0056,0.0085 -0.0056,0.014l0 0.471c0,0.0187 -0.0094,0.0281 -0.0281,0.0281l-0.143 0z"/>
  <path id="4" class="fil5" d="M18.7488 58.5492c-0.0465,0 -0.0844,-0.0149 -0.1136,-0.0448 -0.029,-0.0301 -0.0434,-0.0673 -0.0434,-0.1122 0,-0.0468 0.0145,-0.0846 0.0434,-0.1136 0.0292,-0.029 0.067,-0.0434 0.1136,-0.0434 0.045,0 0.082,0.0145 0.1109,0.0434 0.029,0.029 0.0434,0.0668 0.0434,0.1136 0,0.045 -0.0145,0.0822 -0.0434,0.1122 -0.029,0.0298 -0.0659,0.0448 -0.1109,0.0448zm-0.0699 1.6767c-0.0187,0 -0.0281,-0.0094 -0.0281,-0.0281l0 -1.3627c0,-0.0187 0.0094,-0.0281 0.0281,-0.0281l0.143 0c0.0187,0 0.0281,0.0094 0.0281,0.0281l0 1.3627c0,0.0187 -0.0094,0.0281 -0.0281,0.0281l-0.143 0z"/>
  <path id="5" class="fil5" d="M19.8003 60.2259c-0.0187,0 -0.0281,-0.0094 -0.0281,-0.0281l0 -1.9065c0,-0.0187 0.0094,-0.0281 0.0281,-0.0281l0.143 0c0.0187,0 0.0281,0.0094 0.0281,0.0281l0 1.1271c0,0.0038 0.0018,0.0065 0.0056,0.0085 0.0038,0.0018 0.0065,0.0009 0.0085,-0.0029l0.4204 -0.5999c0.0076,-0.0111 0.0187,-0.0169 0.0336,-0.0169l0.1459 0c0.0111,0 0.0187,0.0033 0.0225,0.01 0.0038,0.0065 0.0018,0.0145 -0.0056,0.0238l-0.2777 0.398c-0.0056,0.0056 -0.0065,0.0114 -0.0027,0.0169l0.3307 0.9393 0.0029 0.0111c0,0.0131 -0.0085,0.0196 -0.0252,0.0196l-0.1488 0c-0.0167,0 -0.0281,-0.0076 -0.0336,-0.0225l-0.2494 -0.7794c-0.002,-0.0111 -0.0076,-0.012 -0.0169,-0.0027l-0.2047 0.2915c-0.0038,0.0038 -0.0056,0.0085 -0.0056,0.014l0 0.471c0,0.0187 -0.0094,0.0281 -0.0281,0.0281l-0.143 0z"/>
  <path id="6" class="fil5" d="M21.2891 60.2484c-0.1345,0 -0.2416,-0.0394 -0.3209,-0.1178 -0.0795,-0.0786 -0.1191,-0.1822 -0.1191,-0.3113l0 -0.6026c0,-0.1272 0.0401,-0.2309 0.1205,-0.3113 0.0804,-0.0804 0.1868,-0.1205 0.3196,-0.1205 0.1345,0 0.2421,0.0401 0.3225,0.1205 0.0804,0.0804 0.1205,0.1842 0.1205,0.3113l0 0.6026c0,0.1292 -0.0401,0.2327 -0.1205,0.3113 -0.0804,0.0784 -0.188,0.1178 -0.3225,0.1178zm0 -0.1766c0.071,0 0.1294,-0.0245 0.1753,-0.073 0.0459,-0.0485 0.0686,-0.1131 0.0686,-0.1935l0 -0.5775c0,-0.0804 -0.0227,-0.1454 -0.0686,-0.1949 -0.0459,-0.0494 -0.1042,-0.0744 -0.1753,-0.0744 -0.071,0 -0.1289,0.0249 -0.1737,0.0744 -0.045,0.0494 -0.0675,0.1145 -0.0675,0.1949l0 0.5775c0,0.0804 0.0225,0.145 0.0675,0.1935 0.0448,0.0485 0.1027,0.073 0.1737,0.073z"/>
  <path id="7" class="fil5" d="M22.548 58.7875c0.114,0 0.2024,0.0394 0.265,0.1178 0.0626,0.0786 0.094,0.188 0.094,0.328l0 0.9645c0,0.0187 -0.0094,0.0281 -0.0281,0.0281l-0.143 0c-0.0187,0 -0.0281,-0.0094 -0.0281,-0.0281l0 -0.9476c0,-0.0918 -0.02,-0.1628 -0.0604,-0.2131 -0.0401,-0.0506 -0.0958,-0.0757 -0.1668,-0.0757 -0.0748,0 -0.1332,0.0272 -0.1753,0.0813 -0.0421,0.0541 -0.063,0.1281 -0.063,0.2216l0 0.9335c0,0.0187 -0.0094,0.0281 -0.0281,0.0281l-0.143 0c-0.0187,0 -0.0281,-0.0094 -0.0281,-0.0281l0 -1.3627c0,-0.0187 0.0094,-0.0281 0.0281,-0.0281l0.143 0c0.0187,0 0.0281,0.0094 0.0281,0.0281l0 0.0897c0,0.0038 0.0018,0.0067 0.0056,0.0085 0.0038,0.0018 0.0065,0 0.0085,-0.0056 0.0336,-0.0468 0.0762,-0.0817 0.1276,-0.1051 0.0512,-0.0234 0.106,-0.0352 0.1639,-0.0352zm-0.1655 -0.1652c-0.0111,0 -0.0187,-0.0033 -0.0223,-0.01 -0.0038,-0.0065 -0.0029,-0.0145 0.0027,-0.0238l0.1739 -0.3055c0.0094,-0.0131 0.0205,-0.0196 0.0336,-0.0196l0.1149 0c0.0111,0 0.0183,0.0033 0.0212,0.0098 0.0027,0.0065 0.0013,0.0145 -0.0042,0.0238l-0.1964 0.3055c-0.0094,0.0131 -0.0205,0.0198 -0.0336,0.0198l-0.0897 0z"/>
  <path id="8" class="fil5" d="M23.6387 60.2484c-0.1327,0 -0.239,-0.0394 -0.3182,-0.1178 -0.0795,-0.0786 -0.1191,-0.1822 -0.1191,-0.3113l0 -0.6055c0,-0.1272 0.0401,-0.2303 0.1205,-0.3098 0.0804,-0.0795 0.186,-0.1191 0.3169,-0.1191 0.0877,0 0.1652,0.0176 0.2327,0.0532 0.0673,0.0354 0.1191,0.0826 0.1554,0.1416 0.0365,0.0588 0.0548,0.1238 0.0548,0.1949l0 0.0281c0,0.0187 -0.0094,0.0281 -0.0281,0.0281l-0.143 0.0056c-0.0187,0 -0.0281,-0.0094 -0.0281,-0.0281l0 -0.0196c0,-0.0617 -0.0229,-0.1156 -0.0688,-0.1612 -0.0457,-0.0459 -0.1042,-0.0688 -0.175,-0.0688 -0.071,0 -0.1287,0.0249 -0.1726,0.0744 -0.0439,0.0494 -0.0659,0.1145 -0.0659,0.1949l0 0.5775c0,0.0804 0.022,0.1454 0.0659,0.1951 0.0439,0.0494 0.1015,0.0742 0.1726,0.0742 0.0708,0 0.1294,-0.0229 0.175,-0.0686 0.0459,-0.0459 0.0688,-0.0995 0.0688,-0.1612l0 -0.0196c0,-0.0187 0.0094,-0.0281 0.0281,-0.0281l0.143 0.0027c0.0187,0 0.0281,0.0094 0.0281,0.0281l0 0.031c0,0.112 -0.0408,0.2051 -0.122,0.2788 -0.0813,0.0739 -0.1884,0.1109 -0.3209,0.1109z"/>
  <path id="9" class="fil5" d="M24.7685 60.2484c-0.1345,0 -0.2416,-0.0394 -0.3209,-0.1178 -0.0795,-0.0786 -0.1191,-0.1822 -0.1191,-0.3113l0 -0.6026c0,-0.1272 0.0401,-0.2309 0.1205,-0.3113 0.0804,-0.0804 0.1868,-0.1205 0.3196,-0.1205 0.1345,0 0.2421,0.0401 0.3225,0.1205 0.0804,0.0804 0.1205,0.1842 0.1205,0.3113l0 0.6026c0,0.1292 -0.0401,0.2327 -0.1205,0.3113 -0.0804,0.0784 -0.188,0.1178 -0.3225,0.1178zm0 -0.1766c0.071,0 0.1294,-0.0245 0.1753,-0.073 0.0459,-0.0485 0.0686,-0.1131 0.0686,-0.1935l0 -0.5775c0,-0.0804 -0.0227,-0.1454 -0.0686,-0.1949 -0.0459,-0.0494 -0.1042,-0.0744 -0.1753,-0.0744 -0.071,0 -0.1289,0.0249 -0.1737,0.0744 -0.045,0.0494 -0.0675,0.1145 -0.0675,0.1949l0 0.5775c0,0.0804 0.0225,0.145 0.0675,0.1935 0.0448,0.0485 0.1027,0.073 0.1737,0.073z"/>
  <path id="10" class="fil5" d="M25.7078 60.2259c-0.0167,0 -0.0272,-0.0085 -0.0307,-0.0252l-0.2973 -1.3627 0 -0.0056c0,-0.0169 0.0085,-0.0254 0.0252,-0.0254l0.1374 0c0.0187,0 0.029,0.0085 0.031,0.0254l0.2018 1.0709c0.002,0.0038 0.0038,0.0056 0.0058,0.0056 0.0018,0 0.0036,-0.0018 0.0056,-0.0056l0.2073 -1.0709c0.0038,-0.0169 0.014,-0.0254 0.031,-0.0254l0.126 0c0.0187,0 0.0292,0.0085 0.031,0.0254l0.2076 1.0709c0.0018,0.0038 0.0036,0.0056 0.0056,0.0056 0.0018,0 0.0038,-0.0018 0.0056,-0.0056l0.2076 -1.0709c0.0036,-0.0169 0.014,-0.0254 0.0307,-0.0254l0.1345 0.0029c0.0207,0 0.029,0.0102 0.0254,0.031l-0.2973 1.3598c-0.0018,0.0167 -0.012,0.0252 -0.0307,0.0252l-0.143 0c-0.0169,0 -0.0272,-0.0085 -0.031,-0.0252l-0.2076 -1.0262c-0.0018,-0.0056 -0.0036,-0.0085 -0.0056,-0.0085 -0.0018,0 -0.0038,0.0029 -0.0056,0.0085l-0.1991 1.0262c-0.0018,0.0167 -0.012,0.0252 -0.0307,0.0252l-0.1403 0z"/>
  <path id="11" class="fil5" d="M27.8639 59.5643c0,0.0187 -0.0094,0.0281 -0.0281,0.0281l-0.6391 0c-0.0076,0 -0.0114,0.0036 -0.0114,0.0111l0 0.2047c0,0.0786 0.022,0.1425 0.0659,0.1922 0.0439,0.0494 0.1015,0.0742 0.1726,0.0742 0.0597,0 0.1107,-0.0183 0.1528,-0.0546 0.0421,-0.0365 0.0695,-0.0837 0.0826,-0.1416 0.0056,-0.0169 0.0158,-0.0252 0.031,-0.0252l0.1401 0.0056c0.0076,0 0.014,0.0027 0.0196,0.0082 0.0056,0.0058 0.0076,0.0131 0.0056,0.0225 -0.0149,0.1102 -0.0601,0.1978 -0.1358,0.2621 -0.0757,0.0646 -0.1744,0.0969 -0.2957,0.0969 -0.1327,0 -0.239,-0.0394 -0.3182,-0.1178 -0.0795,-0.0786 -0.1191,-0.1822 -0.1191,-0.3113l0 -0.6055c0,-0.1272 0.0396,-0.2303 0.1191,-0.3098 0.0793,-0.0795 0.1855,-0.1191 0.3182,-0.1191 0.1345,0 0.2414,0.0396 0.3209,0.1191 0.0795,0.0795 0.1191,0.1826 0.1191,0.3098l0 0.3505zm-0.44 -0.6057c-0.071,0 -0.1287,0.0249 -0.1726,0.0744 -0.0439,0.0494 -0.0659,0.1145 -0.0659,0.1949l0 0.1877c0,0.0076 0.0038,0.0114 0.0114,0.0114l0.4599 0c0.0073,0 0.0111,-0.0038 0.0111,-0.0114l0 -0.1877c0,-0.0804 -0.0225,-0.1454 -0.0673,-0.1949 -0.045,-0.0494 -0.1038,-0.0744 -0.1766,-0.0744z"/>
  <path id="12" class="fil5" d="M28.8173 58.5492c-0.045,0 -0.0824,-0.0149 -0.1122,-0.0448 -0.0298,-0.0301 -0.0448,-0.0673 -0.0448,-0.1122 0,-0.0468 0.0149,-0.0846 0.0448,-0.1136 0.0298,-0.029 0.0673,-0.0434 0.1122,-0.0434 0.0465,0 0.0844,0.0145 0.1136,0.0434 0.029,0.029 0.0434,0.0668 0.0434,0.1136 0,0.045 -0.0149,0.0822 -0.045,0.1122 -0.0298,0.0298 -0.0673,0.0448 -0.112,0.0448zm-0.3254 2.2599c-0.0187,0 -0.0281,-0.0094 -0.0281,-0.0281l0 -0.1178c0,-0.0187 0.0094,-0.0281 0.0281,-0.0281 0.1514,-0.0056 0.2271,-0.1009 0.2271,-0.2859l0 -1.5141c0,-0.0187 0.0094,-0.0281 0.0281,-0.0281l0.143 0c0.0187,0 0.0281,0.0094 0.0281,0.0281l0 1.5141c0,0.1532 -0.0298,0.2681 -0.0897,0.345 -0.0599,0.0766 -0.1719,0.1149 -0.3365,0.1149z"/>
  <path id="13" class="fil5" d="M29.7789 58.7848c0.1178,0 0.2122,0.0396 0.2833,0.1191 0.071,0.0795 0.1064,0.1826 0.1064,0.3098l0 0.6055c0,0.1309 -0.0354,0.2352 -0.1064,0.3127 -0.071,0.0777 -0.1655,0.1165 -0.2833,0.1165 -0.0523,0 -0.1018,-0.0098 -0.1485,-0.0294 -0.0468,-0.0198 -0.088,-0.0501 -0.1234,-0.0913 -0.0038,-0.0036 -0.0071,-0.0047 -0.0098,-0.0027 -0.0029,0.0018 -0.0042,0.0047 -0.0042,0.0085l0 0.6084c0,0.0185 -0.0094,0.0278 -0.0281,0.0278l-0.143 0c-0.0187,0 -0.0281,-0.0094 -0.0281,-0.0278l0 -1.9067c0,-0.0187 0.0094,-0.0281 0.0281,-0.0281l0.143 0c0.0187,0 0.0281,0.0094 0.0281,0.0281l0 0.0646c0,0.0038 0.0018,0.006 0.0056,0.0069 0.0038,0.0011 0.0076,-0.0004 0.0111,-0.004 0.0336,-0.0394 0.0744,-0.0688 0.122,-0.0884 0.0477,-0.0196 0.0967,-0.0294 0.1472,-0.0294zm0.1935 0.4429c0,-0.0804 -0.0229,-0.1454 -0.0688,-0.1949 -0.0457,-0.0494 -0.1042,-0.0744 -0.1753,-0.0744 -0.069,0 -0.1256,0.0249 -0.1695,0.0744 -0.0441,0.0494 -0.0659,0.1145 -0.0659,0.1949l0 0.5775c0,0.0804 0.0218,0.1454 0.0659,0.1951 0.0439,0.0494 0.1004,0.0742 0.1695,0.0742 0.071,0 0.1296,-0.0247 0.1753,-0.0742 0.0459,-0.0497 0.0688,-0.1147 0.0688,-0.1951l0 -0.5775z"/>
  <path id="14" class="fil5" d="M31.1249 58.8352c0,-0.0187 0.0094,-0.0281 0.0281,-0.0281l0.143 0c0.0187,0 0.0281,0.0094 0.0281,0.0281l0 1.3627c0,0.2 -0.0463,0.3519 -0.139,0.4556 -0.0924,0.1038 -0.2472,0.151 -0.4639,0.1416 -0.0187,-0.002 -0.0281,-0.0122 -0.0281,-0.031l0 -0.1205c0,-0.0187 0.0094,-0.0281 0.0281,-0.0281 0.1494,0.0038 0.2541,-0.0303 0.314,-0.1024 0.0597,-0.0719 0.0897,-0.1826 0.0897,-0.332l0 -0.0842c0,-0.0038 -0.0016,-0.0067 -0.0042,-0.0085 -0.0029,-0.0018 -0.006,-0.0009 -0.0098,0.0029 -0.0318,0.0468 -0.0726,0.0822 -0.122,0.1064 -0.0494,0.0243 -0.1022,0.0365 -0.1583,0.0365 -0.1178,0 -0.2109,-0.0392 -0.279,-0.1178 -0.0681,-0.0786 -0.1022,-0.1822 -0.1022,-0.3113l0 -0.5915c0,-0.1309 0.0341,-0.2349 0.1022,-0.3127 0.0681,-0.0775 0.1612,-0.1162 0.279,-0.1162 0.0561,0 0.1089,0.0116 0.1583,0.035 0.0494,0.0234 0.0902,0.0583 0.122,0.1051 0.0038,0.0056 0.0069,0.008 0.0098,0.0071 0.0027,-0.0009 0.0042,-0.0042 0.0042,-0.0098l0 -0.0871zm-0.2356 1.2253c0.0693,0 0.1258,-0.0247 0.1697,-0.0742 0.0439,-0.0497 0.0659,-0.1136 0.0659,-0.1922l0 -0.5663c0,-0.0804 -0.022,-0.1454 -0.0659,-0.1949 -0.0439,-0.0494 -0.1004,-0.0744 -0.1697,-0.0744 -0.071,0 -0.1289,0.0249 -0.1737,0.0744 -0.045,0.0494 -0.0675,0.1145 -0.0675,0.1949l0 0.5663c0,0.0786 0.0225,0.1425 0.0675,0.1922 0.0448,0.0494 0.1027,0.0742 0.1737,0.0742z"/>
  <path class="fil8" d="M7.1719 68.1396l0 0.0049c0.0281,0.0189 0.0379,0.037 0.0644,0.0575 0.0265,0.0205 0.0416,0.0405 0.0675,0.0604 0.0269,0.0207 0.0416,0.0403 0.0673,0.0604l0.2316 0.2089c0.012,0.0131 0.0198,0.0178 0.0345,0.0294l1.6682 1.5061 0.0058 0c0.098,-0.1091 0.3572,-0.3583 0.4781,-0.4795 0.1621,-0.1626 0.3196,-0.3202 0.4817,-0.4826 0.1292,-0.1294 2.8463,-2.8628 2.8839,-2.8839l0 -0.0069 -0.7442 -0.7447 -0.0069 0c-0.0196,0.0367 -1.2242,1.2313 -1.3513,1.3584l-0.1982 0.1913c-0.2592,0.259 -0.5135,0.5138 -0.7721,0.7732 -0.0445,0.0445 -0.7498,0.7594 -0.7801,0.7759l-1.2747 -1.2781 -0.8554 0.8494z"/>
  <path class="fil8" d="M7.1719 38.7442l0 0.0049c0.0281,0.0187 0.0379,0.037 0.0644,0.0575 0.0265,0.0205 0.0416,0.0405 0.0675,0.0604 0.0269,0.0207 0.0416,0.0403 0.0673,0.0601l0.2316 0.2091c0.012,0.0131 0.0198,0.0178 0.0345,0.0294l1.6682 1.5061 0.0058 0c0.098,-0.1091 0.3572,-0.3583 0.4781,-0.4795 0.1621,-0.1626 0.3196,-0.3202 0.4817,-0.4826 0.1292,-0.1294 2.8463,-2.8628 2.8839,-2.8839l0 -0.0069 -0.7442 -0.7447 -0.0069 0c-0.0196,0.0367 -1.2242,1.2313 -1.3513,1.3584l-0.1982 0.1913c-0.2592,0.259 -0.5135,0.5138 -0.7721,0.7732 -0.0445,0.0445 -0.7498,0.7594 -0.7801,0.7759l-1.2747 -1.2781 -0.8554 0.8494z"/>
  <path class="fil5" d="M15.6074 70.047c-0.1325,0 -0.2385,-0.0394 -0.3176,-0.1178 -0.0793,-0.0786 -0.1189,-0.1822 -0.1189,-0.3113l0 -0.6055c0,-0.1272 0.0401,-0.2303 0.1203,-0.3098 0.0802,-0.0795 0.1855,-0.1191 0.3162,-0.1191 0.0875,0 0.1648,0.0176 0.232,0.0532 0.067,0.0354 0.1189,0.0826 0.155,0.1416 0.0365,0.0588 0.0548,0.1238 0.0548,0.1949l0 0.0281c0,0.0187 -0.0094,0.0281 -0.0281,0.0281l-0.1425 0.0056c-0.0187,0 -0.0281,-0.0094 -0.0281,-0.0281l0 -0.0196c0,-0.0617 -0.0229,-0.1156 -0.0686,-0.1612 -0.0457,-0.0459 -0.104,-0.0688 -0.1746,-0.0688 -0.071,0 -0.1285,0.0249 -0.1724,0.0744 -0.0436,0.0494 -0.0657,0.1145 -0.0657,0.1949l0 0.5775c0,0.0804 0.022,0.1454 0.0657,0.1951 0.0439,0.0494 0.1013,0.0742 0.1724,0.0742 0.0706,0 0.1289,-0.0229 0.1746,-0.0686 0.0457,-0.0459 0.0686,-0.0995 0.0686,-0.1612l0 -0.0196c0,-0.0187 0.0094,-0.0281 0.0281,-0.0281l0.1425 0.0027c0.0187,0 0.0281,0.0094 0.0281,0.0281l0 0.031c0,0.112 -0.0408,0.2051 -0.1218,0.2788 -0.0811,0.0739 -0.188,0.1109 -0.32,0.1109z"/>
  <path id="1" class="fil5" d="M16.2755 70.0245c-0.0187,0 -0.0278,-0.0094 -0.0278,-0.0281l0 -0.1345c0,-0.0131 0.0029,-0.0254 0.0082,-0.0365l0.5734 -1.0233c0.002,-0.0038 0.0024,-0.0071 0.0013,-0.0098 -0.0009,-0.0029 -0.0031,-0.0042 -0.0069,-0.0042l-0.5369 0c-0.0187,0 -0.0281,-0.0094 -0.0281,-0.0281l0 -0.1263c0,-0.0187 0.0094,-0.0281 0.0281,-0.0281l0.7552 0c0.0187,0 0.0281,0.0094 0.0281,0.0281l0 0.1347c0,0.0129 -0.0029,0.0252 -0.0085,0.0363l-0.579 1.0235c-0.0018,0.0036 -0.0018,0.0069 0,0.0098 0.0018,0.0027 0.0047,0.0042 0.0085,0.0042l0.5565 0c0.0187,0 0.0281,0.0094 0.0281,0.0281l0 0.126c0,0.0187 -0.0094,0.0281 -0.0281,0.0281l-0.7721 0z"/>
  <path id="2" class="fil5" d="M17.7495 68.5834c0.1307,0 0.2352,0.0425 0.3133,0.1276 0.0784,0.0848 0.1176,0.1984 0.1176,0.3405l0 0.9449c0,0.0187 -0.0094,0.0281 -0.0281,0.0281l-0.1427 0c-0.0185,0 -0.0278,-0.0094 -0.0278,-0.0281l0 -0.0842c0,-0.0036 -0.0013,-0.006 -0.0042,-0.0069 -0.0027,-0.0009 -0.006,0.0004 -0.0098,0.0042 -0.0688,0.0915 -0.1724,0.1374 -0.3104,0.1374 -0.1027,0 -0.1917,-0.0294 -0.2672,-0.0884 -0.0753,-0.0588 -0.1131,-0.163 -0.1131,-0.3127 0,-0.1588 0.0457,-0.2753 0.1372,-0.349 0.0913,-0.0739 0.2116,-0.1107 0.3608,-0.1107l0.1957 0c0.0073,0 0.0111,-0.0038 0.0111,-0.0114l0 -0.1093c0,-0.0933 -0.0214,-0.1681 -0.0644,-0.2243 -0.0428,-0.0561 -0.1007,-0.0842 -0.1735,-0.0842 -0.0559,0 -0.104,0.0187 -0.1439,0.0561 -0.0403,0.0374 -0.0639,0.0851 -0.0713,0.143 0,0.0187 -0.0094,0.0281 -0.0281,0.0281l-0.1566 -0.0027c-0.0094,0 -0.0165,-0.0029 -0.0212,-0.0085 -0.0047,-0.0056 -0.006,-0.0122 -0.0042,-0.0196 0.0094,-0.1105 0.0541,-0.1995 0.1343,-0.2679 0.0804,-0.0681 0.1793,-0.1022 0.2964,-0.1022zm-0.0501 1.2896c0.0764,0 0.1425,-0.0247 0.1986,-0.0742 0.0557,-0.0497 0.0837,-0.1183 0.0837,-0.2062l0 -0.2354c0,-0.0076 -0.0038,-0.0114 -0.0111,-0.0114l-0.1986 0c-0.0895,0 -0.1603,0.0238 -0.2127,0.0715 -0.0521,0.0477 -0.0782,0.1183 -0.0782,0.2118 0,0.0822 0.02,0.1434 0.0601,0.1835 0.0401,0.0403 0.0929,0.0604 0.1581,0.0604z"/>
  <path id="3" class="fil5" d="M18.8601 70.0385c-0.1285,0 -0.2316,-0.0332 -0.3089,-0.0995 -0.0777,-0.0664 -0.1162,-0.1548 -0.1162,-0.265l0 -0.0196c0,-0.0187 0.0094,-0.0281 0.0281,-0.0281l0.1341 0c0.0187,0 0.0281,0.0094 0.0281,0.0281l0 0.0169c0,0.0597 0.022,0.1102 0.0657,0.1514 0.0439,0.041 0.1013,0.0615 0.1719,0.0615 0.0673,0 0.1214,-0.0205 0.1623,-0.0615 0.041,-0.0412 0.0617,-0.0935 0.0617,-0.1572 0,-0.0485 -0.0131,-0.0891 -0.0394,-0.1218 -0.0261,-0.0327 -0.0561,-0.0583 -0.0909,-0.0771 -0.0343,-0.0187 -0.0862,-0.043 -0.1552,-0.073 -0.0726,-0.0298 -0.1329,-0.0592 -0.1804,-0.0882 -0.0477,-0.029 -0.0884,-0.0701 -0.1232,-0.1234 -0.0343,-0.0534 -0.0514,-0.1211 -0.0514,-0.2033 0,-0.1196 0.0365,-0.214 0.1102,-0.2833 0.0737,-0.069 0.173,-0.1036 0.298,-0.1036 0.1267,0 0.2276,0.0354 0.302,0.1064 0.0746,0.071 0.112,0.1655 0.112,0.2833l0 0.0082c0,0.0187 -0.0094,0.0281 -0.0281,0.0281l-0.1287 0c-0.0185,0 -0.0278,-0.0094 -0.0278,-0.0281l0 -0.0167c0,-0.0637 -0.0209,-0.116 -0.063,-0.157 -0.0419,-0.0412 -0.0967,-0.0617 -0.1637,-0.0617 -0.067,0 -0.1205,0.0209 -0.1608,0.063 -0.0401,0.0421 -0.0599,0.094 -0.0599,0.1557 0,0.0448 0.0118,0.0826 0.0361,0.1136 0.0243,0.0307 0.0543,0.0559 0.0895,0.0757 0.0356,0.0196 0.0848,0.0434 0.1483,0.0715 0.0766,0.0336 0.1394,0.0652 0.1888,0.0953 0.0494,0.0298 0.0929,0.0719 0.1301,0.126 0.0374,0.0543 0.0561,0.1216 0.0561,0.202 0,0.1158 -0.0385,0.2084 -0.1149,0.2775 -0.0764,0.0693 -0.1799,0.1038 -0.3104,0.1038z"/>
  <path id="4" class="fil5" d="M20.5749 68.5919c0.0465,0 0.0866,0.0102 0.12,0.0307 0.0131,0.0076 0.0178,0.0196 0.014,0.0365l-0.0336 0.1456c-0.0018,0.0169 -0.0129,0.0225 -0.0334,0.0169 -0.0225,-0.0111 -0.0506,-0.0169 -0.084,-0.0169 -0.0149,0 -0.0261,0.0011 -0.0336,0.0029 -0.067,0.0038 -0.1223,0.0387 -0.165,0.1051 -0.043,0.0664 -0.0641,0.1472 -0.0641,0.2425l0 0.8411c0,0.0187 -0.0094,0.0281 -0.0281,0.0281l-0.1427 0c-0.0185,0 -0.0278,-0.0094 -0.0278,-0.0281l0 -1.3627c0,-0.0187 0.0094,-0.0281 0.0278,-0.0281l0.1427 0c0.0187,0 0.0281,0.0094 0.0281,0.0281l0 0.1684c0,0.0056 0.0013,0.0085 0.0042,0.0085 0.0027,0 0.0058,-0.002 0.0096,-0.0058 0.0541,-0.1421 0.1427,-0.2129 0.2659,-0.2129z"/>
  <path id="5" class="fil5" d="M21.7467 69.3629c0,0.0187 -0.0094,0.0281 -0.0281,0.0281l-0.6376 0c-0.0076,0 -0.0114,0.0036 -0.0114,0.0111l0 0.2047c0,0.0786 0.022,0.1425 0.0657,0.1922 0.0439,0.0494 0.1013,0.0742 0.1724,0.0742 0.0595,0 0.1102,-0.0183 0.1523,-0.0546 0.0419,-0.0365 0.0693,-0.0837 0.0824,-0.1416 0.0056,-0.0169 0.0158,-0.0252 0.031,-0.0252l0.1396 0.0056c0.0076,0 0.014,0.0027 0.0196,0.0082 0.0056,0.0058 0.0076,0.0131 0.0056,0.0225 -0.0149,0.1102 -0.0599,0.1978 -0.1356,0.2621 -0.0755,0.0646 -0.1739,0.0969 -0.2948,0.0969 -0.1325,0 -0.2385,-0.0394 -0.3176,-0.1178 -0.0793,-0.0786 -0.1189,-0.1822 -0.1189,-0.3113l0 -0.6055c0,-0.1272 0.0396,-0.2303 0.1189,-0.3098 0.0791,-0.0795 0.1851,-0.1191 0.3176,-0.1191 0.1341,0 0.2407,0.0396 0.32,0.1191 0.0793,0.0795 0.1189,0.1826 0.1189,0.3098l0 0.3505zm-0.4389 -0.6057c-0.071,0 -0.1285,0.0249 -0.1724,0.0744 -0.0436,0.0494 -0.0657,0.1145 -0.0657,0.1949l0 0.1877c0,0.0076 0.0038,0.0114 0.0114,0.0114l0.4588 0c0.0073,0 0.0111,-0.0038 0.0111,-0.0114l0 -0.1877c0,-0.0804 -0.0225,-0.1454 -0.067,-0.1949 -0.045,-0.0494 -0.1036,-0.0744 -0.1762,-0.0744z"/>
  <path id="6" class="fil5" d="M22.4431 68.5834c0.1307,0 0.2352,0.0425 0.3133,0.1276 0.0784,0.0848 0.1176,0.1984 0.1176,0.3405l0 0.9449c0,0.0187 -0.0094,0.0281 -0.0281,0.0281l-0.1427 0c-0.0185,0 -0.0278,-0.0094 -0.0278,-0.0281l0 -0.0842c0,-0.0036 -0.0013,-0.006 -0.0042,-0.0069 -0.0027,-0.0009 -0.006,0.0004 -0.0098,0.0042 -0.0688,0.0915 -0.1724,0.1374 -0.3104,0.1374 -0.1027,0 -0.1917,-0.0294 -0.2672,-0.0884 -0.0753,-0.0588 -0.1131,-0.163 -0.1131,-0.3127 0,-0.1588 0.0457,-0.2753 0.1372,-0.349 0.0913,-0.0739 0.2116,-0.1107 0.3608,-0.1107l0.1957 0c0.0073,0 0.0111,-0.0038 0.0111,-0.0114l0 -0.1093c0,-0.0933 -0.0214,-0.1681 -0.0644,-0.2243 -0.0428,-0.0561 -0.1007,-0.0842 -0.1735,-0.0842 -0.0559,0 -0.104,0.0187 -0.1439,0.0561 -0.0403,0.0374 -0.0639,0.0851 -0.0713,0.143 0,0.0187 -0.0094,0.0281 -0.0281,0.0281l-0.1566 -0.0027c-0.0094,0 -0.0165,-0.0029 -0.0212,-0.0085 -0.0047,-0.0056 -0.006,-0.0122 -0.0042,-0.0196 0.0094,-0.1105 0.0541,-0.1995 0.1343,-0.2679 0.0804,-0.0681 0.1793,-0.1022 0.2964,-0.1022zm-0.0501 1.2896c0.0764,0 0.1425,-0.0247 0.1986,-0.0742 0.0557,-0.0497 0.0837,-0.1183 0.0837,-0.2062l0 -0.2354c0,-0.0076 -0.0038,-0.0114 -0.0111,-0.0114l-0.1986 0c-0.0895,0 -0.1603,0.0238 -0.2127,0.0715 -0.0521,0.0477 -0.0782,0.1183 -0.0782,0.2118 0,0.0822 0.02,0.1434 0.0601,0.1835 0.0401,0.0403 0.0929,0.0604 0.1581,0.0604z"/>
  <path id="7" class="fil5" d="M23.1956 70.0245c-0.0187,0 -0.0281,-0.0094 -0.0281,-0.0281l0 -1.9065c0,-0.0187 0.0094,-0.0281 0.0281,-0.0281l0.1427 0c0.0185,0 0.0278,0.0094 0.0278,0.0281l0 1.9065c0,0.0187 -0.0094,0.0281 -0.0278,0.0281l-0.1427 0z"/>
  <path id="8" class="fil5" d="M23.8109 68.3478c-0.0463,0 -0.0842,-0.0149 -0.1131,-0.0448 -0.029,-0.0301 -0.0434,-0.0673 -0.0434,-0.1122 0,-0.0468 0.0145,-0.0846 0.0434,-0.1136 0.029,-0.029 0.0668,-0.0434 0.1131,-0.0434 0.045,0 0.0817,0.0145 0.1107,0.0434 0.029,0.029 0.0434,0.0668 0.0434,0.1136 0,0.045 -0.0145,0.0822 -0.0434,0.1122 -0.029,0.0298 -0.0657,0.0448 -0.1107,0.0448zm-0.0697 1.6767c-0.0187,0 -0.0281,-0.0094 -0.0281,-0.0281l0 -1.3627c0,-0.0187 0.0094,-0.0281 0.0281,-0.0281l0.1427 0c0.0185,0 0.0278,0.0094 0.0278,0.0281l0 1.3627c0,0.0187 -0.0094,0.0281 -0.0278,0.0281l-0.1427 0z"/>
  <path id="9" class="fil5" d="M24.2222 70.0245c-0.0187,0 -0.0281,-0.0094 -0.0281,-0.0281l0 -0.1345c0,-0.0131 0.0029,-0.0254 0.0085,-0.0365l0.5734 -1.0233c0.002,-0.0038 0.0024,-0.0071 0.0013,-0.0098 -0.0009,-0.0029 -0.0031,-0.0042 -0.0069,-0.0042l-0.5369 0c-0.0187,0 -0.0281,-0.0094 -0.0281,-0.0281l0 -0.1263c0,-0.0187 0.0094,-0.0281 0.0281,-0.0281l0.7552 0c0.0185,0 0.0278,0.0094 0.0278,0.0281l0 0.1347c0,0.0129 -0.0029,0.0252 -0.0085,0.0363l-0.5788 1.0235c-0.0018,0.0036 -0.0018,0.0069 0,0.0098 0.0018,0.0027 0.0047,0.0042 0.0085,0.0042l0.5565 0c0.0185,0 0.0278,0.0094 0.0278,0.0281l0 0.126c0,0.0187 -0.0094,0.0281 -0.0278,0.0281l-0.7721 0z"/>
  <path id="10" class="fil5" d="M25.6962 68.5834c0.1305,0 0.2349,0.0425 0.3131,0.1276 0.0786,0.0848 0.1176,0.1984 0.1176,0.3405l0 0.9449c0,0.0187 -0.0094,0.0281 -0.0278,0.0281l-0.1427 0c-0.0187,0 -0.0281,-0.0094 -0.0281,-0.0281l0 -0.0842c0,-0.0036 -0.0013,-0.006 -0.0042,-0.0069 -0.0027,-0.0009 -0.006,0.0004 -0.0096,0.0042 -0.069,0.0915 -0.1726,0.1374 -0.3104,0.1374 -0.1027,0 -0.1917,-0.0294 -0.2672,-0.0884 -0.0753,-0.0588 -0.1131,-0.163 -0.1131,-0.3127 0,-0.1588 0.0457,-0.2753 0.1372,-0.349 0.0913,-0.0739 0.2113,-0.1107 0.3608,-0.1107l0.1955 0c0.0073,0 0.0111,-0.0038 0.0111,-0.0114l0 -0.1093c0,-0.0933 -0.0212,-0.1681 -0.0641,-0.2243 -0.0428,-0.0561 -0.1009,-0.0842 -0.1735,-0.0842 -0.0559,0 -0.104,0.0187 -0.1439,0.0561 -0.0403,0.0374 -0.0641,0.0851 -0.0715,0.143 0,0.0187 -0.0094,0.0281 -0.0278,0.0281l-0.1568 -0.0027c-0.0094,0 -0.0165,-0.0029 -0.0209,-0.0085 -0.0047,-0.0056 -0.006,-0.0122 -0.0042,-0.0196 0.0091,-0.1105 0.0541,-0.1995 0.1343,-0.2679 0.0802,-0.0681 0.179,-0.1022 0.2964,-0.1022zm-0.0503 1.2896c0.0766,0 0.1427,-0.0247 0.1986,-0.0742 0.0559,-0.0497 0.0837,-0.1183 0.0837,-0.2062l0 -0.2354c0,-0.0076 -0.0038,-0.0114 -0.0111,-0.0114l-0.1984 0c-0.0895,0 -0.1606,0.0238 -0.2127,0.0715 -0.0521,0.0477 -0.0782,0.1183 -0.0782,0.2118 0,0.0822 0.02,0.1434 0.0599,0.1835 0.0403,0.0403 0.0929,0.0604 0.1581,0.0604z"/>
  <path id="11" class="fil5" d="M26.8431 70.047c-0.1323,0 -0.2383,-0.0394 -0.3173,-0.1178 -0.0793,-0.0786 -0.1189,-0.1822 -0.1189,-0.3113l0 -0.6055c0,-0.1272 0.0401,-0.2303 0.1203,-0.3098 0.0802,-0.0795 0.1855,-0.1191 0.316,-0.1191 0.0875,0 0.165,0.0176 0.2323,0.0532 0.067,0.0354 0.1189,0.0826 0.155,0.1416 0.0365,0.0588 0.0548,0.1238 0.0548,0.1949l0 0.0281c0,0.0187 -0.0094,0.0281 -0.0281,0.0281l-0.1427 0.0056c-0.0185,0 -0.0278,-0.0094 -0.0278,-0.0281l0 -0.0196c0,-0.0617 -0.0229,-0.1156 -0.0686,-0.1612 -0.0457,-0.0459 -0.104,-0.0688 -0.1748,-0.0688 -0.0708,0 -0.1283,0.0249 -0.1721,0.0744 -0.0436,0.0494 -0.0657,0.1145 -0.0657,0.1949l0 0.5775c0,0.0804 0.022,0.1454 0.0657,0.1951 0.0439,0.0494 0.1013,0.0742 0.1721,0.0742 0.0708,0 0.1292,-0.0229 0.1748,-0.0686 0.0457,-0.0459 0.0686,-0.0995 0.0686,-0.1612l0 -0.0196c0,-0.0187 0.0094,-0.0281 0.0278,-0.0281l0.1427 0.0027c0.0187,0 0.0281,0.0094 0.0281,0.0281l0 0.031c0,0.112 -0.0408,0.2051 -0.1218,0.2788 -0.0811,0.0739 -0.188,0.1109 -0.3202,0.1109z"/>
  <path id="12" class="fil5" d="M27.6599 68.3478c-0.045,0 -0.0824,-0.0149 -0.112,-0.0448 -0.0298,-0.0301 -0.0448,-0.0673 -0.0448,-0.1122 0,-0.0468 0.0149,-0.0846 0.0448,-0.1136 0.0296,-0.029 0.067,-0.0434 0.112,-0.0434 0.0463,0 0.0842,0.0145 0.1131,0.0434 0.029,0.029 0.0434,0.0668 0.0434,0.1136 0,0.045 -0.0149,0.0822 -0.045,0.1122 -0.0296,0.0298 -0.067,0.0448 -0.1116,0.0448zm-0.3247 2.2599c-0.0187,0 -0.0281,-0.0094 -0.0281,-0.0281l0 -0.1178c0,-0.0187 0.0094,-0.0281 0.0281,-0.0281 0.151,-0.0056 0.2267,-0.1009 0.2267,-0.2859l0 -1.5141c0,-0.0187 0.0094,-0.0281 0.0278,-0.0281l0.1427 0c0.0187,0 0.0278,0.0094 0.0278,0.0281l0 1.5141c0,0.1532 -0.0296,0.2681 -0.0895,0.345 -0.0597,0.0766 -0.1715,0.1149 -0.3356,0.1149z"/>
  <path id="13" class="fil5" d="M28.2414 68.3478c-0.0463,0 -0.0842,-0.0149 -0.1134,-0.0448 -0.0287,-0.0301 -0.0432,-0.0673 -0.0432,-0.1122 0,-0.0468 0.0145,-0.0846 0.0432,-0.1136 0.0292,-0.029 0.067,-0.0434 0.1134,-0.0434 0.045,0 0.0817,0.0145 0.1107,0.0434 0.029,0.029 0.0434,0.0668 0.0434,0.1136 0,0.045 -0.0145,0.0822 -0.0434,0.1122 -0.029,0.0298 -0.0657,0.0448 -0.1107,0.0448zm-0.0697 1.6767c-0.0187,0 -0.0281,-0.0094 -0.0281,-0.0281l0 -1.3627c0,-0.0187 0.0094,-0.0281 0.0281,-0.0281l0.1425 0c0.0187,0 0.0281,0.0094 0.0281,0.0281l0 1.3627c0,0.0187 -0.0094,0.0281 -0.0281,0.0281l-0.1425 0z"/>
  <path id="14" class="fil5" d="M29.4023 70.0245c-0.0091,0 -0.0163,-0.0029 -0.0209,-0.0085 -0.0047,-0.0056 -0.006,-0.0131 -0.0042,-0.0223l0.4784 -1.7468c0.0018,-0.0018 0.0013,-0.0042 -0.0013,-0.0071 -0.0029,-0.0027 -0.0062,-0.004 -0.0098,-0.004l-0.512 0c-0.0076,0 -0.0111,0.0036 -0.0111,0.0111l0 0.1149c0,0.0187 -0.0094,0.0281 -0.0281,0.0281l-0.1091 0c-0.0185,0 -0.0278,-0.0094 -0.0278,-0.0281l0 -0.2719c0,-0.0187 0.0094,-0.0281 0.0278,-0.0281l0.856 0c0.0185,0 0.0278,0.0094 0.0278,0.0281l0 0.1289c0,0.0038 -0.0018,0.0149 -0.0056,0.0336l-0.4755 1.7468c-0.0036,0.0167 -0.014,0.0252 -0.0307,0.0252l-0.1539 0z"/>
  <path id="15" class="fil5" d="M31.489 68.0899c0,-0.0187 0.0094,-0.0281 0.0281,-0.0281l0.1425 0c0.0187,0 0.0281,0.0094 0.0281,0.0281l0 1.9065c0,0.0187 -0.0094,0.0281 -0.0281,0.0281l-0.1425 0c-0.0187,0 -0.0281,-0.0094 -0.0281,-0.0281l0 -0.0617c0,-0.0038 -0.0016,-0.0065 -0.0042,-0.0085 -0.0029,-0.0018 -0.006,-0.0009 -0.0098,0.0029 -0.0708,0.0784 -0.1603,0.1178 -0.2686,0.1178 -0.1194,0 -0.2145,-0.0399 -0.2853,-0.1191 -0.0708,-0.0795 -0.1062,-0.1828 -0.1062,-0.31l0 -0.6055c0,-0.1309 0.0354,-0.2349 0.1062,-0.3127 0.0708,-0.0775 0.1659,-0.1162 0.2853,-0.1162 0.11,0 0.1995,0.0401 0.2686,0.1205 0.0038,0.0038 0.0069,0.0047 0.0098,0.0029 0.0027,-0.002 0.0042,-0.0047 0.0042,-0.0085l0 -0.6084zm-0.2352 1.7831c0.0693,0 0.1256,-0.0247 0.1695,-0.0742 0.0436,-0.0497 0.0657,-0.1136 0.0657,-0.1922l0 -0.5803c0,-0.0804 -0.022,-0.1454 -0.0657,-0.1949 -0.0439,-0.0494 -0.1002,-0.0744 -0.1695,-0.0744 -0.0708,0 -0.1289,0.0249 -0.1748,0.0744 -0.0454,0.0494 -0.0684,0.1145 -0.0684,0.1949l0 0.5803c0,0.0786 0.0229,0.1425 0.0684,0.1922 0.0459,0.0494 0.104,0.0742 0.1748,0.0742z"/>
  <path id="16" class="fil5" d="M32.5323 68.5861c0.1136,0 0.2018,0.0394 0.2643,0.1178 0.0624,0.0786 0.0938,0.188 0.0938,0.328l0 0.9645c0,0.0187 -0.0094,0.0281 -0.0281,0.0281l-0.1425 0c-0.0187,0 -0.0281,-0.0094 -0.0281,-0.0281l0 -0.9476c0,-0.0918 -0.02,-0.1628 -0.0601,-0.2131 -0.0401,-0.0506 -0.0955,-0.0757 -0.1666,-0.0757 -0.0746,0 -0.1327,0.0272 -0.1748,0.0813 -0.0419,0.0541 -0.0628,0.1281 -0.0628,0.2216l0 0.9335c0,0.0187 -0.0094,0.0281 -0.0281,0.0281l-0.1425 0c-0.0187,0 -0.0281,-0.0094 -0.0281,-0.0281l0 -1.3627c0,-0.0187 0.0094,-0.0281 0.0281,-0.0281l0.1425 0c0.0187,0 0.0281,0.0094 0.0281,0.0281l0 0.0897c0,0.0038 0.0018,0.0067 0.0056,0.0085 0.0038,0.0018 0.0065,0 0.0085,-0.0056 0.0334,-0.0468 0.0759,-0.0817 0.1272,-0.1051 0.0512,-0.0234 0.1058,-0.0352 0.1637,-0.0352z"/>
  <path id="17" class="fil5" d="M33.3349 68.3478c-0.0465,0 -0.0842,-0.0149 -0.1134,-0.0448 -0.029,-0.0301 -0.0432,-0.0673 -0.0432,-0.1122 0,-0.0468 0.0143,-0.0846 0.0432,-0.1136 0.0292,-0.029 0.0668,-0.0434 0.1134,-0.0434 0.0448,0 0.0817,0.0145 0.1107,0.0434 0.0287,0.029 0.0432,0.0668 0.0432,0.1136 0,0.045 -0.0145,0.0822 -0.0432,0.1122 -0.029,0.0298 -0.0659,0.0448 -0.1107,0.0448zm-0.0697 1.6767c-0.0187,0 -0.0281,-0.0094 -0.0281,-0.0281l0 -1.3627c0,-0.0187 0.0094,-0.0281 0.0281,-0.0281l0.1425 0c0.0187,0 0.0281,0.0094 0.0281,0.0281l0 1.3627c0,0.0187 -0.0094,0.0281 -0.0281,0.0281l-0.1425 0z"/>
  <path id="18" class="fil5" d="M34.0932 68.9199c-0.0187,0 -0.0281,-0.0094 -0.0281,-0.0281l0.0027 -0.3365c0,-0.0114 -0.0047,-0.014 -0.014,-0.0085l-0.2797 0.171 -0.014 0.0056c-0.0094,0 -0.0176,-0.0056 -0.0249,-0.0167l-0.0336 -0.0617c-0.0038,-0.0076 -0.0056,-0.0131 -0.0056,-0.0169 0,-0.0111 0.0047,-0.0187 0.014,-0.0225l0.2853 -0.171c0.0038,-0.0018 0.0056,-0.0047 0.0056,-0.0082 0,-0.0038 -0.0018,-0.0067 -0.0056,-0.0085l-0.2853 -0.171c-0.0076,-0.0038 -0.0118,-0.0094 -0.0127,-0.0169 -0.0009,-0.0073 0.0004,-0.0149 0.0042,-0.0223l0.0336 -0.0673c0.0091,-0.0187 0.0223,-0.0225 0.039,-0.0114l0.2797 0.1739c0.0094,0.0038 0.014,0.0009 0.014,-0.0085l-0.0027 -0.3336c0,-0.0187 0.0094,-0.0281 0.0281,-0.0281l0.0726 0c0.0187,0 0.0281,0.0094 0.0281,0.0281l0 0.3336c0,0.0038 0.0018,0.0065 0.0053,0.0085 0.0038,0.0018 0.0065,0.0018 0.0085,0l0.2768 -0.1739c0.0076,-0.0038 0.0131,-0.0056 0.0169,-0.0056 0.0094,0 0.0167,0.0056 0.0223,0.0169l0.0365 0.0673c0.0018,0.0036 0.0029,0.0082 0.0029,0.014 0,0.0111 -0.0047,0.0196 -0.014,0.0252l-0.2826 0.171c-0.0018,0.0018 -0.0027,0.0047 -0.0027,0.0085 0,0.0036 0.0009,0.0065 0.0027,0.0082l0.2826 0.171c0.0167,0.0114 0.0203,0.0245 0.0111,0.0394l-0.0365 0.0673c-0.0036,0.0073 -0.0094,0.012 -0.0167,0.014 -0.0076,0.0018 -0.0149,0.0009 -0.0225,-0.0029l-0.2768 -0.1766c-0.002,-0.0018 -0.0047,-0.0018 -0.0085,0 -0.0036,0.0018 -0.0053,0.0047 -0.0053,0.0085l0 0.3365c0,0.0187 -0.0094,0.0281 -0.0281,0.0281l-0.0726 0z"/>
  <path class="fil5" d="M15.2997 38.9524c-0.045,0 -0.0822,-0.0149 -0.112,-0.0448 -0.0298,-0.0301 -0.0445,-0.0673 -0.0445,-0.1122 0,-0.0468 0.0147,-0.0846 0.0445,-0.1136 0.0298,-0.029 0.067,-0.0434 0.112,-0.0434 0.0463,0 0.0842,0.0145 0.1134,0.0434 0.0287,0.029 0.0432,0.0668 0.0432,0.1136 0,0.045 -0.0149,0.0822 -0.0448,0.1122 -0.0298,0.0298 -0.0673,0.0448 -0.1118,0.0448zm-0.3247 2.2599c-0.0185,0 -0.0278,-0.0094 -0.0278,-0.0281l0 -0.1178c0,-0.0187 0.0094,-0.0281 0.0278,-0.0281 0.1512,-0.0056 0.2267,-0.1009 0.2267,-0.2859l0 -1.5141c0,-0.0187 0.0094,-0.0281 0.0281,-0.0281l0.1425 0c0.0187,0 0.0281,0.0094 0.0281,0.0281l0 1.5141c0,0.1532 -0.0298,0.2681 -0.0895,0.345 -0.0599,0.0766 -0.1715,0.1149 -0.3358,0.1149z"/>
  <path id="1" class="fil5" d="M16.6058 39.9675c0,0.0187 -0.0094,0.0281 -0.0281,0.0281l-0.6376 0c-0.0076,0 -0.0114,0.0036 -0.0114,0.0111l0 0.2047c0,0.0786 0.022,0.1425 0.0657,0.1922 0.0439,0.0494 0.1013,0.0742 0.1721,0.0742 0.0597,0 0.1105,-0.0183 0.1525,-0.0546 0.0419,-0.0365 0.0693,-0.0837 0.0824,-0.1416 0.0056,-0.0169 0.0158,-0.0252 0.031,-0.0252l0.1396 0.0056c0.0076,0 0.014,0.0027 0.0196,0.0082 0.0056,0.0058 0.0076,0.0131 0.0056,0.0225 -0.0149,0.1102 -0.0601,0.1978 -0.1356,0.2621 -0.0755,0.0646 -0.1739,0.0969 -0.2951,0.0969 -0.1323,0 -0.2383,-0.0394 -0.3173,-0.1178 -0.0793,-0.0786 -0.1189,-0.1822 -0.1189,-0.3113l0 -0.6055c0,-0.1272 0.0396,-0.2303 0.1189,-0.3098 0.0791,-0.0795 0.1851,-0.1191 0.3173,-0.1191 0.1343,0 0.241,0.0396 0.3202,0.1191 0.0793,0.0795 0.1189,0.1826 0.1189,0.3098l0 0.3505zm-0.4392 -0.6057c-0.0708,0 -0.1283,0.0249 -0.1721,0.0744 -0.0436,0.0494 -0.0657,0.1145 -0.0657,0.1949l0 0.1877c0,0.0076 0.0038,0.0114 0.0114,0.0114l0.4588 0c0.0073,0 0.0111,-0.0038 0.0111,-0.0114l0 -0.1877c0,-0.0804 -0.0225,-0.1454 -0.067,-0.1949 -0.045,-0.0494 -0.1036,-0.0744 -0.1764,-0.0744z"/>
  <path id="2" class="fil5" d="M17.5429 38.6945c0,-0.0187 0.0091,-0.0281 0.0278,-0.0281l0.1427 0c0.0185,0 0.0278,0.0094 0.0278,0.0281l0 1.9065c0,0.0187 -0.0094,0.0281 -0.0278,0.0281l-0.1427 0c-0.0187,0 -0.0278,-0.0094 -0.0278,-0.0281l0 -0.0617c0,-0.0038 -0.0016,-0.0065 -0.0042,-0.0085 -0.0029,-0.0018 -0.006,-0.0009 -0.0098,0.0029 -0.071,0.0784 -0.1606,0.1178 -0.2686,0.1178 -0.1194,0 -0.2145,-0.0399 -0.2853,-0.1191 -0.071,-0.0795 -0.1062,-0.1828 -0.1062,-0.31l0 -0.6055c0,-0.1309 0.0352,-0.2349 0.1062,-0.3127 0.0708,-0.0775 0.1659,-0.1162 0.2853,-0.1162 0.1098,0 0.1993,0.0401 0.2686,0.1205 0.0038,0.0038 0.0069,0.0047 0.0098,0.0029 0.0027,-0.002 0.0042,-0.0047 0.0042,-0.0085l0 -0.6084zm-0.2352 1.7831c0.069,0 0.1256,-0.0247 0.1692,-0.0742 0.0439,-0.0497 0.0659,-0.1136 0.0659,-0.1922l0 -0.5803c0,-0.0804 -0.022,-0.1454 -0.0659,-0.1949 -0.0436,-0.0494 -0.1002,-0.0744 -0.1692,-0.0744 -0.0708,0 -0.1292,0.0249 -0.1748,0.0744 -0.0457,0.0494 -0.0684,0.1145 -0.0684,0.1949l0 0.5803c0,0.0786 0.0227,0.1425 0.0684,0.1922 0.0457,0.0494 0.104,0.0742 0.1748,0.0742z"/>
  <path id="3" class="fil5" d="M18.586 39.1907c0.1138,0 0.202,0.0394 0.2643,0.1178 0.0626,0.0786 0.0938,0.188 0.0938,0.328l0 0.9645c0,0.0187 -0.0094,0.0281 -0.0278,0.0281l-0.1427 0c-0.0187,0 -0.0281,-0.0094 -0.0281,-0.0281l0 -0.9476c0,-0.0918 -0.0198,-0.1628 -0.0601,-0.2131 -0.0399,-0.0506 -0.0955,-0.0757 -0.1664,-0.0757 -0.0746,0 -0.1329,0.0272 -0.1748,0.0813 -0.0421,0.0541 -0.063,0.1281 -0.063,0.2216l0 0.9335c0,0.0187 -0.0091,0.0281 -0.0278,0.0281l-0.1427 0c-0.0185,0 -0.0278,-0.0094 -0.0278,-0.0281l0 -1.3627c0,-0.0187 0.0094,-0.0281 0.0278,-0.0281l0.1427 0c0.0187,0 0.0278,0.0094 0.0278,0.0281l0 0.0897c0,0.0038 0.0018,0.0067 0.0056,0.0085 0.0038,0.0018 0.0065,0 0.0085,-0.0056 0.0336,-0.0468 0.0762,-0.0817 0.1274,-0.1051 0.051,-0.0234 0.1058,-0.0352 0.1635,-0.0352z"/>
  <path id="4" class="fil5" d="M19.6767 40.6516c-0.1341,0 -0.241,-0.0394 -0.32,-0.1178 -0.0793,-0.0786 -0.1189,-0.1822 -0.1189,-0.3113l0 -0.6026c0,-0.1272 0.0401,-0.2309 0.1203,-0.3113 0.0802,-0.0804 0.1864,-0.1205 0.3187,-0.1205 0.1343,0 0.2416,0.0401 0.3218,0.1205 0.0802,0.0804 0.1203,0.1842 0.1203,0.3113l0 0.6026c0,0.1292 -0.0401,0.2327 -0.1203,0.3113 -0.0802,0.0784 -0.1875,0.1178 -0.3218,0.1178zm0 -0.1766c0.071,0 0.1292,-0.0245 0.1748,-0.073 0.0459,-0.0485 0.0686,-0.1131 0.0686,-0.1935l0 -0.5775c0,-0.0804 -0.0227,-0.1454 -0.0686,-0.1949 -0.0457,-0.0494 -0.1038,-0.0744 -0.1748,-0.0744 -0.0708,0 -0.1285,0.0249 -0.1733,0.0744 -0.0448,0.0494 -0.0673,0.1145 -0.0673,0.1949l0 0.5775c0,0.0804 0.0225,0.145 0.0673,0.1935 0.0448,0.0485 0.1024,0.073 0.1733,0.073z"/>
  <path id="5" class="fil5" d="M20.7985 40.6431c-0.1285,0 -0.2316,-0.0332 -0.3091,-0.0995 -0.0775,-0.0664 -0.116,-0.1548 -0.116,-0.265l0 -0.0196c0,-0.0187 0.0094,-0.0281 0.0278,-0.0281l0.1343 0c0.0187,0 0.0281,0.0094 0.0281,0.0281l0 0.0169c0,0.0597 0.0218,0.1102 0.0657,0.1514 0.0436,0.041 0.1013,0.0615 0.1719,0.0615 0.0673,0 0.1214,-0.0205 0.1623,-0.0615 0.041,-0.0412 0.0617,-0.0935 0.0617,-0.1572 0,-0.0485 -0.0131,-0.0891 -0.0394,-0.1218 -0.0261,-0.0327 -0.0561,-0.0583 -0.0909,-0.0771 -0.0345,-0.0187 -0.0862,-0.043 -0.1552,-0.073 -0.0726,-0.0298 -0.1329,-0.0592 -0.1804,-0.0882 -0.0477,-0.029 -0.0884,-0.0701 -0.1232,-0.1234 -0.0345,-0.0534 -0.0514,-0.1211 -0.0514,-0.2033 0,-0.1196 0.0365,-0.214 0.1102,-0.2833 0.0737,-0.069 0.173,-0.1036 0.298,-0.1036 0.1267,0 0.2276,0.0354 0.302,0.1064 0.0746,0.071 0.112,0.1655 0.112,0.2833l0 0.0082c0,0.0187 -0.0094,0.0281 -0.0281,0.0281l-0.1287 0c-0.0185,0 -0.0278,-0.0094 -0.0278,-0.0281l0 -0.0167c0,-0.0637 -0.0209,-0.116 -0.063,-0.157 -0.0419,-0.0412 -0.0967,-0.0617 -0.1637,-0.0617 -0.067,0 -0.1207,0.0209 -0.1608,0.063 -0.0401,0.0421 -0.0599,0.094 -0.0599,0.1557 0,0.0448 0.0118,0.0826 0.0361,0.1136 0.0243,0.0307 0.0543,0.0559 0.0895,0.0757 0.0356,0.0196 0.0848,0.0434 0.1483,0.0715 0.0766,0.0336 0.1394,0.0652 0.1888,0.0953 0.0494,0.0298 0.0929,0.0719 0.1301,0.126 0.0374,0.0543 0.0561,0.1216 0.0561,0.202 0,0.1158 -0.0385,0.2084 -0.1149,0.2775 -0.0764,0.0693 -0.1799,0.1038 -0.3104,0.1038z"/>
  <path id="6" class="fil5" d="M21.9732 39.331c0,0.0187 -0.0094,0.0281 -0.0278,0.0281l-0.2127 0c-0.0073,0 -0.0111,0.0038 -0.0111,0.0111l0 0.858c0,0.086 0.0149,0.1452 0.0448,0.1779 0.0298,0.0327 0.0755,0.0481 0.137,0.0463l0.0281 0c0.0187,0 0.0281,0.0094 0.0281,0.0281l0 0.1205c0,0.0187 -0.0094,0.0281 -0.0281,0.0281l-0.0699 0c-0.11,0 -0.1933,-0.0238 -0.2503,-0.0715 -0.0568,-0.0477 -0.0853,-0.1378 -0.0853,-0.2706l0 -0.9168c0,-0.0073 -0.0038,-0.0111 -0.0114,-0.0111l-0.1089 0c-0.0187,0 -0.0281,-0.0094 -0.0281,-0.0281l0 -0.0926c0,-0.0187 0.0094,-0.0281 0.0281,-0.0281l0.1089 0c0.0076,0 0.0114,-0.0036 0.0114,-0.0111l0 -0.314c0,-0.0187 0.0094,-0.0281 0.0281,-0.0281l0.1396 0c0.0187,0 0.0281,0.0094 0.0281,0.0281l0 0.314c0,0.0076 0.0038,0.0111 0.0111,0.0111l0.2127 0c0.0185,0 0.0278,0.0094 0.0278,0.0281l0 0.0926z"/>
  <path id="7" class="fil5" d="M22.7005 39.1965c0.0468,0 0.0869,0.0102 0.1203,0.0307 0.0131,0.0076 0.0178,0.0196 0.014,0.0365l-0.0336 0.1456c-0.0018,0.0169 -0.0129,0.0225 -0.0334,0.0169 -0.0225,-0.0111 -0.0506,-0.0169 -0.084,-0.0169 -0.0149,0 -0.0261,0.0011 -0.0336,0.0029 -0.067,0.0038 -0.1223,0.0387 -0.165,0.1051 -0.043,0.0664 -0.0644,0.1472 -0.0644,0.2425l0 0.8411c0,0.0187 -0.0091,0.0281 -0.0278,0.0281l-0.1427 0c-0.0185,0 -0.0278,-0.0094 -0.0278,-0.0281l0 -1.3627c0,-0.0187 0.0094,-0.0281 0.0278,-0.0281l0.1427 0c0.0187,0 0.0278,0.0094 0.0278,0.0281l0 0.1684c0,0.0056 0.0013,0.0085 0.0042,0.0085 0.0027,0 0.006,-0.002 0.0098,-0.0058 0.0541,-0.1421 0.1427,-0.2129 0.2657,-0.2129z"/>
  <path id="8" class="fil5" d="M23.4361 40.6516c-0.1341,0 -0.241,-0.0394 -0.32,-0.1178 -0.0793,-0.0786 -0.1189,-0.1822 -0.1189,-0.3113l0 -0.6026c0,-0.1272 0.0401,-0.2309 0.1203,-0.3113 0.0802,-0.0804 0.1864,-0.1205 0.3187,-0.1205 0.1343,0 0.2416,0.0401 0.3218,0.1205 0.0802,0.0804 0.1203,0.1842 0.1203,0.3113l0 0.6026c0,0.1292 -0.0401,0.2327 -0.1203,0.3113 -0.0802,0.0784 -0.1875,0.1178 -0.3218,0.1178zm0 -0.1766c0.071,0 0.1292,-0.0245 0.175,-0.073 0.0457,-0.0485 0.0684,-0.1131 0.0684,-0.1935l0 -0.5775c0,-0.0804 -0.0227,-0.1454 -0.0684,-0.1949 -0.0459,-0.0494 -0.104,-0.0744 -0.175,-0.0744 -0.0708,0 -0.1285,0.0249 -0.1733,0.0744 -0.0448,0.0494 -0.0673,0.1145 -0.0673,0.1949l0 0.5775c0,0.0804 0.0225,0.145 0.0673,0.1935 0.0448,0.0485 0.1024,0.073 0.1733,0.073z"/>
  <path id="9" class="fil5" d="M24.6921 39.1907c0.1138,0 0.202,0.0394 0.2643,0.1178 0.0624,0.0786 0.0938,0.188 0.0938,0.328l0 0.9645c0,0.0187 -0.0094,0.0281 -0.0281,0.0281l-0.1425 0c-0.0187,0 -0.0281,-0.0094 -0.0281,-0.0281l0 -0.9476c0,-0.0918 -0.02,-0.1628 -0.0601,-0.2131 -0.0401,-0.0506 -0.0955,-0.0757 -0.1664,-0.0757 -0.0748,0 -0.1329,0.0272 -0.175,0.0813 -0.0419,0.0541 -0.0628,0.1281 -0.0628,0.2216l0 0.9335c0,0.0187 -0.0094,0.0281 -0.0281,0.0281l-0.1425 0c-0.0187,0 -0.0281,-0.0094 -0.0281,-0.0281l0 -1.3627c0,-0.0187 0.0094,-0.0281 0.0281,-0.0281l0.1425 0c0.0187,0 0.0281,0.0094 0.0281,0.0281l0 0.0897c0,0.0038 0.0018,0.0067 0.0056,0.0085 0.0038,0.0018 0.0065,0 0.0085,-0.0056 0.0336,-0.0468 0.0759,-0.0817 0.1274,-0.1051 0.051,-0.0234 0.1056,-0.0352 0.1635,-0.0352z"/>
  <path id="10" class="fil5" d="M25.8779 39.1907c0.1138,0 0.202,0.0394 0.2643,0.1178 0.0624,0.0786 0.0938,0.188 0.0938,0.328l0 0.9645c0,0.0187 -0.0094,0.0281 -0.0281,0.0281l-0.1425 0c-0.0187,0 -0.0281,-0.0094 -0.0281,-0.0281l0 -0.9476c0,-0.0918 -0.02,-0.1628 -0.0601,-0.2131 -0.0401,-0.0506 -0.0955,-0.0757 -0.1664,-0.0757 -0.0748,0 -0.1329,0.0272 -0.1748,0.0813 -0.0421,0.0541 -0.063,0.1281 -0.063,0.2216l0 0.9335c0,0.0187 -0.0094,0.0281 -0.0278,0.0281l-0.1427 0c-0.0187,0 -0.0281,-0.0094 -0.0281,-0.0281l0 -1.3627c0,-0.0187 0.0094,-0.0281 0.0281,-0.0281l0.1427 0c0.0185,0 0.0278,0.0094 0.0278,0.0281l0 0.0897c0,0.0038 0.0018,0.0067 0.0056,0.0085 0.0038,0.0018 0.0065,0 0.0085,-0.0056 0.0336,-0.0468 0.0759,-0.0817 0.1274,-0.1051 0.051,-0.0234 0.1058,-0.0352 0.1635,-0.0352z"/>
  <path id="11" class="fil5" d="M27.405 39.9675c0,0.0187 -0.0094,0.0281 -0.0278,0.0281l-0.6376 0c-0.0076,0 -0.0114,0.0036 -0.0114,0.0111l0 0.2047c0,0.0786 0.0218,0.1425 0.0657,0.1922 0.0436,0.0494 0.1013,0.0742 0.1721,0.0742 0.0595,0 0.1105,-0.0183 0.1523,-0.0546 0.0421,-0.0365 0.0695,-0.0837 0.0826,-0.1416 0.0053,-0.0169 0.0156,-0.0252 0.0307,-0.0252l0.1399 0.0056c0.0076,0 0.014,0.0027 0.0194,0.0082 0.0056,0.0058 0.0076,0.0131 0.0056,0.0225 -0.0147,0.1102 -0.0599,0.1978 -0.1354,0.2621 -0.0755,0.0646 -0.1739,0.0969 -0.2951,0.0969 -0.1323,0 -0.2383,-0.0394 -0.3173,-0.1178 -0.0795,-0.0786 -0.1189,-0.1822 -0.1189,-0.3113l0 -0.6055c0,-0.1272 0.0394,-0.2303 0.1189,-0.3098 0.0791,-0.0795 0.1851,-0.1191 0.3173,-0.1191 0.1343,0 0.2407,0.0396 0.3202,0.1191 0.0793,0.0795 0.1187,0.1826 0.1187,0.3098l0 0.3505zm-0.4389 -0.6057c-0.0708,0 -0.1285,0.0249 -0.1721,0.0744 -0.0439,0.0494 -0.0657,0.1145 -0.0657,0.1949l0 0.1877c0,0.0076 0.0038,0.0114 0.0114,0.0114l0.4588 0c0.0071,0 0.0109,-0.0038 0.0109,-0.0114l0 -0.1877c0,-0.0804 -0.0223,-0.1454 -0.067,-0.1949 -0.0448,-0.0494 -0.1036,-0.0744 -0.1762,-0.0744z"/>
  <rect class="fil0" x="-0.0001" y="23.6751" width="47.3012" height="9.7985"/>
  <rect class="fil0" x="-0.0001" y="43.2721" width="47.3012" height="9.7985"/>
  <rect class="fil0" x="-0.0001" y="53.0706" width="47.3012" height="9.7985"/>
  <rect class="fil0" x="-0.0001" y="62.869" width="47.3012" height="9.7985"/>
  <rect class="fil0" x="-0.0001" y="33.4736" width="47.3012" height="9.7985"/>
 </g>
</svg>
