<?xml version="1.0" encoding="UTF-8"?>
<!DOCTYPE svg PUBLIC "-//W3C//DTD SVG 1.1//EN" "http://www.w3.org/Graphics/SVG/1.1/DTD/svg11.dtd">
<!-- Creator: CorelDRAW 2018 (64-Bit) -->
<svg xmlns="http://www.w3.org/2000/svg" xml:space="preserve" width="8.4349mm" height="8.4619mm" version="1.1" style="shape-rendering:geometricPrecision; text-rendering:geometricPrecision; image-rendering:optimizeQuality; fill-rule:evenodd; clip-rule:evenodd"
viewBox="0 0 0.6571 0.6592"
 xmlns:xlink="http://www.w3.org/1999/xlink">
 <defs>
  <style type="text/css">
   <![CDATA[
    .fil0 {fill:#F2AF20}
   ]]>
  </style>
 </defs>
 <g id="Warstwa_x0020_1">
  <metadata id="CorelCorpID_0Corel-Layer"/>
  <path class="fil0" d="M0.1015 0.0023c-0.1208,0.016 -0.0994,0.1453 -0.0994,0.2275 -0,0.0536 -0.0047,0.2968 -0,0.3273 0.0066,0.0436 0.0358,0.0763 0.0727,0.0905 0.0316,0.0122 0.2682,0.0073 0.3203,0.0077 0.1085,0.0008 0.2163,0.0286 0.2527,-0.0755 0.0118,-0.0337 0.0073,-0.2649 0.0073,-0.3176 0,-0.0425 0.0052,-0.1271 -0.0011,-0.1646 -0.0075,-0.0449 -0.0376,-0.0767 -0.0728,-0.0893 -0.0356,-0.0128 -0.1134,-0.0071 -0.1565,-0.007 -0.0528,0.0002 -0.2939,-0.0029 -0.3231,0.001zm0.2537 0.2406c-0.0169,0.0053 -0.0492,0.0015 -0.0685,0.0023l-0.0007 0.0868 0.0689 0.0009 0.0003 0.2608 0.1157 0.0013 0.0002 -0.2619 0.0796 0.0002 0.0002 -0.0876 -0.0802 -0.0006c-0.0005,-0.0727 0.0124,-0.0654 0.0791,-0.0669 0.0042,-0.0138 0.0038,-0.0705 0.0012,-0.0859 -0.0496,-0.0034 -0.1165,-0.0046 -0.1514,0.0212 -0.0427,0.0314 -0.0418,0.0629 -0.0444,0.1295z"/>
 </g>
</svg>
