<?xml version="1.0" encoding="UTF-8"?>
<!DOCTYPE svg PUBLIC "-//W3C//DTD SVG 1.1//EN" "http://www.w3.org/Graphics/SVG/1.1/DTD/svg11.dtd">
<!-- Creator: CorelDRAW 2018 (64-Bit) -->
<svg xmlns="http://www.w3.org/2000/svg" xml:space="preserve" width="8.3947mm" height="8.4339mm" version="1.1" style="shape-rendering:geometricPrecision; text-rendering:geometricPrecision; image-rendering:optimizeQuality; fill-rule:evenodd; clip-rule:evenodd"
viewBox="0 0 0.5517 0.5542"
 xmlns:xlink="http://www.w3.org/1999/xlink">
 <defs>
  <style type="text/css">
   <![CDATA[
    .fil0 {fill:#F2AF20}
   ]]>
  </style>
 </defs>
 <g id="Warstwa_x0020_1">
  <metadata id="CorelCorpID_0Corel-Layer"/>
  <path class="fil0" d="M0.1124 0.003c-0.0978,0.0101 -0.1109,0.0882 -0.1112,0.1646 -0.0002,0.0503 -0.0032,0.2416 0.001,0.2759 0.0054,0.0437 0.0239,0.0696 0.0494,0.0872 0.0344,0.0237 0.069,0.0232 0.1169,0.0229 0.0531,-0.0003 0.2379,0.0024 0.2739,-0.002 0.0364,-0.0045 0.0684,-0.0211 0.087,-0.0505 0.0229,-0.0362 0.0211,-0.0664 0.0211,-0.1147 0,-0.0514 0.0029,-0.2399 -0.0006,-0.2746 -0.0019,-0.0184 -0.0076,-0.0363 -0.0159,-0.0512 -0.0079,-0.0141 -0.0222,-0.0293 -0.0332,-0.0364 -0.0358,-0.0233 -0.067,-0.0235 -0.1159,-0.0236 -0.0595,-0.0001 -0.2245,-0.0027 -0.2724,0.0023zm0.0689 0.0717c-0.0592,0.0069 -0.0986,0.0398 -0.1064,0.0984 -0.0055,0.0413 -0.0067,0.157 -0.002,0.1988 0.0068,0.0613 0.0393,0.0983 0.097,0.1073 0.0418,0.0065 0.1586,0.0055 0.2018,0.0005 0.0567,-0.0065 0.0958,-0.0396 0.1044,-0.0989 0.0054,-0.0375 0.006,-0.161 0.0015,-0.1992 -0.0071,-0.0604 -0.0416,-0.097 -0.0979,-0.1055 -0.0396,-0.006 -0.1582,-0.0059 -0.1984,-0.0013z"/>
  <path class="fil0" d="M0.206 0.1093c-0.0253,0.0014 -0.0515,0.0025 -0.0673,0.0161 -0.0165,0.0142 -0.0249,0.0293 -0.0286,0.0564 -0.0059,0.0435 -0.0031,0.1206 -0.0021,0.1673 0.0012,0.0561 0.019,0.0889 0.073,0.0946 0.0462,0.0048 0.1177,0.0031 0.1646,0.0013 0.0579,-0.0023 0.0887,-0.0175 0.0954,-0.0727 0.0056,-0.0464 0.0028,-0.1181 0.0019,-0.1674 -0.001,-0.0557 -0.0192,-0.0886 -0.0729,-0.0945 -0.0442,-0.0049 -0.1188,-0.0036 -0.164,-0.0011zm0.1685 0.0374c-0.0266,0.0125 -0.0119,0.0539 0.0183,0.0437 0.0291,-0.0099 0.0132,-0.0584 -0.0183,-0.0437zm-0.1185 0.0278c-0.1405,0.0315 -0.0921,0.2323 0.0404,0.2052 0.0486,-0.0099 0.0942,-0.0618 0.0814,-0.1234 -0.01,-0.0481 -0.0592,-0.0959 -0.1218,-0.0819z"/>
  <path class="fil0" d="M0.2555 0.2115c-0.0858,0.026 -0.0482,0.1573 0.0391,0.132 0.0854,-0.0247 0.0505,-0.1592 -0.0391,-0.132z"/>
 </g>
</svg>
