<?xml version="1.0" encoding="UTF-8"?>
<!DOCTYPE svg PUBLIC "-//W3C//DTD SVG 1.1//EN" "http://www.w3.org/Graphics/SVG/1.1/DTD/svg11.dtd">
<!-- Creator: CorelDRAW 2018 (64-Bit) -->
<svg xmlns="http://www.w3.org/2000/svg" xml:space="preserve" width="15.204mm" height="8.4032mm" version="1.1" style="shape-rendering:geometricPrecision; text-rendering:geometricPrecision; image-rendering:optimizeQuality; fill-rule:evenodd; clip-rule:evenodd"
viewBox="0 0 1.5631 0.8639"
 xmlns:xlink="http://www.w3.org/1999/xlink">
 <defs>
  <style type="text/css">
   <![CDATA[
    .fil0 {fill:#FEFEFE;fill-rule:nonzero}
    .fil1 {fill:#E31E24;fill-rule:nonzero}
    .fil2 {fill:#F2AF20;fill-rule:nonzero}
   ]]>
  </style>
 </defs>
 <g id="Warstwa_x0020_1">
  <metadata id="CorelCorpID_0Corel-Layer"/>
  <path class="fil0" d="M0.9711 0.6864l0.5339 -0.0002 0.0581 -0.0527 -0.6066 0.0002 -0.08 -0.2885c0.0119,-0.004 0.0215,-0.0103 0.0288,-0.0191 0.0073,-0.0088 0.0126,-0.0195 0.0159,-0.0322 0.0033,-0.0127 0.0049,-0.0269 0.0049,-0.0424 -0,-0.0255 -0.0042,-0.046 -0.0127,-0.0617 -0.0084,-0.0157 -0.0214,-0.0271 -0.0389,-0.0342 -0.0175,-0.0071 -0.0397,-0.0107 -0.0664,-0.0106l-0.0808 0 0.0001 0.4016 0.056 -0 -0.0001 -0.1884 0.0436 -0 0.0902 0.3283 0.054 -0zm-0.1879 -0.3685l-0.0001 0 0 -0.1329 0.0248 0c0.0255,-0 0.0425,0.0052 0.0511,0.0156 0.0086,0.0104 0.0129,0.0273 0.0129,0.0508 0,0.0172 -0.0023,0.0306 -0.0069,0.0402 -0.0046,0.0096 -0.0119,0.0164 -0.0218,0.0203 -0.0099,0.004 -0.0228,0.006 -0.0387,0.006l-0.0213 0 0 -0z"/>
  <path class="fil0" d="M1.0858 0.5465l0.0851 -0.4017 0.054 -0 0.0859 0.4016 -0.0531 0 -0.0184 -0.1012 -0.0818 0 -0.0193 0.1012 -0.0526 0zm0.0793 -0.1413l0.0669 -0 -0.0338 -0.181 -0.0332 0.181z"/>
  <path class="fil0" d="M0.466 0.5467l-0.0001 -0.4016 0.0873 -0c0.0298,-0 0.0533,0.0045 0.0707,0.0136 0.0174,0.0091 0.0298,0.0227 0.0372,0.0409 0.0075,0.0182 0.0112,0.0408 0.0112,0.0679l0.0001 0.1478c0,0.0284 -0.0037,0.0524 -0.0111,0.0719 -0.0074,0.0195 -0.0195,0.0343 -0.0362,0.0444 -0.0167,0.0101 -0.0391,0.0151 -0.0672,0.0151l-0.0917 0zm0.056 -0.0402l0.0317 0c0.0205,-0 0.035,-0.004 0.0436,-0.0119 0.0086,-0.0079 0.0138,-0.0195 0.0156,-0.0347 0.0018,-0.0152 0.0027,-0.0335 0.0027,-0.055l-0.0001 -0.1304c-0,-0.0208 -0.0013,-0.0377 -0.004,-0.0506 -0.0026,-0.0129 -0.0084,-0.0223 -0.0174,-0.0283 -0.0089,-0.006 -0.023,-0.0089 -0.0422,-0.0089l-0.0302 0 0.0001 0.3198z"/>
  <polygon class="fil0" points="0.9876,0.5465 0.9875,0.1449 1.0425,0.1448 1.0427,0.5465 "/>
  <polygon class="fil1" points="0.9711,0.6864 0.9711,0.6865 0.9171,0.6865 "/>
  <polygon class="fil0" points="0.9042,0.0531 1.5036,0.0529 1.5037,0.4115 1.3896,0.1447 1.3514,0.1447 1.3516,0.5464 1.3992,0.5464 1.3991,0.2721 1.5147,0.5463 1.5504,0.5463 1.5502,0.0002 0.9639,0.0004 "/>
  <path class="fil0" d="M0.1189 0.5468l0.1159 -0.5468 0.0736 -0 0.117 0.5467 -0.0722 0 -0.025 -0.1377 -0.1114 0 -0.0263 0.1377 -0.0715 0zm0.1079 -0.1924l0.0911 -0 -0.046 -0.2464 -0.0451 0.2464z"/>
  <path class="fil2" d="M0.0001 0.8608l-0.0001 -0.2724 0.0592 -0c0.0202,-0 0.0361,0.0031 0.0479,0.0092 0.0118,0.0062 0.0202,0.0154 0.0252,0.0277 0.005,0.0123 0.0076,0.0277 0.0076,0.0461l0 0.1002c0,0.0193 -0.0025,0.0355 -0.0075,0.0488 -0.005,0.0132 -0.0132,0.0233 -0.0245,0.0301 -0.0113,0.0068 -0.0265,0.0103 -0.0456,0.0103l-0.0622 0zm0.038 -0.0273l0.0215 -0c0.0139,-0 0.0238,-0.0027 0.0296,-0.0081 0.0058,-0.0054 0.0094,-0.0132 0.0106,-0.0235 0.0012,-0.0103 0.0019,-0.0228 0.0019,-0.0373l-0 -0.0884c0,-0.0141 -0.0009,-0.0255 -0.0027,-0.0343 -0.0018,-0.0087 -0.0057,-0.0151 -0.0118,-0.0192 -0.0061,-0.004 -0.0156,-0.006 -0.0286,-0.006l-0.0205 0 0.0001 0.2169z"/>
  <polygon id="1" class="fil2" points="0.1773,0.8607 0.1772,0.5884 0.2828,0.5883 0.2828,0.6166 0.2152,0.6166 0.2152,0.7067 0.2701,0.7067 0.2701,0.7336 0.2152,0.7336 0.2153,0.8334 0.2835,0.8334 0.2835,0.8607 "/>
  <path id="2" class="fil2" d="M0.3783 0.8636c-0.0157,0 -0.0287,-0.0033 -0.0392,-0.0101 -0.0104,-0.0067 -0.0183,-0.016 -0.0237,-0.0279 -0.0054,-0.0119 -0.0085,-0.0257 -0.0094,-0.0413l0.0336 -0.0091c0.0007,0.0096 0.0022,0.0189 0.0046,0.0279 0.0023,0.009 0.0062,0.0163 0.0116,0.022 0.0054,0.0057 0.0129,0.0086 0.0225,0.0086 0.0099,-0 0.0173,-0.0028 0.0224,-0.0082 0.005,-0.0055 0.0075,-0.0134 0.0075,-0.0237 0,-0.0123 -0.0028,-0.0223 -0.0084,-0.0298 -0.0056,-0.0075 -0.0127,-0.0151 -0.0212,-0.0227l-0.0457 -0.0403c-0.009,-0.0079 -0.0156,-0.0164 -0.0199,-0.0257 -0.0043,-0.0093 -0.0064,-0.0208 -0.0064,-0.0345 -0,-0.0199 0.0057,-0.0354 0.0171,-0.0464 0.0114,-0.011 0.027,-0.0165 0.0467,-0.0165 0.0108,0 0.0202,0.0014 0.0284,0.0042 0.0082,0.0028 0.015,0.0071 0.0205,0.0129 0.0055,0.0058 0.0099,0.0132 0.0131,0.022 0.0033,0.0089 0.0055,0.0192 0.0066,0.0311l-0.0323 0.0087c-0.0007,-0.009 -0.002,-0.0172 -0.0041,-0.0247 -0.002,-0.0075 -0.0056,-0.0136 -0.0106,-0.0182 -0.005,-0.0046 -0.0123,-0.0069 -0.0217,-0.0069 -0.0094,0 -0.0167,0.0025 -0.022,0.0076 -0.0053,0.005 -0.0079,0.0125 -0.0079,0.0224 0,0.0083 0.0014,0.0151 0.0042,0.0205 0.0028,0.0054 0.0074,0.0109 0.0136,0.0165l0.0461 0.0403c0.0103,0.009 0.0194,0.0197 0.0273,0.0321 0.0078,0.0124 0.0118,0.0272 0.0118,0.0442 0,0.0134 -0.0028,0.0251 -0.0084,0.0348 -0.0056,0.0098 -0.0133,0.0172 -0.023,0.0224 -0.0098,0.0052 -0.021,0.0077 -0.0338,0.0077z"/>
  <polygon id="3" class="fil2" points="0.4752,0.8606 0.4751,0.5882 0.5124,0.5882 0.5125,0.8606 "/>
  <path id="4" class="fil2" d="M0.6215 0.8639c-0.017,0 -0.0307,-0.0036 -0.0409,-0.0109 -0.0102,-0.0073 -0.0176,-0.0179 -0.0222,-0.0318 -0.0046,-0.0139 -0.0069,-0.0306 -0.0069,-0.0501l-0 -0.0911c-0,-0.0199 0.0021,-0.0369 0.0062,-0.051 0.0041,-0.014 0.0115,-0.0247 0.0222,-0.0321 0.0106,-0.0074 0.0255,-0.0111 0.0445,-0.0111 0.0171,0 0.0308,0.0029 0.0412,0.0086 0.0104,0.0057 0.018,0.0145 0.0227,0.0262 0.0047,0.0118 0.0071,0.0266 0.0071,0.0445l0 0.0101 -0.0356 0 0 -0.0084c-0,-0.0119 -0.0008,-0.0216 -0.0024,-0.0291 -0.0016,-0.0075 -0.0048,-0.0131 -0.0096,-0.0168 -0.0048,-0.0037 -0.0124,-0.0055 -0.0227,-0.0055 -0.0112,0 -0.0193,0.0026 -0.0244,0.0077 -0.005,0.0052 -0.0082,0.0122 -0.0094,0.021 -0.0013,0.0088 -0.0019,0.0189 -0.0019,0.0301l0 0.1009c0,0.013 0.001,0.0239 0.0029,0.0326 0.0019,0.0087 0.0056,0.0152 0.0109,0.0195 0.0054,0.0043 0.013,0.0064 0.0229,0.0064 0.0099,0 0.0175,-0.0024 0.0229,-0.0071 0.0054,-0.0047 0.0091,-0.0117 0.0111,-0.0208 0.002,-0.0092 0.003,-0.0206 0.003,-0.0343l-0 -0.0188 -0.0346 0 -0 -0.0269 0.0689 -0 0.0001 0.1348 -0.0239 0 -0.0037 -0.0313c-0.0036,0.0101 -0.0092,0.0184 -0.0168,0.0249 -0.0076,0.0065 -0.0182,0.0098 -0.0316,0.0098z"/>
  <polygon id="5" class="fil2" points="0.7364,0.8605 0.7363,0.5881 0.7622,0.5881 0.8396,0.769 0.8396,0.5881 0.8712,0.5881 0.8713,0.8605 0.8471,0.8605 0.7687,0.6746 0.7687,0.8605 "/>
  <polygon id="6" class="fil2" points="0.9093,0.8604 0.9093,0.8204 0.9452,0.8204 0.9453,0.8604 "/>
 </g>
</svg>
