<?xml version="1.0" encoding="UTF-8"?>
<!DOCTYPE svg PUBLIC "-//W3C//DTD SVG 1.1//EN" "http://www.w3.org/Graphics/SVG/1.1/DTD/svg11.dtd">
<!-- Creator: CorelDRAW 2018 (64-Bit) -->
<svg xmlns="http://www.w3.org/2000/svg" xml:space="preserve" width="8.2551mm" height="8.2551mm" version="1.1" style="shape-rendering:geometricPrecision; text-rendering:geometricPrecision; image-rendering:optimizeQuality; fill-rule:evenodd; clip-rule:evenodd"
viewBox="0 0 1.0461 1.0461"
 xmlns:xlink="http://www.w3.org/1999/xlink">
 <defs>
  <style type="text/css">
   <![CDATA[
    .fil0 {fill:#F2AF20}
    .fil1 {fill:#FEFEFE}
   ]]>
  </style>
 </defs>
 <g id="Warstwa_x0020_1">
  <metadata id="CorelCorpID_0Corel-Layer"/>
  <circle class="fil0" cx="0.5231" cy="0.5231" r="0.5231"/>
  <path class="fil1" d="M0.7785 0.8579c-0.0146,-0.0407 -0.0952,-0.177 -0.1075,-0.2171 -0.0444,0.0124 -0.0712,0.0568 -0.1179,0.0173 -0.0581,-0.0492 -0.1591,-0.2412 -0.0878,-0.2761 0.0178,-0.0087 0.04,-0.0185 0.0573,-0.0292 -0.0015,-0.0124 -0.0953,-0.201 -0.1079,-0.2186 -0.0284,0.0103 -0.1016,0.0494 -0.1157,0.0668 -0.1163,0.1444 0.1195,0.5461 0.2221,0.6477 0.0655,0.0649 0.1124,0.0818 0.1961,0.0412 0.0123,-0.006 0.0528,-0.025 0.0612,-0.032z"/>
 </g>
</svg>
