<?xml version="1.0" encoding="UTF-8"?>
<!DOCTYPE svg PUBLIC "-//W3C//DTD SVG 1.1//EN" "http://www.w3.org/Graphics/SVG/1.1/DTD/svg11.dtd">
<!-- Creator: CorelDRAW 2018 (64-Bit) -->
<svg xmlns="http://www.w3.org/2000/svg" xml:space="preserve" width="8.2551mm" height="8.2551mm" version="1.1" style="shape-rendering:geometricPrecision; text-rendering:geometricPrecision; image-rendering:optimizeQuality; fill-rule:evenodd; clip-rule:evenodd"
viewBox="0 0 6.2616 6.2616"
 xmlns:xlink="http://www.w3.org/1999/xlink">
 <defs>
  <style type="text/css">
   <![CDATA[
    .fil1 {fill:#FEFEFE}
    .fil0 {fill:#F2AF20}
   ]]>
  </style>
 </defs>
 <g id="Warstwa_x0020_1">
  <metadata id="CorelCorpID_0Corel-Layer"/>
  <circle class="fil0" cx="3.1308" cy="3.1308" r="3.1308"/>
  <path class="fil1" d="M1.1815 4.4759l3.9097 -0.0015c-0.0109,-0.0254 -0.6915,-0.6757 -0.7774,-0.7562 -0.0299,-0.0281 -0.0537,-0.0563 -0.0838,-0.0849 -0.0584,-0.0554 -0.1249,-0.1097 -0.1784,-0.1673l-0.349 -0.3357c-0.0897,0.0398 -0.4888,0.4198 -0.5627,0.4234 -0.0598,0.0029 -0.237,-0.1607 -0.2905,-0.2035 -0.0476,-0.038 -0.0916,-0.074 -0.1388,-0.1104 -0.0448,-0.0346 -0.094,-0.0828 -0.1412,-0.11l-1.0421 1.0015c-0.0313,0.0292 -0.0561,0.0526 -0.0874,0.0816l-0.2168 0.209c-0.0231,0.0208 -0.0315,0.0215 -0.0415,0.0541z"/>
  <path class="fil1" d="M1.1988 1.7909c0.0003,0.0325 0.085,0.0834 0.1088,0.1028 0.0415,0.0337 0.0803,0.063 0.121,0.096l1.2162 0.9781c0.0826,0.0669 0.1587,0.1271 0.241,0.193 0.0429,0.0343 0.0786,0.0637 0.1201,0.0969 0.0406,0.0325 0.0851,0.0733 0.126,0.0994 0.0379,-0.0181 1.5943,-1.27 1.7063,-1.3645 0.0382,-0.0323 0.2257,-0.1718 0.2384,-0.201 -0.0636,-0.0058 -3.7176,-0.0095 -3.8778,-0.0008z"/>
  <path class="fil1" d="M1.0389 1.974l0.006 2.3698c0.024,-0.0017 0.0292,-0.0107 0.046,-0.0297 0.0203,-0.023 0.0242,-0.0284 0.0428,-0.0457 0.3199,-0.2984 0.6379,-0.623 0.9495,-0.9152l0.346 -0.334c-0.0201,-0.0324 -0.9176,-0.744 -1.0287,-0.8328 -0.0597,-0.0477 -0.1167,-0.0927 -0.1735,-0.1398 -0.0344,-0.0284 -0.1423,-0.1218 -0.1777,-0.1371l-0.0103 0.0645z"/>
  <path class="fil1" d="M3.8405 3.0192c0.0554,0.0588 0.112,0.1126 0.1698,0.1666l1.03 0.9955c0.0269,0.0288 0.1527,0.1513 0.1825,0.1654l-0.0015 -2.4348c-0.0281,0.0102 -1.364,1.0836 -1.3807,1.1073z"/>
 </g>
</svg>
